<svg xmlns="http://www.w3.org/2000/svg" xmlns:xlink="http://www.w3.org/1999/xlink" preserveAspectRatio="xMidYMid" width="49" height="65" viewBox="0 0 49 65">
  <defs>
    <style>
      .cls-1 {
        fill: #a86bae;
      }

      .cls-1, .cls-2 {
        fill-rule: evenodd;
      }

      .cls-2 {
        fill: #c68dcb;
      }
    </style>
  </defs>
  <g>
    <path d="M22.144,52.452 C22.144,53.755 23.199,54.810 24.500,54.810 C25.802,54.810 26.856,53.755 26.856,52.452 L26.856,45.717 C27.137,45.330 27.304,44.854 27.304,44.338 C27.304,43.035 26.249,41.979 24.948,41.979 L24.052,41.979 C22.751,41.979 21.696,43.035 21.696,44.338 C21.696,44.854 21.863,45.330 22.144,45.717 L22.144,52.452 Z" class="cls-1"/>
    <path d="M37.305,21.999 L37.305,12.577 C37.305,8.242 33.782,4.716 29.451,4.716 L19.549,4.716 C15.219,4.716 11.696,8.242 11.696,12.577 L11.696,21.999 L6.982,21.999 L6.982,12.577 C6.982,5.640 12.620,-0.002 19.549,-0.002 L29.451,-0.002 C36.380,-0.002 42.017,5.640 42.017,12.577 L42.017,21.999 L37.305,21.999 Z" class="cls-1"/>
    <path d="M31.580,64.999 L17.420,64.999 C7.815,64.999 0.000,57.178 0.000,47.564 L0.000,24.526 C0.000,23.223 1.055,22.168 2.356,22.168 L6.982,22.168 L6.982,21.999 L11.696,21.999 L11.696,22.168 L37.305,22.168 L37.305,21.999 L42.017,21.999 L42.017,22.168 L46.643,22.168 C47.945,22.168 49.000,23.223 49.000,24.526 L49.000,47.564 C49.000,57.178 41.185,64.999 31.580,64.999 ZM44.287,26.885 L4.713,26.885 L4.713,47.564 C4.713,54.577 10.414,60.282 17.420,60.282 L31.580,60.282 C38.587,60.282 44.287,54.577 44.287,47.564 L44.287,26.885 Z" class="cls-2"/>
  </g>
</svg>
