<svg xmlns="http://www.w3.org/2000/svg" xmlns:xlink="http://www.w3.org/1999/xlink" preserveAspectRatio="xMidYMid" width="60.97" height="61.97" viewBox="0 0 60.97 61.97">
  <defs>
    <style>
      .cls-1 {
        stroke: #a86bae;
        stroke-width: 4px;
        fill: none;
      }

      .cls-2 {
        fill: #c68dcb;
        fill-rule: evenodd;
      }
    </style>
  </defs>
  <g>
    <rect x="2" y="2" width="50.97" height="50.97" rx="5" ry="5" class="cls-1"/>
    <path d="M24.147,33.395 C23.772,33.778 23.277,33.965 22.784,33.957 C22.291,33.965 21.796,33.778 21.420,33.395 L15.528,27.371 C14.789,26.616 14.789,25.391 15.528,24.637 L17.088,23.042 C17.826,22.287 19.023,22.287 19.762,23.042 L22.784,26.132 L32.170,16.536 C32.908,15.781 34.105,15.781 34.844,16.536 L36.404,18.131 C37.141,18.885 37.141,20.109 36.404,20.865 L24.147,33.395 Z" class="cls-2"/>
    <path d="M51.927,37.634 C51.927,37.634 52.972,36.282 51.680,35.573 C50.386,34.863 49.769,36.406 49.769,36.406 L42.453,49.131 C42.453,49.131 40.932,52.786 38.604,51.467 C36.278,50.146 38.645,47.038 38.645,47.038 L48.239,30.357 C48.239,30.357 50.390,26.155 54.128,28.208 C57.863,30.264 55.301,34.253 55.301,34.253 L44.521,52.997 C44.521,52.997 41.280,59.721 35.607,56.602 C29.935,53.483 34.197,47.320 34.197,47.320 L42.379,33.087 C42.379,33.087 43.354,31.698 42.134,31.025 C40.909,30.353 40.205,31.891 40.205,31.891 L30.815,48.220 C30.815,48.220 27.403,54.849 34.436,58.714 C41.469,62.582 45.494,56.287 45.494,56.287 L58.399,33.841 C58.399,33.841 60.879,28.990 55.409,25.981 C49.938,22.973 46.985,27.564 46.985,27.564 L35.879,46.874 C35.879,46.874 32.829,51.100 37.413,53.618 C41.999,56.141 44.032,51.356 44.032,51.356 L51.927,37.634 Z" class="cls-2"/>
  </g>
</svg>
