<svg xmlns="http://www.w3.org/2000/svg" xmlns:xlink="http://www.w3.org/1999/xlink" preserveAspectRatio="xMidYMid" width="69" height="67" viewBox="0 0 69 67">
  <defs>
    <style>
      .cls-1 {
        fill: #f68500;
      }

      .cls-1, .cls-2 {
        fill-rule: evenodd;
      }

      .cls-2 {
        fill: #ffae73;
      }
    </style>
  </defs>
  <g>
    <path d="M58.713,8.087 C52.223,2.872 43.624,-0.001 34.500,-0.001 C25.375,-0.001 16.777,2.872 10.287,8.087 C3.653,13.419 -0.000,20.552 -0.000,28.171 C-0.000,35.791 3.653,42.924 10.287,48.256 C16.777,53.472 25.375,56.345 34.500,56.345 C35.429,56.345 36.365,56.314 37.296,56.253 L42.173,65.884 C42.585,66.560 43.317,66.980 44.112,66.999 C44.130,66.999 44.148,66.999 44.166,66.999 C44.941,66.999 45.668,66.616 46.101,65.974 L59.543,47.564 C65.646,42.313 69.000,35.447 69.000,28.172 C69.000,20.552 65.347,13.419 58.713,8.087 ZM56.762,44.822 L44.587,61.355 L40.715,53.343 C40.277,52.623 39.496,52.190 38.662,52.190 C38.582,52.190 38.501,52.194 38.420,52.202 C37.123,52.333 35.804,52.400 34.500,52.400 C17.557,52.400 3.773,41.490 3.773,28.081 C3.773,14.671 17.557,3.762 34.500,3.762 C51.443,3.762 65.227,14.671 65.227,28.081 C65.227,34.331 62.221,40.276 56.762,44.822 Z" class="cls-1"/>
    <path d="M42.824,41.001 C42.659,41.001 42.494,40.961 42.343,40.881 L34.500,36.710 L26.657,40.881 C26.309,41.066 25.887,41.036 25.569,40.801 C25.251,40.568 25.092,40.172 25.158,39.779 L26.656,30.946 L20.311,24.689 C20.029,24.412 19.928,23.996 20.049,23.619 C20.171,23.241 20.494,22.965 20.883,22.908 L29.652,21.618 L33.574,13.582 C33.748,13.225 34.107,12.999 34.500,12.999 C34.893,12.999 35.252,13.225 35.426,13.582 L39.348,21.618 L48.117,22.908 C48.506,22.965 48.829,23.241 48.951,23.619 C49.072,23.996 48.971,24.412 48.689,24.689 L42.344,30.946 L43.842,39.780 C43.908,40.172 43.749,40.568 43.431,40.801 C43.251,40.934 43.038,41.001 42.824,41.001 ZM24.385,24.937 L29.064,29.557 C29.282,29.771 29.381,30.081 29.330,30.384 L28.225,36.907 L34.009,33.827 C34.278,33.684 34.599,33.684 34.868,33.827 L40.652,36.906 L39.547,30.384 C39.496,30.081 39.595,29.771 39.812,29.557 L44.492,24.937 L38.025,23.986 C37.725,23.941 37.465,23.751 37.330,23.474 L34.439,17.540 L31.547,23.474 C31.412,23.751 31.152,23.941 30.852,23.986 L24.385,24.937 Z" class="cls-2"/>
  </g>
</svg>
