<svg xmlns="http://www.w3.org/2000/svg" xmlns:xlink="http://www.w3.org/1999/xlink" preserveAspectRatio="xMidYMid" width="64" height="51" viewBox="0 0 64 51">
  <defs>
    <style>
      .cls-1 {
        fill: #898989;
      }

      .cls-1, .cls-2 {
        fill-rule: evenodd;
      }

      .cls-2 {
        fill: #b9b9b9;
      }
    </style>
  </defs>
  <g>
    <path d="M55.306,37.251 L50.444,32.341 L55.306,27.429 L60.168,32.341 L55.306,37.251 ZM7.754,15.685 L7.754,7.845 L11.635,7.845 L11.635,15.685 L21.338,15.685 L21.338,19.605 L7.754,19.605 L7.754,15.685 Z" class="cls-1"/>
    <path d="M59.308,23.552 L22.157,23.552 C19.561,23.552 17.457,21.350 17.457,18.634 C17.457,15.917 19.561,13.714 22.157,13.714 L59.308,13.714 C61.904,13.714 64.008,15.917 64.008,18.634 C64.008,21.350 61.904,23.552 59.308,23.552 ZM26.384,9.781 L4.649,9.781 C2.077,9.781 -0.008,7.593 -0.008,4.895 C-0.008,2.195 2.077,0.007 4.649,0.007 L26.384,0.007 C28.956,0.007 31.042,2.195 31.042,4.895 C31.042,7.593 28.956,9.781 26.384,9.781 ZM43.783,37.272 L26.038,37.272 C23.442,37.272 21.339,35.070 21.339,32.354 C21.339,29.637 23.442,27.434 26.038,27.434 L43.783,27.434 C46.379,27.434 48.483,29.637 48.483,32.354 C48.483,35.070 46.379,37.272 43.783,37.272 ZM6.632,41.154 L43.783,41.154 C46.379,41.154 48.483,43.356 48.483,46.073 C48.483,48.789 46.379,50.991 43.783,50.991 L6.632,50.991 C4.036,50.991 1.932,48.789 1.932,46.073 C1.932,43.356 4.036,41.154 6.632,41.154 Z" class="cls-2"/>
  </g>
</svg>
