<svg xmlns="http://www.w3.org/2000/svg" xmlns:xlink="http://www.w3.org/1999/xlink" preserveAspectRatio="xMidYMid" width="72" height="75" viewBox="0 0 72 75">
  <defs>
    <style>
      .cls-1 {
        fill: #ff5f5f;
      }

      .cls-1, .cls-2 {
        fill-rule: evenodd;
      }

      .cls-2 {
        fill: #ea3434;
      }
    </style>
  </defs>
  <g>
    <path d="M50.999,0.003 C39.404,0.003 30.003,8.227 30.003,18.374 C30.003,24.173 33.081,29.336 37.877,32.703 L37.877,41.995 L47.074,36.414 C48.347,36.624 49.657,36.746 50.999,36.746 C62.596,36.746 71.995,28.521 71.995,18.374 C71.995,8.227 62.596,0.003 50.999,0.003 ZM50.999,34.122 C49.467,34.122 47.986,33.943 46.564,33.640 L40.386,37.354 L40.468,31.267 C35.732,28.419 32.628,23.710 32.628,18.374 C32.628,9.678 40.853,2.627 50.999,2.627 C61.145,2.627 69.371,9.678 69.371,18.374 C69.371,27.071 61.145,34.122 50.999,34.122 Z" class="cls-1"/>
    <path d="M58.464,11.553 C57.524,10.606 56.169,9.999 54.745,9.999 C53.906,9.999 53.117,10.195 52.360,10.586 C51.601,10.977 50.985,11.512 50.500,12.191 C50.015,11.512 49.398,10.977 48.640,10.586 C47.882,10.195 47.094,9.999 46.255,9.999 C44.830,9.999 43.476,10.606 42.536,11.553 C41.596,12.500 41.000,13.879 41.000,15.330 C41.000,16.329 41.208,17.298 41.465,18.027 C41.592,18.388 41.785,18.781 42.041,19.180 C42.300,19.583 42.536,19.921 42.738,20.188 C42.940,20.456 43.228,20.790 43.617,21.176 C44.007,21.563 44.325,21.866 44.557,22.082 C44.790,22.298 45.143,22.617 45.608,23.029 C46.144,23.502 46.525,23.855 46.771,24.079 C47.011,24.297 47.357,24.634 47.812,25.077 C48.731,25.972 49.406,26.797 50.045,27.742 C50.164,27.919 50.318,27.999 50.500,27.999 C50.692,27.999 50.858,27.921 50.975,27.742 C51.384,27.118 51.857,26.479 52.410,25.848 C52.968,25.213 53.433,24.719 53.805,24.366 C54.181,24.009 54.722,23.510 55.422,22.874 C55.854,22.481 56.200,22.185 56.432,21.969 C56.665,21.752 56.968,21.454 57.342,21.073 C57.716,20.693 58.011,20.365 58.221,20.095 C58.436,19.820 58.663,19.486 58.918,19.087 C59.441,18.272 59.670,17.626 59.858,16.720 C59.952,16.268 60.000,15.804 60.000,15.330 C60.000,13.879 59.404,12.500 58.464,11.553 ZM58.022,16.594 C57.846,17.634 57.314,18.653 56.427,19.658 C56.040,20.096 55.329,20.794 54.290,21.738 C53.752,22.228 53.319,22.629 52.979,22.948 C52.649,23.257 52.243,23.676 51.760,24.203 C51.280,24.725 50.861,25.243 50.503,25.749 C50.127,25.253 49.694,24.749 49.201,24.231 C48.704,23.709 48.321,23.313 48.037,23.050 C47.753,22.788 47.319,22.397 46.726,21.860 L46.093,21.289 L45.515,20.754 C45.265,20.523 45.073,20.335 44.947,20.192 C44.825,20.054 44.663,19.874 44.461,19.649 C44.259,19.424 44.104,19.226 44.002,19.068 C43.792,18.739 43.435,18.249 43.306,17.840 L43.095,17.175 C42.941,16.690 42.893,16.191 42.893,15.638 C42.893,14.588 43.260,13.689 43.993,12.949 C44.736,12.198 45.616,11.824 46.652,11.824 C47.377,11.824 48.046,12.021 48.661,12.424 C49.275,12.826 49.749,13.358 50.054,14.026 C50.143,14.220 50.293,14.317 50.504,14.317 C50.715,14.317 50.878,14.227 50.972,14.026 C51.281,13.364 51.724,12.826 52.338,12.424 C52.952,12.021 53.631,11.824 54.355,11.824 C55.391,11.824 56.271,12.198 57.005,12.939 C57.739,13.679 58.105,14.579 58.105,15.638 C58.105,15.966 58.075,16.284 58.022,16.594 Z" class="cls-2"/>
    <path d="M23.908,55.656 C27.339,53.553 29.555,49.401 29.555,45.564 C29.555,40.097 25.069,33.999 19.000,33.999 C12.930,33.999 8.444,40.097 8.444,45.564 C8.444,49.401 10.661,53.553 14.092,55.656 C5.964,57.811 -0.000,65.222 -0.000,73.948 C-0.000,74.527 0.475,74.999 1.056,74.999 L36.944,74.999 C37.525,74.999 38.000,74.527 38.000,73.948 C38.000,65.222 32.036,57.811 23.908,55.656 ZM10.555,45.564 C10.555,40.150 15.042,36.102 19.000,36.102 C22.958,36.102 27.444,40.150 27.444,45.564 C27.444,50.978 22.958,55.025 19.000,55.025 C15.042,55.025 10.555,50.978 10.555,45.564 ZM2.164,72.897 C2.692,64.118 10.081,57.128 19.000,57.128 C27.919,57.128 35.308,64.118 35.836,72.897 L2.164,72.897 Z" class="cls-2"/>
  </g>
</svg>
