<svg xmlns="http://www.w3.org/2000/svg" xmlns:xlink="http://www.w3.org/1999/xlink" preserveAspectRatio="xMidYMid" width="58.594" height="59.72" viewBox="0 0 58.594 59.72">
  <defs>
    <style>
      .cls-1 {
        fill: #3a93e6;
      }

      .cls-1, .cls-2 {
        fill-rule: evenodd;
      }

      .cls-2 {
        fill: #67b4fb;
      }
    </style>
  </defs>
  <g>
    <path d="M41.726,9.593 L41.726,3.834 C41.726,3.270 41.726,2.825 40.517,2.825 L4.238,2.825 C3.030,2.825 3.030,3.270 3.030,3.834 L3.030,55.897 C3.030,56.461 3.030,56.906 4.238,56.906 L26.625,56.906 L26.625,59.734 L4.922,59.734 C1.931,59.734 -0.002,57.833 -0.002,54.886 L-0.002,4.846 C-0.002,1.899 1.931,-0.004 4.923,-0.004 L39.833,-0.004 C42.825,-0.004 44.758,1.899 44.757,4.846 L44.757,9.593 L41.726,9.593 ZM23.989,51.561 C24.411,51.997 24.659,52.609 24.659,53.228 C24.659,53.847 24.411,54.454 23.989,54.890 C23.564,55.326 22.979,55.582 22.378,55.582 C21.774,55.582 21.187,55.326 20.763,54.890 C20.339,54.452 20.097,53.847 20.097,53.228 C20.097,52.604 20.340,51.997 20.763,51.561 C21.611,50.687 23.142,50.687 23.989,51.561 ZM5.544,48.049 L5.544,7.416 C5.544,6.674 6.128,6.071 6.847,6.071 L37.908,6.071 C38.628,6.071 39.211,6.674 39.211,7.416 L39.211,9.593 L36.605,9.593 L36.605,8.761 L8.150,8.761 L8.150,46.705 L26.625,46.705 L26.625,49.395 L6.847,49.395 C6.128,49.395 5.544,48.792 5.544,48.049 Z" class="cls-1"/>
    <path d="M54.300,11.729 L33.078,11.729 C30.460,11.729 28.768,13.409 28.768,16.008 L28.768,55.456 C28.768,58.055 30.460,59.734 33.077,59.734 L54.299,59.734 C56.918,59.734 58.609,58.055 58.609,55.456 L58.609,16.008 C58.610,13.409 56.919,11.729 54.300,11.729 ZM55.957,56.348 C55.957,56.846 55.957,57.239 54.901,57.239 L32.479,57.239 C31.421,57.239 31.421,56.846 31.421,56.348 L31.421,15.117 C31.421,14.619 31.421,14.225 32.479,14.225 L54.899,14.225 C55.957,14.225 55.957,14.619 55.957,15.117 L55.957,56.348 ZM52.616,17.089 L34.762,17.089 C34.132,17.089 33.621,17.622 33.621,18.277 L33.621,49.424 C33.621,50.079 34.132,50.611 34.762,50.611 L52.616,50.611 C53.246,50.611 53.756,50.079 53.756,49.424 L53.756,18.277 C53.756,17.622 53.246,17.089 52.616,17.089 ZM51.476,48.237 L35.902,48.237 L35.902,19.464 L51.476,19.464 L51.476,48.237 ZM42.276,52.522 C41.906,52.907 41.694,53.442 41.694,53.994 C41.694,54.540 41.905,55.073 42.276,55.460 C42.647,55.844 43.160,56.070 43.689,56.070 C44.215,56.070 44.727,55.844 45.099,55.460 C45.468,55.074 45.685,54.540 45.685,53.994 C45.685,53.447 45.468,52.907 45.099,52.522 C44.358,51.751 43.018,51.751 42.276,52.522 Z" class="cls-2"/>
  </g>
</svg>
