<svg xmlns="http://www.w3.org/2000/svg" xmlns:xlink="http://www.w3.org/1999/xlink" preserveAspectRatio="xMidYMid" width="68.562" height="73.88" viewBox="0 0 68.562 73.88">
  <defs>
    <style>
      .cls-1 {
        fill: #3a93e6;
      }

      .cls-1, .cls-2 {
        fill-rule: evenodd;
      }

      .cls-2 {
        fill: #67b4fb;
      }
    </style>
  </defs>
  <g>
    <path d="M59.560,60.305 C61.325,58.878 62.481,56.677 62.481,54.238 C62.481,50.132 59.073,46.504 55.179,46.504 C51.285,46.504 47.878,50.132 47.878,54.238 C47.878,56.677 49.034,58.878 50.798,60.305 C50.008,60.603 49.277,60.901 48.547,61.318 C46.235,58.641 43.193,56.558 39.664,55.547 C42.341,53.702 44.227,50.549 44.227,47.099 C44.227,41.684 39.664,36.985 34.492,36.985 C29.320,36.985 24.757,41.684 24.757,47.099 C24.757,50.549 26.643,53.702 29.320,55.547 C21.776,57.748 16.239,64.589 16.239,72.681 C16.239,73.335 16.787,73.870 17.456,73.870 L67.348,73.870 C68.017,73.870 68.565,73.335 68.565,72.681 C68.565,66.969 64.793,62.091 59.560,60.305 ZM50.312,54.238 C50.312,51.739 52.441,48.884 55.179,48.884 C57.917,48.884 60.047,51.739 60.047,54.238 C60.047,56.736 57.917,59.592 55.179,59.592 C52.441,59.592 50.312,56.736 50.312,54.238 ZM27.191,47.099 C27.191,43.469 30.294,39.365 34.492,39.365 C38.691,39.365 41.794,43.469 41.794,47.099 C41.794,50.728 38.691,54.833 34.492,54.833 C30.294,54.833 27.191,50.728 27.191,47.099 ZM18.734,71.491 C19.342,63.519 26.217,57.213 34.492,57.213 C42.828,57.213 49.642,63.519 50.251,71.491 L18.734,71.491 ZM52.685,71.491 C52.502,68.516 51.529,65.660 49.947,63.281 C51.529,62.448 53.293,61.972 55.179,61.972 C60.838,61.972 65.462,66.136 66.070,71.491 L52.685,71.491 Z" class="cls-1"/>
    <path d="M20.018,61.318 C20.628,60.610 21.293,59.948 22.000,59.333 L21.652,60.375 L18.945,64.874 L17.141,72.071 L17.657,73.870 L1.217,73.870 C0.547,73.870 -0.000,73.335 -0.000,72.681 C-0.000,66.969 3.772,62.091 9.005,60.305 C7.240,58.878 6.084,56.677 6.084,54.238 C6.084,50.132 9.492,46.504 13.386,46.504 C17.280,46.504 20.687,50.132 20.687,54.238 C20.687,56.677 19.531,58.878 17.766,60.305 C18.557,60.603 19.287,60.901 20.018,61.318 ZM2.494,71.491 L15.880,71.491 C16.063,68.516 17.036,65.660 18.618,63.281 C17.036,62.448 15.272,61.972 13.386,61.972 C7.727,61.972 3.103,66.136 2.494,71.491 ZM18.253,54.238 C18.253,51.739 16.124,48.884 13.386,48.884 C10.648,48.884 8.518,51.739 8.518,54.238 C8.518,56.736 10.648,59.592 13.386,59.592 C16.124,59.592 18.253,56.736 18.253,54.238 Z" class="cls-1"/>
    <path d="M54.079,-0.001 L28.916,-0.001 C28.412,-0.001 27.999,0.420 27.999,0.935 L27.999,24.502 C27.999,25.017 28.412,25.439 28.916,25.439 L36.790,25.439 L36.790,31.059 C36.790,31.902 37.754,32.323 38.351,31.715 L44.593,25.439 L54.079,25.439 C54.584,25.439 54.997,25.017 54.997,24.502 L54.997,0.935 C54.997,0.420 54.584,-0.001 54.079,-0.001 ZM52.367,22.751 L43.961,22.751 C43.732,22.751 43.502,22.845 43.319,23.032 L38.891,27.725 L38.891,23.688 C38.891,23.173 38.478,22.751 37.973,22.751 L30.628,22.751 L30.628,2.687 L52.367,2.687 L52.367,22.751 Z" class="cls-2"/>
    <path d="M40.920,17.506 C40.705,17.728 40.422,17.837 40.140,17.833 C39.859,17.837 39.576,17.728 39.361,17.506 L35.993,14.005 C35.571,13.567 35.571,12.856 35.993,12.417 L36.885,11.491 C37.307,11.053 37.991,11.053 38.413,11.491 L40.140,13.286 L45.505,7.710 C45.927,7.272 46.611,7.272 47.033,7.710 L47.925,8.637 C48.346,9.075 48.346,9.787 47.925,10.225 L40.920,17.506 Z" class="cls-1"/>
  </g>
</svg>
