<svg xmlns="http://www.w3.org/2000/svg" xmlns:xlink="http://www.w3.org/1999/xlink" preserveAspectRatio="xMidYMid" width="54.938" height="54.97" viewBox="0 0 54.938 54.97">
  <defs>
    <style>
      .cls-1 {
        fill: #a86bae;
      }

      .cls-1, .cls-2 {
        fill-rule: evenodd;
      }

      .cls-2 {
        fill: #c68dcb;
      }
    </style>
  </defs>
  <g>
    <path d="M5.690,30.356 C4.844,23.985 6.785,17.307 11.562,12.302 C18.625,4.901 29.619,3.545 38.166,8.325 L42.073,4.232 C31.236,-2.594 16.753,-1.103 7.584,8.504 C1.918,14.440 -0.553,22.257 0.109,29.842 C0.470,35.873 6.250,33.799 5.690,30.356 ZM36.650,13.434 L46.819,15.744 C48.300,16.079 49.176,15.164 48.780,13.699 L46.012,3.514 C45.614,2.050 44.446,1.753 43.404,2.856 L35.857,10.833 C34.814,11.932 35.168,13.098 36.650,13.434 Z" class="cls-1"/>
    <path d="M54.814,24.835 C54.529,21.053 48.702,21.184 49.250,24.528 C50.130,30.929 48.194,37.650 43.392,42.680 C36.328,50.081 25.334,51.437 16.789,46.656 L12.881,50.750 C23.718,57.576 38.200,56.086 47.371,46.478 C53.113,40.461 55.572,32.517 54.814,24.835 ZM18.341,41.622 L8.037,39.332 C6.555,39.003 5.682,39.921 6.086,41.386 L8.867,51.436 C9.272,52.898 10.454,53.200 11.505,52.108 L19.122,44.196 C20.172,43.103 19.821,41.950 18.341,41.622 Z" class="cls-2"/>
  </g>
</svg>
