<svg xmlns="http://www.w3.org/2000/svg" xmlns:xlink="http://www.w3.org/1999/xlink" preserveAspectRatio="xMidYMid" width="51" height="53" viewBox="0 0 51 53">
  <defs>
    <style>
      .cls-1 {
        fill: #7ed955;
      }

      .cls-1, .cls-2 {
        fill-rule: evenodd;
      }

      .cls-2 {
        fill: #5bbc30;
      }
    </style>
  </defs>
  <g>
    <path d="M47.961,52.997 L17.028,52.997 C15.350,52.997 13.990,51.663 13.990,50.018 L13.990,42.725 L13.990,27.108 L13.990,18.980 C13.990,17.335 15.350,16.001 17.028,16.001 L47.961,16.001 C49.640,16.001 51.000,17.335 51.000,18.980 L51.000,44.825 L51.000,46.516 L51.000,50.018 C51.000,51.663 49.640,52.997 47.961,52.997 ZM47.000,20.000 L18.000,20.000 L18.000,49.000 L47.000,49.000 L47.000,20.000 Z" class="cls-1"/>
    <path d="M40.000,14.000 L40.000,12.000 L11.000,12.000 L11.000,41.000 L12.000,41.000 L12.000,44.997 L10.028,44.997 C8.350,44.997 6.990,43.663 6.990,42.018 L6.990,34.725 L6.990,19.108 L6.990,10.980 C6.990,9.335 8.350,8.001 10.028,8.001 L40.961,8.001 C42.640,8.001 44.000,9.335 44.000,10.980 L44.000,14.000 L40.000,14.000 Z" class="cls-2"/>
    <path d="M33.000,5.999 L33.000,3.999 L4.000,3.999 L4.000,33.000 L5.000,33.000 L5.000,36.997 L3.028,36.997 C1.350,36.997 -0.010,35.663 -0.010,34.018 L-0.010,26.725 L-0.010,11.108 L-0.010,2.980 C-0.010,1.335 1.350,0.001 3.028,0.001 L33.961,0.001 C35.640,0.001 37.000,1.335 37.000,2.980 L37.000,5.999 L33.000,5.999 Z" class="cls-2"/>
    <path d="M32.357,40.347 C32.119,40.595 31.805,40.716 31.493,40.710 C31.181,40.716 30.867,40.595 30.629,40.347 L26.896,36.456 C26.428,35.969 26.428,35.178 26.896,34.691 L27.884,33.661 C28.352,33.173 29.111,33.173 29.578,33.661 L31.493,35.656 L37.439,29.459 C37.907,28.972 38.665,28.972 39.133,29.459 L40.121,30.489 C40.589,30.977 40.589,31.767 40.121,32.255 L32.357,40.347 Z" class="cls-2"/>
  </g>
</svg>
