<svg xmlns="http://www.w3.org/2000/svg" xmlns:xlink="http://www.w3.org/1999/xlink" preserveAspectRatio="xMidYMid" width="58" height="58" viewBox="0 0 58 58">
  <defs>
    <style>
      .cls-1 {
        fill: #ff5f5f;
      }

      .cls-1, .cls-2 {
        fill-rule: evenodd;
      }

      .cls-2 {
        fill: #ea3434;
      }
    </style>
  </defs>
  <g>
    <path d="M53.979,4.381 C48.375,-1.180 40.539,-1.482 35.351,3.666 L31.692,7.298 C30.284,8.697 30.275,10.970 31.675,12.379 C33.074,13.788 35.349,13.796 36.757,12.397 L40.414,8.768 C43.102,6.100 46.621,7.206 48.916,9.483 C50.140,10.696 50.812,12.308 50.812,14.019 C50.812,15.733 50.140,17.345 48.918,18.558 L37.393,29.991 C32.122,35.220 29.650,32.766 28.595,31.719 C27.187,30.320 24.912,30.328 23.513,31.736 C22.114,33.144 22.123,35.421 23.531,36.818 C25.950,39.220 28.712,40.410 31.607,40.410 C35.151,40.410 38.895,38.625 42.455,35.091 L53.981,23.657 C56.571,21.085 58.000,17.661 58.000,14.019 C58.000,10.378 56.571,6.955 53.979,4.381 Z" class="cls-1"/>
    <path d="M21.241,46.015 L18.306,48.930 C15.762,51.452 11.625,51.454 9.082,48.930 C7.859,47.718 7.188,46.106 7.188,44.394 C7.188,42.681 7.860,41.069 9.081,39.857 L19.884,29.139 C22.123,26.919 26.334,23.650 29.403,26.694 C30.812,28.094 33.088,28.084 34.485,26.676 C35.885,25.268 35.876,22.992 34.468,21.595 C29.250,16.417 21.538,17.373 14.822,24.038 L4.019,34.757 C1.426,37.329 -0.000,40.751 -0.000,44.394 C-0.000,48.036 1.426,51.457 4.019,54.030 C6.687,56.677 10.189,57.999 13.693,57.999 C17.198,57.999 20.702,56.677 23.370,54.029 L26.307,51.114 C27.715,49.716 27.723,47.441 26.324,46.032 C24.927,44.625 22.650,44.617 21.241,46.015 Z" class="cls-2"/>
  </g>
</svg>
