<svg xmlns="http://www.w3.org/2000/svg" xmlns:xlink="http://www.w3.org/1999/xlink" preserveAspectRatio="xMidYMid" width="62" height="48" viewBox="0 0 62 48">
  <defs>
    <style>
      .cls-1 {
        fill: #67b4fb;
      }

      .cls-1, .cls-2 {
        fill-rule: evenodd;
      }

      .cls-2 {
        fill: #3a93e6;
      }
    </style>
  </defs>
  <g>
    <path d="M58.961,47.997 L3.028,47.997 C1.350,47.997 -0.010,46.663 -0.010,45.018 L-0.010,37.725 L-0.010,11.109 L-0.010,2.981 C-0.010,1.335 1.350,0.001 3.028,0.001 L58.961,0.001 C60.640,0.001 62.000,1.335 62.000,2.981 L62.000,39.825 L62.000,41.516 L62.000,45.018 C62.000,46.663 60.640,47.997 58.961,47.997 ZM58.000,4.000 L4.000,4.000 L4.000,44.000 L58.000,44.000 L58.000,4.000 Z" class="cls-1"/>
    <path d="M47.500,25.999 L28.500,25.999 C27.119,25.999 26.000,24.880 26.000,23.500 C26.000,22.119 27.119,21.000 28.500,21.000 L47.500,21.000 C48.881,21.000 50.000,22.119 50.000,23.500 C50.000,24.880 48.881,25.999 47.500,25.999 ZM47.500,16.000 L23.500,16.000 C22.119,16.000 21.000,14.880 21.000,13.499 C21.000,12.119 22.119,11.000 23.500,11.000 L47.500,11.000 C48.881,11.000 50.000,12.119 50.000,13.499 C50.000,14.880 48.881,16.000 47.500,16.000 ZM28.500,31.000 L47.500,31.000 C48.881,31.000 50.000,32.119 50.000,33.500 C50.000,34.881 48.881,36.000 47.500,36.000 L28.500,36.000 C27.119,36.000 26.000,34.881 26.000,33.500 C26.000,32.119 27.119,31.000 28.500,31.000 Z" class="cls-1"/>
    <path d="M23.500,11.000 L47.500,11.000 C48.881,11.000 50.000,12.119 50.000,13.499 C50.000,14.880 48.881,16.000 47.500,16.000 L23.500,16.000 C22.119,16.000 21.000,14.880 21.000,13.499 C21.000,12.119 22.119,11.000 23.500,11.000 Z" class="cls-2"/>
    <path d="M22.000,36.000 L19.000,36.000 C17.895,36.000 17.000,35.104 17.000,34.000 L17.000,32.999 C17.000,31.895 17.895,31.000 19.000,31.000 L22.000,31.000 C23.104,31.000 24.000,31.895 24.000,32.999 L24.000,34.000 C24.000,35.104 23.104,36.000 22.000,36.000 ZM22.000,25.999 L19.000,25.999 C17.895,25.999 17.000,25.104 17.000,24.000 L17.000,23.000 C17.000,21.895 17.895,21.000 19.000,21.000 L22.000,21.000 C23.104,21.000 24.000,21.895 24.000,23.000 L24.000,24.000 C24.000,25.104 23.104,25.999 22.000,25.999 ZM16.000,16.000 L13.000,16.000 C11.895,16.000 11.000,15.104 11.000,14.000 L11.000,13.000 C11.000,11.895 11.895,11.000 13.000,11.000 L16.000,11.000 C17.105,11.000 18.000,11.895 18.000,13.000 L18.000,14.000 C18.000,15.104 17.105,16.000 16.000,16.000 Z" class="cls-2"/>
  </g>
</svg>
