<svg xmlns="http://www.w3.org/2000/svg" xmlns:xlink="http://www.w3.org/1999/xlink" preserveAspectRatio="xMidYMid" width="66.85" height="63.47" viewBox="0 0 66.85 63.47">
  <defs>
    <style>
      .cls-1 {
        stroke: #5bbc30;
        stroke-width: 4px;
        fill: none;
      }

      .cls-1, .cls-2 {
        fill-rule: evenodd;
      }

      .cls-2 {
        fill: #7ed955;
      }
    </style>
  </defs>
  <g>
    <path d="M7.001,2.001 L47.970,2.001 C50.731,2.001 52.970,4.239 52.970,7.001 L52.970,47.970 C52.970,50.731 50.731,52.970 47.970,52.970 L7.001,52.970 C4.240,52.970 2.001,50.731 2.001,47.970 L2.001,7.001 C2.001,4.239 4.240,2.001 7.001,2.001 Z" class="cls-1"/>
    <path d="M24.147,33.395 C23.772,33.778 23.277,33.965 22.784,33.957 C22.291,33.965 21.796,33.778 21.421,33.395 L15.528,27.371 C14.789,26.616 14.789,25.391 15.528,24.637 L17.088,23.042 C17.826,22.287 19.023,22.287 19.762,23.042 L22.784,26.132 L32.170,16.536 C32.908,15.781 34.105,15.781 34.843,16.536 L36.404,18.131 C37.141,18.886 37.141,20.110 36.404,20.865 L24.147,33.395 Z" class="cls-2"/>
    <path d="M63.887,43.635 L50.877,59.840 C49.364,61.724 46.625,62.036 44.759,60.538 L31.243,49.687 C29.376,48.189 29.090,45.447 30.602,43.563 L43.612,27.358 C44.556,26.182 46.035,25.570 47.522,25.741 L57.704,26.902 C59.356,27.089 60.747,28.206 61.285,29.777 L64.620,39.467 C65.108,40.884 64.831,42.458 63.887,43.635 ZM62.565,40.196 L59.229,30.504 C58.961,29.725 58.258,29.161 57.438,29.066 L47.256,27.905 C46.509,27.820 45.777,28.123 45.302,28.714 L32.292,44.919 C31.537,45.860 31.680,47.233 32.612,47.981 L46.128,58.833 C47.060,59.580 48.432,59.424 49.187,58.483 L62.197,42.278 C62.672,41.687 62.810,40.908 62.565,40.196 ZM51.695,38.055 C50.296,36.931 50.080,34.876 51.215,33.462 C52.349,32.049 54.404,31.814 55.804,32.937 C57.203,34.061 57.418,36.118 56.284,37.530 C55.148,38.945 53.095,39.179 51.695,38.055 ZM54.850,34.033 C54.069,33.406 52.922,33.534 52.291,34.321 C51.659,35.108 51.782,36.254 52.563,36.882 C53.344,37.508 54.490,37.381 55.122,36.593 C55.753,35.808 55.631,34.660 54.850,34.033 Z" class="cls-2"/>
  </g>
</svg>
