<svg xmlns="http://www.w3.org/2000/svg" xmlns:xlink="http://www.w3.org/1999/xlink" preserveAspectRatio="xMidYMid" width="62" height="62" viewBox="0 0 62 62">
  <defs>
    <style>
      .cls-1 {
        fill: #ff5f5f;
      }

      .cls-1, .cls-2 {
        fill-rule: evenodd;
      }

      .cls-2 {
        fill: #ea3434;
      }
    </style>
  </defs>
  <g>
    <path d="M31.000,61.999 C13.879,61.999 -0.000,48.120 -0.000,30.999 C-0.000,13.878 13.879,-0.001 31.000,-0.001 C48.121,-0.001 62.000,13.878 62.000,30.999 C62.000,48.120 48.121,61.999 31.000,61.999 ZM31.000,4.374 C16.295,4.374 4.375,16.294 4.375,30.999 C4.375,45.704 16.295,57.625 31.000,57.625 C45.705,57.625 57.626,45.704 57.626,30.999 C57.626,16.294 45.705,4.374 31.000,4.374 Z" class="cls-1"/>
    <path d="M31.000,34.874 C28.860,34.874 27.125,33.140 27.125,30.999 L27.125,19.374 C27.125,17.234 28.860,15.500 31.000,15.500 C33.140,15.500 34.875,17.234 34.875,19.374 L34.875,30.999 C34.875,33.140 33.140,34.874 31.000,34.874 ZM31.000,38.749 C33.140,38.749 34.875,40.485 34.875,42.624 C34.875,44.764 33.140,46.499 31.000,46.499 C28.860,46.499 27.125,44.764 27.125,42.624 C27.125,40.485 28.860,38.749 31.000,38.749 Z" class="cls-2"/>
  </g>
</svg>
