<svg xmlns="http://www.w3.org/2000/svg" xmlns:xlink="http://www.w3.org/1999/xlink" preserveAspectRatio="xMidYMid" width="45" height="61" viewBox="0 0 45 61">
  <defs>
    <style>
      .cls-1 {
        fill: #898989;
      }

      .cls-1, .cls-2 {
        fill-rule: evenodd;
      }

      .cls-2 {
        fill: #b9b9b9;
      }
    </style>
  </defs>
  <g>
    <path d="M15.000,50.000 L15.000,45.999 L35.000,45.999 L35.000,50.000 L15.000,50.000 ZM15.000,38.999 L35.000,38.999 L35.000,42.999 L15.000,42.999 L15.000,38.999 ZM15.000,31.999 L35.000,31.999 L35.000,36.000 L15.000,36.000 L15.000,31.999 ZM15.000,24.999 L35.000,24.999 L35.000,29.000 L15.000,29.000 L15.000,24.999 ZM15.000,17.999 L35.000,17.999 L35.000,22.000 L15.000,22.000 L15.000,17.999 ZM26.250,10.999 L18.750,10.999 C16.679,10.999 15.000,9.357 15.000,7.332 L15.000,3.666 C15.000,1.641 16.679,-0.001 18.750,-0.001 L26.250,-0.001 C28.321,-0.001 30.000,1.641 30.000,3.666 L30.000,7.332 C30.000,9.357 28.321,10.999 26.250,10.999 ZM22.500,2.906 C21.464,2.906 20.625,3.759 20.625,4.811 C20.625,5.865 21.464,6.719 22.500,6.719 C23.536,6.719 24.375,5.865 24.375,4.811 C24.375,3.759 23.536,2.906 22.500,2.906 ZM13.000,22.000 L9.000,22.000 L9.000,17.999 L13.000,17.999 L13.000,22.000 ZM13.000,29.000 L9.000,29.000 L9.000,24.999 L13.000,24.999 L13.000,29.000 ZM13.000,36.000 L9.000,36.000 L9.000,31.999 L13.000,31.999 L13.000,36.000 ZM13.000,42.999 L9.000,42.999 L9.000,38.999 L13.000,38.999 L13.000,42.999 ZM13.000,50.000 L9.000,50.000 L9.000,45.999 L13.000,45.999 L13.000,50.000 Z" class="cls-1"/>
    <path d="M41.250,60.999 L3.750,60.999 C1.679,60.999 -0.000,59.293 -0.000,57.187 L-0.000,9.530 C-0.000,7.425 1.679,5.718 3.750,5.718 L15.000,5.718 L15.000,3.666 C15.000,1.641 16.679,-0.001 18.750,-0.001 L26.250,-0.001 C28.321,-0.001 30.000,1.641 30.000,3.666 L30.000,5.718 L41.250,5.718 C43.321,5.718 45.000,7.425 45.000,9.530 L45.000,57.187 C45.000,59.293 43.321,60.999 41.250,60.999 ZM22.500,2.906 C21.464,2.906 20.625,3.759 20.625,4.811 C20.625,5.865 21.464,6.719 22.500,6.719 C23.536,6.719 24.375,5.865 24.375,4.811 C24.375,3.759 23.536,2.906 22.500,2.906 ZM41.000,10.999 L26.250,10.999 L18.750,10.999 L4.000,10.999 L4.000,56.999 L41.000,56.999 L41.000,10.999 Z" class="cls-2"/>
  </g>
</svg>
