<svg xmlns="http://www.w3.org/2000/svg" xmlns:xlink="http://www.w3.org/1999/xlink" preserveAspectRatio="xMidYMid" width="55" height="65" viewBox="0 0 55 65">
  <defs>
    <style>
      .cls-1 {
        fill: #f68500;
      }

      .cls-1, .cls-2 {
        fill-rule: evenodd;
      }

      .cls-2 {
        fill: #ffae73;
      }
    </style>
  </defs>
  <g>
    <path d="M48.125,13.380 L45.386,16.605 C51.284,21.644 55.005,29.147 55.005,37.525 C55.005,52.698 42.800,64.998 27.569,64.998 C12.337,64.998 -0.010,52.698 -0.010,37.525 C-0.010,22.758 12.767,10.078 24.569,10.078 L24.569,3.995 L22.535,3.995 C22.535,3.995 20.625,4.058 20.625,2.345 C20.625,2.345 20.370,-0.000 22.662,-0.000 L32.529,-0.000 C32.529,-0.000 34.693,0.126 34.693,2.092 C34.693,2.092 34.566,4.058 32.529,4.058 L30.492,4.058 L30.490,10.070 C36.020,10.574 38.810,12.393 42.682,14.569 L45.706,11.557 L44.225,10.209 L46.151,8.117 L51.308,12.366 L49.334,14.331 L48.125,13.380 ZM42.839,22.450 C38.963,18.621 33.496,16.135 27.582,16.135 C21.587,16.135 16.163,18.623 12.258,22.547 C12.577,22.930 14.467,24.438 14.467,24.438 L12.862,26.598 C12.862,26.598 10.588,24.214 10.463,24.385 C8.068,27.658 6.267,32.271 6.067,36.590 C7.833,36.544 10.181,36.519 10.181,36.519 L10.143,38.541 C10.143,38.541 6.057,38.380 6.062,38.494 C6.247,42.990 7.821,47.107 10.368,50.451 C11.311,49.838 13.047,48.578 13.047,48.578 L14.576,50.223 C14.576,50.223 12.078,52.435 12.314,52.668 C12.940,53.290 13.605,53.872 14.305,54.414 C17.693,57.034 21.897,58.669 26.479,58.899 C26.462,57.395 26.564,54.741 26.564,54.741 L28.475,54.753 C28.475,54.753 28.362,58.914 28.513,58.907 C34.091,58.671 39.105,56.352 42.783,52.702 C43.126,52.363 40.338,50.317 40.338,50.317 L41.550,48.600 C41.550,48.600 44.504,50.778 44.679,50.549 C47.246,47.203 48.836,43.070 49.034,38.553 C49.042,38.364 44.801,38.569 44.801,38.569 L44.726,36.519 C44.726,36.519 48.153,36.523 49.025,36.466 C48.791,31.952 47.166,27.815 44.565,24.473 C44.409,24.273 41.695,26.434 41.695,26.434 L40.233,24.666 C40.233,24.666 42.151,22.903 42.839,22.450 ZM27.405,42.614 C25.664,42.614 24.381,41.336 24.381,39.602 C24.381,36.621 26.481,36.463 26.481,36.463 C26.481,32.543 26.481,19.277 26.481,19.277 C26.481,18.717 26.937,18.263 27.500,18.263 C28.062,18.263 28.518,18.717 28.518,19.277 C28.518,19.277 28.518,32.402 28.518,36.399 C28.518,36.399 30.555,36.684 30.555,39.602 C30.555,41.336 29.145,42.614 27.405,42.614 Z" class="cls-1"/>
    <path d="M24.569,10.078 C12.767,10.078 -0.010,22.758 -0.010,37.525 C-0.010,52.698 12.337,64.998 27.569,64.998 C42.800,64.998 55.005,52.698 55.005,37.525 C55.005,29.147 51.284,21.644 45.386,16.605 L42.682,14.569 C38.810,12.393 36.020,10.574 30.490,10.070 L24.569,10.078 ZM42.839,22.450 C38.963,18.621 33.496,16.135 27.582,16.135 C21.587,16.135 16.163,18.623 12.258,22.547 C12.577,22.930 14.467,24.438 14.467,24.438 L12.862,26.598 C12.862,26.598 10.588,24.214 10.463,24.385 C8.068,27.658 6.267,32.271 6.067,36.590 C7.833,36.544 10.181,36.519 10.181,36.519 L10.143,38.541 C10.143,38.541 6.057,38.380 6.062,38.494 C6.247,42.990 7.821,47.107 10.368,50.451 C11.311,49.838 13.047,48.578 13.047,48.578 L14.576,50.223 C14.576,50.223 12.078,52.435 12.314,52.668 C12.940,53.290 13.605,53.872 14.305,54.414 C17.693,57.034 21.897,58.669 26.479,58.899 C26.462,57.395 26.564,54.741 26.564,54.741 L28.475,54.753 C28.475,54.753 28.362,58.914 28.513,58.907 C34.091,58.671 39.105,56.352 42.783,52.702 C43.126,52.363 40.338,50.317 40.338,50.317 L41.550,48.600 C41.550,48.600 44.504,50.778 44.679,50.549 C47.246,47.203 48.836,43.070 49.034,38.553 C49.042,38.364 44.801,38.569 44.801,38.569 L44.726,36.519 C44.726,36.519 48.153,36.523 49.025,36.466 C48.791,31.952 47.166,27.815 44.565,24.473 C44.409,24.273 41.695,26.434 41.695,26.434 L40.233,24.666 C40.233,24.666 42.151,22.903 42.839,22.450 Z" class="cls-2"/>
  </g>
</svg>
