<svg xmlns="http://www.w3.org/2000/svg" xmlns:xlink="http://www.w3.org/1999/xlink" preserveAspectRatio="xMidYMid" width="66" height="58" viewBox="0 0 66 58">
  <defs>
    <style>
      .cls-1 {
        fill: #ff5f5f;
      }

      .cls-1, .cls-2 {
        fill-rule: evenodd;
      }

      .cls-2 {
        fill: #ea3434;
      }
    </style>
  </defs>
  <g>
    <path d="M65.771,17.796 L59.541,25.908 C59.260,26.273 58.784,26.423 58.348,26.287 L40.045,26.287 L40.045,56.896 C40.045,56.975 40.016,57.045 40.000,57.120 L40.000,0.878 C40.016,0.953 40.045,1.023 40.045,1.103 L40.045,7.905 L58.673,7.905 C59.013,7.905 59.333,8.064 59.541,8.334 L65.771,16.447 C66.076,16.844 66.076,17.398 65.771,17.796 ZM58.134,10.113 L40.045,10.113 L40.045,24.080 L40.045,24.080 L58.172,24.080 L63.517,17.121 L58.134,10.113 ZM31.000,0.792 L31.000,57.206 C30.970,57.106 30.938,57.006 30.938,56.896 L30.938,35.870 L20.983,35.870 C20.688,35.870 20.406,35.750 20.199,35.538 L14.843,30.037 C14.425,29.609 14.425,28.922 14.843,28.493 L20.199,22.992 C20.476,22.709 20.878,22.598 21.253,22.695 L30.938,22.695 L30.938,19.615 L9.739,19.615 C9.461,19.615 9.193,19.509 8.990,19.318 L0.348,11.206 C0.126,10.998 0.000,10.705 0.000,10.400 C0.000,10.094 0.126,9.801 0.349,9.592 L8.990,1.481 C9.280,1.210 9.690,1.118 10.064,1.233 L30.938,1.233 L30.938,1.103 C30.938,0.992 30.970,0.892 31.000,0.792 ZM21.411,24.902 L17.162,29.265 L21.444,33.663 L30.938,33.663 L30.938,24.902 L21.411,24.902 ZM10.119,3.441 L2.705,10.400 L10.171,17.408 L30.938,17.408 L30.938,3.441 L10.119,3.441 Z" class="cls-1"/>
    <path d="M38.948,57.999 L32.035,57.999 C31.538,57.999 31.135,57.661 31.000,57.206 L31.000,0.792 C31.135,0.337 31.538,-0.001 32.035,-0.001 L38.948,-0.001 C39.475,-0.001 39.894,0.380 40.000,0.878 L40.000,57.120 C39.894,57.618 39.475,57.999 38.948,57.999 ZM37.851,2.206 L33.132,2.206 L33.132,55.792 L37.851,55.792 L37.851,2.206 Z" class="cls-2"/>
  </g>
</svg>
