<svg xmlns="http://www.w3.org/2000/svg" xmlns:xlink="http://www.w3.org/1999/xlink" preserveAspectRatio="xMidYMid" width="58" height="58" viewBox="0 0 58 58">
  <defs>
    <style>
      .cls-1 {
        fill: #5bbc30;
      }

      .cls-1, .cls-2 {
        fill-rule: evenodd;
      }

      .cls-2 {
        fill: #7ed955;
      }
    </style>
  </defs>
  <g>
    <path d="M15.312,53.500 L15.000,53.500 L15.000,55.547 C14.014,57.010 12.388,58.000 10.493,58.000 L4.941,58.000 C1.881,58.000 -0.000,56.120 -0.000,53.058 L-0.000,23.447 C-0.000,20.386 1.881,18.506 4.941,18.506 L10.493,18.506 C11.876,18.506 13.223,19.148 14.195,19.986 L14.096,19.903 C14.194,19.860 14.582,19.671 15.000,19.465 L15.000,20.812 L15.312,20.812 L15.312,53.500 ZM12.344,23.447 C12.344,22.424 11.517,21.597 10.493,21.597 L4.941,21.597 C3.918,21.597 3.091,22.424 3.091,23.447 L3.091,53.058 C3.091,54.081 3.918,54.909 4.941,54.909 L10.493,54.909 C11.517,54.909 12.344,54.081 12.344,53.058 L12.344,23.447 ZM7.717,53.058 C6.185,53.058 4.941,51.814 4.941,50.282 C4.941,48.749 6.185,47.506 7.717,47.506 C9.250,47.506 10.493,48.749 10.493,50.282 C10.493,51.814 9.250,53.058 7.717,53.058 ZM7.717,49.357 C7.209,49.357 6.792,49.772 6.792,50.282 C6.792,50.791 7.209,51.207 7.717,51.207 C8.226,51.207 8.643,50.791 8.643,50.282 C8.643,49.772 8.226,49.357 7.717,49.357 Z" class="cls-1"/>
    <path d="M57.953,26.436 C57.899,27.806 57.421,29.287 56.373,30.462 C57.074,31.766 57.342,33.331 57.093,34.853 C56.691,37.309 55.737,38.918 54.620,39.973 C55.105,41.159 55.314,42.814 54.617,45.019 C54.201,46.362 53.561,48.427 51.573,49.793 C51.888,51.008 51.790,52.204 51.530,53.050 C51.183,54.174 50.756,55.004 50.738,55.042 C49.415,57.424 47.803,58.000 44.720,58.000 L34.602,58.000 C29.457,58.000 24.490,56.940 23.550,56.727 C19.164,55.718 17.112,55.227 16.045,54.963 C16.010,54.952 15.994,54.949 15.960,54.941 C15.784,54.894 15.641,54.858 15.517,54.826 C15.492,54.822 15.453,54.811 15.431,54.804 C15.307,55.064 15.160,55.310 15.000,55.547 L15.000,19.465 C15.398,19.267 15.823,19.054 16.045,18.936 C22.254,15.672 24.018,8.828 24.058,5.101 C24.097,2.063 25.978,-0.001 29.000,-0.001 C33.279,-0.001 37.505,5.237 37.505,11.877 C37.505,14.657 37.826,16.833 37.450,18.569 C45.405,18.779 50.845,18.365 53.159,18.973 C56.788,20.009 58.000,22.787 58.000,25.124 C58.000,25.656 57.989,25.806 57.975,26.050 L57.953,26.436 ZM52.711,22.290 C51.078,21.863 51.208,21.597 32.701,21.597 C34.237,17.023 34.414,16.265 34.414,11.877 C34.414,7.017 30.955,3.090 29.000,3.090 C27.843,3.090 27.160,4.054 27.149,4.941 C27.073,11.245 24.499,18.921 16.045,22.422 C15.934,22.469 15.779,22.516 15.664,22.561 C15.529,22.601 15.419,22.673 15.301,22.735 L15.301,51.534 C15.564,51.643 15.773,51.681 15.773,51.681 C16.256,51.818 16.661,51.956 24.349,53.726 C24.479,53.755 29.520,54.909 34.602,54.909 L44.720,54.909 C46.628,54.909 47.528,54.301 48.088,53.293 C48.099,53.267 48.372,52.711 48.603,51.959 C48.815,51.273 48.721,49.357 46.697,49.357 C45.077,49.357 43.794,49.357 43.794,49.357 C43.281,49.357 42.869,48.940 42.869,48.431 C42.869,47.918 43.281,47.506 43.794,47.506 C43.794,47.506 45.482,47.506 46.812,47.506 C50.749,47.506 51.110,45.774 51.699,43.905 C52.148,42.486 52.424,40.103 49.299,40.103 C47.853,40.103 45.656,40.103 45.656,40.103 C45.143,40.103 44.730,39.687 44.730,39.178 C44.730,38.664 45.143,38.252 45.656,38.252 C45.656,38.252 46.928,38.252 50.051,38.252 C53.178,38.252 53.825,35.643 54.054,34.262 C54.233,33.152 53.868,30.850 51.092,30.850 C48.316,30.850 47.506,30.850 47.506,30.850 C46.993,30.850 46.581,30.434 46.581,29.925 C46.581,29.414 46.993,28.999 47.506,28.999 C47.506,28.999 48.432,28.999 51.208,28.999 C54.446,28.999 54.830,27.201 54.866,26.288 C54.891,25.666 54.909,25.759 54.909,25.124 C54.909,24.546 54.736,22.869 52.711,22.290 Z" class="cls-2"/>
  </g>
</svg>
