<svg xmlns:sketch="http://www.bohemiancoding.com/sketch/ns" xmlns="http://www.w3.org/2000/svg" width="733" height="414" viewBox="-33 94 733 414" enable-background="new -33 94 733 414"><path d="M571 141h90v63h-90v-63z" fill="none"/><path d="M690.9 94c-.9 3.1-3.7 5.3-7 5.3s-6.2-2.3-7-5.3h-9.2c-.9 3.1-3.7 5.3-7 5.3s-6.2-2.3-7-5.3h-9.2c-.9 3.1-3.7 5.3-7.1 5.3-3.4 0-6.2-2.3-7-5.3h-9.2c-.9 3.1-3.7 5.3-7 5.3s-6.2-2.3-7-5.3h-9.2c-.9 3.1-3.7 5.3-7 5.3s-6.2-2.3-7-5.3h-9.2c-.9 3.1-3.7 5.3-7.1 5.3-3.4 0-6.2-2.3-7-5.3h-9.2c-.9 3.1-3.7 5.3-7 5.3s-6.2-2.3-7-5.3h-9.2c-.9 3.1-3.7 5.3-7 5.3s-6.2-2.3-7-5.3h-9.2c-.9 3.1-3.7 5.3-7.1 5.3-3.4 0-6.2-2.3-7-5.3h-9.2c-.9 3.1-3.7 5.3-7 5.3s-6.2-2.3-7-5.3h-9.2c-.9 3.1-3.7 5.3-7 5.3s-6.2-2.3-7-5.3h-9.2c-.9 3.1-3.7 5.3-7.1 5.3-3.4 0-6.2-2.3-7-5.3h-9.2c-.9 3.1-3.7 5.3-7 5.3s-6.2-2.3-7-5.3h-9.2c-.9 3.1-3.7 5.3-7 5.3s-6.2-2.3-7-5.3h-9.2c-.9 3.1-3.7 5.3-7 5.3-3.4 0-6.2-2.3-7.1-5.3h-9.2c-.9 3.1-3.7 5.3-7 5.3s-6.2-2.3-7-5.3h-9.2c-.9 3.1-3.7 5.3-7 5.3s-6.2-2.3-7-5.3h-9.2c-.9 3.1-3.7 5.3-7.1 5.3-3.4 0-6.2-2.3-7-5.3h-9.2c-.9 3.1-3.7 5.3-7 5.3s-6.2-2.3-7-5.3h-9.2c-.9 3.1-3.7 5.3-7 5.3s-6.2-2.3-7-5.3h-9.2c-.9 3.1-3.7 5.3-7.1 5.3-3.4 0-6.2-2.3-7.1-5.3h-9.2c-.9 3.1-3.7 5.3-7.1 5.3s-6.2-2.3-7.1-5.3h-9.2c-.9 3.1-3.7 5.3-7.1 5.3s-6.2-2.3-7.1-5.3h-9.2c-.9 3.1-3.7 5.3-7.1 5.3-3.4 0-6.2-2.3-7.1-5.3h-9.2c-.9 3.1-3.7 5.3-7.1 5.3s-6.2-2.3-7.1-5.3h-9.2c-.9 3.1-3.7 5.3-7.1 5.3s-6.2-2.3-7.1-5.3h-9.2c-.9 3.1-3.7 5.3-7.1 5.3-3.4 0-6.2-2.3-7.1-5.3h-9.2c-.9 3.1-3.7 5.3-7.1 5.3s-6.2-2.3-7.1-5.3h-9.2c-.9 3.1-3.7 5.3-7 5.3s-6.2-2.3-7-5.3h-9.2c-.9 3.1-3.7 5.3-7 5.3-3.4 0-6.2-2.3-7-5.3h-9.2c-.9 3.1-3.7 5.3-7 5.3s-6.2-2.3-7-5.3h-9.3v414h8.4c.7-3.4 3.6-5.9 7.2-5.9s6.5 2.5 7.2 5.9h8.9c.7-3.4 3.6-5.9 7.2-5.9s6.5 2.5 7.2 5.9h8.9c.7-3.4 3.6-5.9 7.2-5.9s6.5 2.5 7.2 5.9h8.9c.7-3.4 3.6-5.9 7.2-5.9s6.5 2.5 7.2 5.9h8.9c.7-3.4 3.6-5.9 7.2-5.9s6.5 2.5 7.2 5.9h8.9c.7-3.4 3.6-5.9 7.2-5.9s6.5 2.5 7.2 5.9h8.9c.7-3.4 3.6-5.9 7.2-5.9s6.5 2.5 7.2 5.9h8.9c.7-3.4 3.6-5.9 7.2-5.9s6.5 2.5 7.2 5.9h8.9c.7-3.4 3.6-5.9 7.2-5.9s6.5 2.5 7.2 5.9h8.9c.7-3.4 3.6-5.9 7.2-5.9s6.5 2.5 7.2 5.9h8.9c.7-3.4 3.6-5.9 7.2-5.9s6.5 2.5 7.2 5.9h8.9c.7-3.4 3.6-5.9 7.2-5.9s6.5 2.5 7.2 5.9h8.9c.7-3.4 3.6-5.9 7.2-5.9s6.5 2.5 7.2 5.9h8.9c.7-3.4 3.6-5.9 7.2-5.9s6.5 2.5 7.2 5.9h8.9c.7-3.4 3.6-5.9 7.2-5.9s6.5 2.5 7.2 5.9h8.9c.7-3.4 3.6-5.9 7.2-5.9s6.5 2.5 7.2 5.9h8.9c.7-3.4 3.6-5.9 7.2-5.9s6.5 2.5 7.2 5.9h8.9c.7-3.4 3.6-5.9 7.2-5.9s6.5 2.5 7.2 5.9h8.9c.7-3.4 3.6-5.9 7.2-5.9s6.5 2.5 7.2 5.9h8.9c.7-3.4 3.6-5.9 7.2-5.9s6.5 2.5 7.2 5.9h8.9c.7-3.4 3.6-5.9 7.2-5.9s6.5 2.5 7.2 5.9h8.9c.7-3.4 3.6-5.9 7.2-5.9s6.5 2.5 7.2 5.9h8.9c.7-3.4 3.6-5.9 7.2-5.9s6.5 2.5 7.2 5.9h8.9c.7-3.4 3.6-5.9 7.2-5.9s6.5 2.5 7.2 5.9h8.9c.7-3.4 3.6-5.9 7.2-5.9s6.5 2.5 7.2 5.9h8.9c.7-3.4 3.6-5.9 7.2-5.9s6.5 2.5 7.2 5.9h8.9c.7-3.4 3.6-5.9 7.2-5.9s6.5 2.5 7.2 5.9h8.9c.7-3.4 3.6-5.9 7.2-5.9s6.5 2.5 7.2 5.9h8.9c.7-3.4 3.6-5.9 7.2-5.9s6.5 2.5 7.2 5.9h8.9c.7-3.4 3.6-5.9 7.2-5.9s6.5 2.5 7.2 5.9h8.9c.7-3.4 3.6-5.9 7.2-5.9s6.5 2.5 7.2 5.9h9.2v-414h-9.5" fill="none"/><g transform="translate(-353 -335) translate(353 335)" sketch:type="MSLayerGroup"><path fill="#27A366" d="M690.9 94c-.9 3.1-3.7 5.3-7 5.3s-6.2-2.3-7-5.3h-9.2c-.9 3.1-3.7 5.3-7 5.3s-6.2-2.3-7-5.3h-9.2c-.9 3.1-3.7 5.3-7.1 5.3-3.4 0-6.2-2.3-7-5.3h-9.2c-.9 3.1-3.7 5.3-7 5.3s-6.2-2.3-7-5.3h-9.2c-.9 3.1-3.7 5.3-7 5.3s-6.2-2.3-7-5.3h-9.2c-.9 3.1-3.7 5.3-7.1 5.3-3.4 0-6.2-2.3-7-5.3h-9.2c-.9 3.1-3.7 5.3-7 5.3s-6.2-2.3-7-5.3h-9.2c-.9 3.1-3.7 5.3-7 5.3s-6.2-2.3-7-5.3h-9.2c-.9 3.1-3.7 5.3-7.1 5.3-3.4 0-6.2-2.3-7-5.3h-9.2c-.9 3.1-3.7 5.3-7 5.3s-6.2-2.3-7-5.3h-9.2c-.9 3.1-3.7 5.3-7 5.3s-6.2-2.3-7-5.3h-9.2c-.9 3.1-3.7 5.3-7.1 5.3-3.4 0-6.2-2.3-7-5.3h-9.2c-.9 3.1-3.7 5.3-7 5.3s-6.2-2.3-7-5.3h-9.2c-.9 3.1-3.7 5.3-7 5.3s-6.2-2.3-7-5.3h-9.2c-.9 3.1-3.7 5.3-7 5.3-3.4 0-6.2-2.3-7.1-5.3h-9.2c-.9 3.1-3.7 5.3-7 5.3s-6.2-2.3-7-5.3h-9.2c-.9 3.1-3.7 5.3-7 5.3s-6.2-2.3-7-5.3h-9.2c-.9 3.1-3.7 5.3-7.1 5.3-3.4 0-6.2-2.3-7-5.3h-9.2c-.9 3.1-3.7 5.3-7 5.3s-6.2-2.3-7-5.3h-9.2c-.9 3.1-3.7 5.3-7 5.3s-6.2-2.3-7-5.3h-9.2c-.9 3.1-3.7 5.3-7.1 5.3-3.4 0-6.2-2.3-7.1-5.3h-9.2c-.9 3.1-3.7 5.3-7.1 5.3s-6.2-2.3-7.1-5.3h-9.2c-.9 3.1-3.7 5.3-7.1 5.3s-6.2-2.3-7.1-5.3h-9.2c-.9 3.1-3.7 5.3-7.1 5.3-3.4 0-6.2-2.3-7.1-5.3h-9.2c-.9 3.1-3.7 5.3-7.1 5.3s-6.2-2.3-7.1-5.3h-9.2c-.9 3.1-3.7 5.3-7.1 5.3s-6.2-2.3-7.1-5.3h-9.2c-.9 3.1-3.7 5.3-7.1 5.3-3.4 0-6.2-2.3-7.1-5.3h-9.2c-.9 3.1-3.7 5.3-7.1 5.3s-6.2-2.3-7.1-5.3h-9.2c-.9 3.1-3.7 5.3-7 5.3s-6.2-2.3-7-5.3h-9.2c-.9 3.1-3.7 5.3-7 5.3-3.4 0-6.2-2.3-7-5.3h-9.2c-.9 3.1-3.7 5.3-7 5.3s-6.2-2.3-7-5.3h-9.3v414h8.4c.7-3.4 3.6-5.9 7.2-5.9s6.5 2.5 7.2 5.9h8.9c.7-3.4 3.6-5.9 7.2-5.9s6.5 2.5 7.2 5.9h8.9c.7-3.4 3.6-5.9 7.2-5.9s6.5 2.5 7.2 5.9h8.9c.7-3.4 3.6-5.9 7.2-5.9s6.5 2.5 7.2 5.9h8.9c.7-3.4 3.6-5.9 7.2-5.9s6.5 2.5 7.2 5.9h8.9c.7-3.4 3.6-5.9 7.2-5.9s6.5 2.5 7.2 5.9h8.9c.7-3.4 3.6-5.9 7.2-5.9s6.5 2.5 7.2 5.9h8.9c.7-3.4 3.6-5.9 7.2-5.9s6.5 2.5 7.2 5.9h8.9c.7-3.4 3.6-5.9 7.2-5.9s6.5 2.5 7.2 5.9h8.9c.7-3.4 3.6-5.9 7.2-5.9s6.5 2.5 7.2 5.9h8.9c.7-3.4 3.6-5.9 7.2-5.9s6.5 2.5 7.2 5.9h8.9c.7-3.4 3.6-5.9 7.2-5.9s6.5 2.5 7.2 5.9h8.9c.7-3.4 3.6-5.9 7.2-5.9s6.5 2.5 7.2 5.9h8.9c.7-3.4 3.6-5.9 7.2-5.9s6.5 2.5 7.2 5.9h8.9c.7-3.4 3.6-5.9 7.2-5.9s6.5 2.5 7.2 5.9h8.9c.7-3.4 3.6-5.9 7.2-5.9s6.5 2.5 7.2 5.9h8.9c.7-3.4 3.6-5.9 7.2-5.9s6.5 2.5 7.2 5.9h8.9c.7-3.4 3.6-5.9 7.2-5.9s6.5 2.5 7.2 5.9h8.9c.7-3.4 3.6-5.9 7.2-5.9s6.5 2.5 7.2 5.9h8.9c.7-3.4 3.6-5.9 7.2-5.9s6.5 2.5 7.2 5.9h8.9c.7-3.4 3.6-5.9 7.2-5.9s6.5 2.5 7.2 5.9h8.9c.7-3.4 3.6-5.9 7.2-5.9s6.5 2.5 7.2 5.9h8.9c.7-3.4 3.6-5.9 7.2-5.9s6.5 2.5 7.2 5.9h8.9c.7-3.4 3.6-5.9 7.2-5.9s6.5 2.5 7.2 5.9h8.9c.7-3.4 3.6-5.9 7.2-5.9s6.5 2.5 7.2 5.9h8.9c.7-3.4 3.6-5.9 7.2-5.9s6.5 2.5 7.2 5.9h8.9c.7-3.4 3.6-5.9 7.2-5.9s6.5 2.5 7.2 5.9h8.9c.7-3.4 3.6-5.9 7.2-5.9s6.5 2.5 7.2 5.9h8.9c.7-3.4 3.6-5.9 7.2-5.9s6.5 2.5 7.2 5.9h8.9c.7-3.4 3.6-5.9 7.2-5.9s6.5 2.5 7.2 5.9h8.9c.7-3.4 3.6-5.9 7.2-5.9s6.5 2.5 7.2 5.9h9.2v-414h-9.5"/><path d="M690.9 94c-.9 3.1-3.7 5.3-7 5.3s-6.2-2.3-7-5.3h-9.2c-.9 3.1-3.7 5.3-7 5.3s-6.2-2.3-7-5.3h-9.2c-.9 3.1-3.7 5.3-7.1 5.3-3.4 0-6.2-2.3-7-5.3h-9.2c-.9 3.1-3.7 5.3-7 5.3s-6.2-2.3-7-5.3h-9.2c-.9 3.1-3.7 5.3-7 5.3s-6.2-2.3-7-5.3h-9.2c-.9 3.1-3.7 5.3-7.1 5.3-3.4 0-6.2-2.3-7-5.3h-9.2c-.9 3.1-3.7 5.3-7 5.3s-6.2-2.3-7-5.3h-9.2c-.9 3.1-3.7 5.3-7 5.3s-6.2-2.3-7-5.3h-9.2c-.9 3.1-3.7 5.3-7.1 5.3-3.4 0-6.2-2.3-7-5.3h-9.2c-.9 3.1-3.7 5.3-7 5.3s-6.2-2.3-7-5.3h-9.2c-.9 3.1-3.7 5.3-7 5.3s-6.2-2.3-7-5.3h-9.2c-.9 3.1-3.7 5.3-7.1 5.3-3.4 0-6.2-2.3-7-5.3h-9.2c-.9 3.1-3.7 5.3-7 5.3s-6.2-2.3-7-5.3h-9.2c-.9 3.1-3.7 5.3-7 5.3s-6.2-2.3-7-5.3h-9.2c-.9 3.1-3.7 5.3-7 5.3-3.4 0-6.2-2.3-7.1-5.3h-9.2c-.9 3.1-3.7 5.3-7 5.3s-6.2-2.3-7-5.3h-9.2c-.9 3.1-3.7 5.3-7 5.3s-6.2-2.3-7-5.3h-9.2c-.9 3.1-3.7 5.3-7.1 5.3-3.4 0-6.2-2.3-7-5.3h-9.2c-.9 3.1-3.7 5.3-7 5.3s-6.2-2.3-7-5.3h-9.2c-.9 3.1-3.7 5.3-7 5.3s-6.2-2.3-7-5.3h-9.2c-.9 3.1-3.7 5.3-7.1 5.3-3.4 0-6.2-2.3-7.1-5.3h-9.2c-.9 3.1-3.7 5.3-7.1 5.3s-6.2-2.3-7.1-5.3h-9.2c-.9 3.1-3.7 5.3-7.1 5.3s-6.2-2.3-7.1-5.3h-9.2c-.9 3.1-3.7 5.3-7.1 5.3-3.4 0-6.2-2.3-7.1-5.3h-9.2c-.9 3.1-3.7 5.3-7.1 5.3s-6.2-2.3-7.1-5.3h-9.2c-.9 3.1-3.7 5.3-7.1 5.3s-6.2-2.3-7.1-5.3h-9.2c-.9 3.1-3.7 5.3-7.1 5.3-3.4 0-6.2-2.3-7.1-5.3h-9.2c-.9 3.1-3.7 5.3-7.1 5.3s-6.2-2.3-7.1-5.3h-9.2c-.9 3.1-3.7 5.3-7 5.3s-6.2-2.3-7-5.3h-9.2c-.9 3.1-3.7 5.3-7 5.3-3.4 0-6.2-2.3-7-5.3h-9.2c-.9 3.1-3.7 5.3-7 5.3s-6.2-2.3-7-5.3h-9.3v414h8.4c.7-3.4 3.6-5.9 7.2-5.9s6.5 2.5 7.2 5.9h8.9c.7-3.4 3.6-5.9 7.2-5.9s6.5 2.5 7.2 5.9h8.9c.7-3.4 3.6-5.9 7.2-5.9s6.5 2.5 7.2 5.9h8.9c.7-3.4 3.6-5.9 7.2-5.9s6.5 2.5 7.2 5.9h8.9c.7-3.4 3.6-5.9 7.2-5.9s6.5 2.5 7.2 5.9h8.9c.7-3.4 3.6-5.9 7.2-5.9s6.5 2.5 7.2 5.9h8.9c.7-3.4 3.6-5.9 7.2-5.9s6.5 2.5 7.2 5.9h8.9c.7-3.4 3.6-5.9 7.2-5.9s6.5 2.5 7.2 5.9h8.9c.7-3.4 3.6-5.9 7.2-5.9s6.5 2.5 7.2 5.9h8.9c.7-3.4 3.6-5.9 7.2-5.9s6.5 2.5 7.2 5.9h8.9c.7-3.4 3.6-5.9 7.2-5.9s6.5 2.5 7.2 5.9h8.9c.7-3.4 3.6-5.9 7.2-5.9s6.5 2.5 7.2 5.9h8.9c.7-3.4 3.6-5.9 7.2-5.9s6.5 2.5 7.2 5.9h8.9c.7-3.4 3.6-5.9 7.2-5.9s6.5 2.5 7.2 5.9h8.9c.7-3.4 3.6-5.9 7.2-5.9s6.5 2.5 7.2 5.9h8.9c.7-3.4 3.6-5.9 7.2-5.9s6.5 2.5 7.2 5.9h8.9c.7-3.4 3.6-5.9 7.2-5.9s6.5 2.5 7.2 5.9h8.9c.7-3.4 3.6-5.9 7.2-5.9s6.5 2.5 7.2 5.9h8.9c.7-3.4 3.6-5.9 7.2-5.9s6.5 2.5 7.2 5.9h8.9c.7-3.4 3.6-5.9 7.2-5.9s6.5 2.5 7.2 5.9h8.9c.7-3.4 3.6-5.9 7.2-5.9s6.5 2.5 7.2 5.9h8.9c.7-3.4 3.6-5.9 7.2-5.9s6.5 2.5 7.2 5.9h8.9c.7-3.4 3.6-5.9 7.2-5.9s6.5 2.5 7.2 5.9h8.9c.7-3.4 3.6-5.9 7.2-5.9s6.5 2.5 7.2 5.9h8.9c.7-3.4 3.6-5.9 7.2-5.9s6.5 2.5 7.2 5.9h8.9c.7-3.4 3.6-5.9 7.2-5.9s6.5 2.5 7.2 5.9h8.9c.7-3.4 3.6-5.9 7.2-5.9s6.5 2.5 7.2 5.9h8.9c.7-3.4 3.6-5.9 7.2-5.9s6.5 2.5 7.2 5.9h8.9c.7-3.4 3.6-5.9 7.2-5.9s6.5 2.5 7.2 5.9h8.9c.7-3.4 3.6-5.9 7.2-5.9s6.5 2.5 7.2 5.9h8.9c.7-3.4 3.6-5.9 7.2-5.9s6.5 2.5 7.2 5.9h9.2v-414h-9.5" fill="none"/><path d="M690.9 94c-.9 3.1-3.7 5.3-7 5.3s-6.2-2.3-7-5.3h-9.2c-.9 3.1-3.7 5.3-7 5.3s-6.2-2.3-7-5.3h-9.2c-.9 3.1-3.7 5.3-7.1 5.3-3.4 0-6.2-2.3-7-5.3h-9.2c-.9 3.1-3.7 5.3-7 5.3s-6.2-2.3-7-5.3h-9.2c-.9 3.1-3.7 5.3-7 5.3s-6.2-2.3-7-5.3h-9.2c-.9 3.1-3.7 5.3-7.1 5.3-3.4 0-6.2-2.3-7-5.3h-9.2c-.9 3.1-3.7 5.3-7 5.3s-6.2-2.3-7-5.3h-9.2c-.9 3.1-3.7 5.3-7 5.3s-6.2-2.3-7-5.3h-9.2c-.9 3.1-3.7 5.3-7.1 5.3-3.4 0-6.2-2.3-7-5.3h-9.2c-.9 3.1-3.7 5.3-7 5.3s-6.2-2.3-7-5.3h-9.2c-.9 3.1-3.7 5.3-7 5.3s-6.2-2.3-7-5.3h-9.2c-.9 3.1-3.7 5.3-7.1 5.3-3.4 0-6.2-2.3-7-5.3h-9.2c-.9 3.1-3.7 5.3-7 5.3s-6.2-2.3-7-5.3h-9.2c-.9 3.1-3.7 5.3-7 5.3s-6.2-2.3-7-5.3h-9.2c-.9 3.1-3.7 5.3-7 5.3-3.4 0-6.2-2.3-7.1-5.3h-9.2c-.9 3.1-3.7 5.3-7 5.3s-6.2-2.3-7-5.3h-9.2c-.9 3.1-3.7 5.3-7 5.3s-6.2-2.3-7-5.3h-9.2c-.9 3.1-3.7 5.3-7.1 5.3-3.4 0-6.2-2.3-7-5.3h-9.2c-.9 3.1-3.7 5.3-7 5.3s-6.2-2.3-7-5.3h-9.2c-.9 3.1-3.7 5.3-7 5.3s-6.2-2.3-7-5.3h-9.2c-.9 3.1-3.7 5.3-7.1 5.3-3.4 0-6.2-2.3-7.1-5.3h-9.2c-.9 3.1-3.7 5.3-7.1 5.3s-6.2-2.3-7.1-5.3h-9.2c-.9 3.1-3.7 5.3-7.1 5.3s-6.2-2.3-7.1-5.3h-9.2c-.9 3.1-3.7 5.3-7.1 5.3-3.4 0-6.2-2.3-7.1-5.3h-9.2c-.9 3.1-3.7 5.3-7.1 5.3s-6.2-2.3-7.1-5.3h-9.2c-.9 3.1-3.7 5.3-7.1 5.3s-6.2-2.3-7.1-5.3h-9.2c-.9 3.1-3.7 5.3-7.1 5.3-3.4 0-6.2-2.3-7.1-5.3h-9.2c-.9 3.1-3.7 5.3-7.1 5.3s-6.2-2.3-7.1-5.3h-9.2c-.9 3.1-3.7 5.3-7 5.3s-6.2-2.3-7-5.3h-9.2c-.9 3.1-3.7 5.3-7 5.3-3.4 0-6.2-2.3-7-5.3h-9.2c-.9 3.1-3.7 5.3-7 5.3s-6.2-2.3-7-5.3h-9.3v414h8.4c.7-3.4 3.6-5.9 7.2-5.9s6.5 2.5 7.2 5.9h8.9c.7-3.4 3.6-5.9 7.2-5.9s6.5 2.5 7.2 5.9h8.9c.7-3.4 3.6-5.9 7.2-5.9s6.5 2.5 7.2 5.9h8.9c.7-3.4 3.6-5.9 7.2-5.9s6.5 2.5 7.2 5.9h8.9c.7-3.4 3.6-5.9 7.2-5.9s6.5 2.5 7.2 5.9h8.9c.7-3.4 3.6-5.9 7.2-5.9s6.5 2.5 7.2 5.9h8.9c.7-3.4 3.6-5.9 7.2-5.9s6.5 2.5 7.2 5.9h8.9c.7-3.4 3.6-5.9 7.2-5.9s6.5 2.5 7.2 5.9h8.9c.7-3.4 3.6-5.9 7.2-5.9s6.5 2.5 7.2 5.9h8.9c.7-3.4 3.6-5.9 7.2-5.9s6.5 2.5 7.2 5.9h8.9c.7-3.4 3.6-5.9 7.2-5.9s6.5 2.5 7.2 5.9h8.9c.7-3.4 3.6-5.9 7.2-5.9s6.5 2.5 7.2 5.9h8.9c.7-3.4 3.6-5.9 7.2-5.9s6.5 2.5 7.2 5.9h8.9c.7-3.4 3.6-5.9 7.2-5.9s6.5 2.5 7.2 5.9h8.9c.7-3.4 3.6-5.9 7.2-5.9s6.5 2.5 7.2 5.9h8.9c.7-3.4 3.6-5.9 7.2-5.9s6.5 2.5 7.2 5.9h8.9c.7-3.4 3.6-5.9 7.2-5.9s6.5 2.5 7.2 5.9h8.9c.7-3.4 3.6-5.9 7.2-5.9s6.5 2.5 7.2 5.9h8.9c.7-3.4 3.6-5.9 7.2-5.9s6.5 2.5 7.2 5.9h8.9c.7-3.4 3.6-5.9 7.2-5.9s6.5 2.5 7.2 5.9h8.9c.7-3.4 3.6-5.9 7.2-5.9s6.5 2.5 7.2 5.9h8.9c.7-3.4 3.6-5.9 7.2-5.9s6.5 2.5 7.2 5.9h8.9c.7-3.4 3.6-5.9 7.2-5.9s6.5 2.5 7.2 5.9h8.9c.7-3.4 3.6-5.9 7.2-5.9s6.5 2.5 7.2 5.9h8.9c.7-3.4 3.6-5.9 7.2-5.9s6.5 2.5 7.2 5.9h8.9c.7-3.4 3.6-5.9 7.2-5.9s6.5 2.5 7.2 5.9h8.9c.7-3.4 3.6-5.9 7.2-5.9s6.5 2.5 7.2 5.9h8.9c.7-3.4 3.6-5.9 7.2-5.9s6.5 2.5 7.2 5.9h8.9c.7-3.4 3.6-5.9 7.2-5.9s6.5 2.5 7.2 5.9h8.9c.7-3.4 3.6-5.9 7.2-5.9s6.5 2.5 7.2 5.9h8.9c.7-3.4 3.6-5.9 7.2-5.9s6.5 2.5 7.2 5.9h9.2v-414h-9.5" fill="none"/><path fill="#fff" d="M667.3 204.7c-1.5 0-2.7-1.2-2.7-2.7 0-1.5 1.2-2.7 2.7-2.7v-4.8c-1.5 0-2.7-1.2-2.7-2.7 0-1.5 1.2-2.7 2.7-2.7v-4.8c-1.5 0-2.7-1.2-2.7-2.7 0-1.5 1.2-2.7 2.7-2.7v-4.8c-1.5 0-2.7-1.2-2.7-2.7s1.2-2.7 2.7-2.7v-4.7c-1.5 0-2.7-1.2-2.7-2.7 0-1.5 1.2-2.7 2.7-2.7v-4.8c-1.5 0-2.7-1.2-2.7-2.7 0-1.5 1.2-2.7 2.7-2.7v-4.8c-1.5 0-2.7-1.2-2.7-2.7s1.2-2.7 2.7-2.7v-4.2h-3.2c0 1.5-1.2 2.7-2.7 2.7-1.5 0-2.7-1.2-2.7-2.7h-4.7c0 1.5-1.2 2.7-2.7 2.7-1.5 0-2.7-1.2-2.7-2.7h-4.8c0 1.5-1.2 2.7-2.7 2.7s-2.7-1.2-2.7-2.7h-4.8c0 1.5-1.2 2.7-2.7 2.7-1.5 0-2.7-1.2-2.7-2.7h-4.8c0 1.5-1.2 2.7-2.7 2.7-1.5 0-2.7-1.2-2.7-2.7h-4.8c0 1.5-1.2 2.7-2.7 2.7s-2.7-1.2-2.7-2.7h-4.8c0 1.5-1.2 2.7-2.7 2.7-1.5 0-2.7-1.2-2.7-2.7h-4c0 1.5-1.2 2.7-2.7 2.7s-2.7-1.2-2.7-2.7h-4.8c0 1.5-1.2 2.7-2.7 2.7-1.5 0-2.7-1.2-2.7-2.7h-4.8c0 1.5-1.2 2.7-2.7 2.7-1.5 0-2.7-1.2-2.7-2.7h-3.8v4.3c1.5 0 2.7 1.2 2.7 2.7s-1.2 2.7-2.7 2.7v4.8c1.5 0 2.7 1.2 2.7 2.7 0 1.5-1.2 2.7-2.7 2.7v4.8c1.5 0 2.7 1.2 2.7 2.7 0 1.5-1.2 2.7-2.7 2.7v4.8c1.5 0 2.7 1.2 2.7 2.7s-1.2 2.7-2.7 2.7v4.8c1.5 0 2.7 1.2 2.7 2.7 0 1.5-1.2 2.7-2.7 2.7v4.8c1.5 0 2.7 1.2 2.7 2.7 0 1.5-1.2 2.7-2.7 2.7v4.8c1.5 0 2.7 1.2 2.7 2.7 0 1.5-1.2 2.7-2.7 2.7v6h4.2c0-1.5 1.2-2.7 2.7-2.7 1.5 0 2.7 1.2 2.7 2.7h4.8c0-1.5 1.2-2.7 2.7-2.7 1.5 0 2.7 1.2 2.7 2.7h4.8c0-1.5 1.2-2.7 2.7-2.7s2.7 1.2 2.7 2.7h4c0-1.5 1.2-2.7 2.7-2.7 1.5 0 2.7 1.2 2.7 2.7h4.8c0-1.5 1.2-2.7 2.7-2.7s2.7 1.2 2.7 2.7h4.8c0-1.5 1.2-2.7 2.7-2.7 1.5 0 2.7 1.2 2.7 2.7h4.8c0-1.5 1.2-2.7 2.7-2.7 1.5 0 2.7 1.2 2.7 2.7h4.8c0-1.5 1.2-2.7 2.7-2.7s2.7 1.2 2.7 2.7h4.8c0-1.5 1.2-2.7 2.7-2.7 1.5 0 2.7 1.2 2.7 2.7h4.8c0-1.5 1.2-2.7 2.7-2.7 1.5 0 2.7 1.2 2.7 2.7h3.2v-6.2"/><path fill="#C2E0E9" d="M571 141h90v63h-90v-63z"/><path fill="#E43A2C" d="M594 154.9c0-2.7 2.2-4.9 4.9-4.9h1.1c2.1 0 3.6 1.1 4.5 2.6l11.9 19.4 12-19.4c1-1.7 2.4-2.5 4.4-2.5h1.1c2.7 0 4.9 2.2 4.9 4.9v35.9c0 2.4-1.6 4.5-4 5-3.1.6-5.8-1.9-5.8-4.8v-22.8l-8.6 13.3c-1 1.5-2.3 2.5-4.1 2.5-1.8 0-3.1-1-4.1-2.5l-8.5-13.1v22.5c0 2.7-2.2 5.1-5 5-2.6-.1-4.7-2.1-4.7-4.8v-36.3z"/><linearGradient id="a" gradientUnits="userSpaceOnUse" x1="636.488" y1="672.315" x2="630.956" y2="657.114" gradientTransform="translate(0 -498.8)"><stop offset="0" stop-opacity="0"/><stop offset="1"/></linearGradient><path opacity=".4" fill="url(#a)" enable-background="new" d="M629.1 168l7.1-11.3c.7-1.2 2.6-.6 2.6.7v14.6c0 .3-.2.5-.4.6l-8.5 3.3c-.4.2-.9-.2-.9-.6v-6.9c0-.2 0-.3.1-.4z"/><linearGradient id="b" gradientUnits="userSpaceOnUse" x1="611.711" y1="665.119" x2="601.191" y2="661.29" gradientTransform="translate(0 -498.8)"><stop offset="0" stop-opacity="0"/><stop offset="1"/></linearGradient><path opacity=".4" fill="url(#b)" enable-background="new" d="M603.7 168v-12c0-1.3 1.8-1.9 2.5-.7l5.6 9.1c.2.3.2.6.1.9l-2.8 8.2c-.3.9-1.4 1-1.9.2l-3.4-5.1c-.1-.2-.1-.3-.1-.6z"/><g opacity=".3"><path stroke="#1A1918" stroke-width="2" d="M622.3 192.4l-30.3-6.8c-15 .5-14.5 8.4-29.7 8.9s-14.5-7.3-30.1-6.8c-15.6.5-15 8.4-30 8.9m119.8-13.3l-30.3-6.8c-15 .5-14.5 8.4-29.7 8.9s-14.5-7.3-30.1-6.8c-15.6.5-15 8.4-30 8.9m119.8-13.3l-30.3-6.8c-15 .5-14.5 8.4-29.7 8.9s-14.5-7.3-30.1-6.8c-15.6.5-15 8.4-30 8.9m119.7-13.3l-30.3-6.8c-15 .5-14.5 8.4-29.7 8.9s-14.5-7.3-30.1-6.8c-15.6.5-15 8.4-30 8.9m119.8-13.2l-30.3-6.8c-15 .5-14.5 8.4-29.7 8.9s-14.5-7.3-30.1-6.8c-15.6.5-15 8.4-30 8.9" fill="none"/><path fill="#1A1918" d="M457.6 212.8c-20.3.7-37.4-15.2-38.1-35.4-.7-20.2 15.2-37.3 35.5-38 20.3-.7 37.4 15.2 38.1 35.4.7 20.3-15.2 37.3-35.5 38zm-2.6-72.2c-19.6.7-35 17.2-34.3 36.7.7 19.6 17.2 34.9 36.8 34.2 19.6-.7 35-17.2 34.3-36.7s-17.2-34.9-36.8-34.2zM457.1 200.9c-13.7.5-25.2-10.3-25.7-23.9s10.3-25.2 24-25.7 25.2 10.3 25.7 23.9c.5 13.7-10.3 25.2-24 25.7zm-1.7-48.4c-13 .5-23.2 11.4-22.8 24.4.5 13 11.4 23.2 24.4 22.7 13-.5 23.2-11.4 22.8-24.4s-11.3-23.1-24.4-22.7zM425 177.3v1c0 .3-.2.5-.5.5s-.5-.2-.5-.5l-.1-3c0-.3.2-.5.5-.5s.5.2.5.5v1l3.3-.1c.3 0 .5.2.5.5s-.2.5-.5.5l-3.2.1M424.5 174c-.3 0-.5-.3-.5-.6s.3-.5.6-.4l1.4.2.2-1.9-1.4-.2c-.3 0-.5-.3-.5-.6s.3-.5.6-.4l3.7.5c.3 0 .5.3.5.6s-.3.5-.6.4l-1.4-.2-.2 1.9 1.4.2c.3 0 .5.3.5.6s-.3.5-.6.4l-3.7-.5M428.8 170l-3.5-1c-.3-.1-.4-.4-.4-.6l.7-2.5c.1-.2.3-.4.6-.3.2.1.4.3.3.6l-.6 2 .9.3.5-1.7c.1-.2.3-.4.6-.3s.4.3.3.6l-.5 1.7 1 .3.6-2.1c.1-.2.3-.4.6-.3.2.1.4.3.3.6l-.7 2.5c-.1.1-.4.3-.7.2M427.2 163c-.3-.1-.3-.4-.2-.7l.1-.1c.1-.2.3-.3.5-.3l2.4-.1-1.2-2.1c-.1-.2-.1-.3 0-.5l.1-.1c.1-.3.5-.3.7-.2l3.3 1.8c.3.1.3.5.2.7-.1.2-.5.3-.7.2l-2.1-1.1.8 1.5c.1.2.1.3 0 .5s-.2.2-.4.3l-1.6.1 2.1 1.1c.2.1.3.4.2.7-.1.2-.4.3-.7.2l-3.5-1.9"/><path fill="#1A1918" d="M432.8 160.3l-1.9-3.6c-.1-.2-.1-.5.1-.7.2-.2.4-.3.7-.2l3.9 1 .2.1c.2.2.3.5.1.7-.2.2-.4.2-.6.2l-.8-.2-1.3 1.6.4.7c.1.2.1.4 0 .6-.2.2-.5.2-.7.1 0-.2-.1-.2-.1-.3zm.8-3.1l-1.6-.5.8 1.5.8-1zM433.5 153.9c-.2-.2-.2-.5 0-.7l1.2-1.1c.4-.4.9-.6 1.3-.6s.7.2 1 .5c.5.5.5 1.1.3 1.7l1.1.2c.2 0 .3.1.4.2.2.2.1.5 0 .7-.2.2-.4.2-.6.1l-1.6-.3-.6.6.7.8c.2.2.2.5 0 .7s-.5.2-.7 0l-2.5-2.8zm2.8-.1c.4-.3.4-.7.1-1-.3-.3-.7-.3-1.1 0l-.8.7.9 1 .9-.7zM437.2 150.7c-.2-.2-.1-.6.1-.7.2-.2.6-.1.7.1l.9 1.3.5-2.6c0-.2.1-.3.3-.4.2-.2.5-.1.7.1.1.1.1.3.1.4l-.4 1.8 2.2.7c.1 0 .2.1.3.2.2.2.1.5-.2.7-.2.1-.3.1-.5 0l-2.1-.7-.2.8.5.8c.2.2.1.6-.1.7-.2.2-.6.1-.7-.1l-2.1-3.1M442.8 151.5l-1.6-3.3c-.1-.3 0-.6.2-.7l2.4-1.1c.2-.1.5 0 .6.2.1.2 0 .5-.2.6l-1.9.9.4.9 1.6-.8c.2-.1.5 0 .6.2.1.2 0 .5-.2.6l-1.6.8.4.9 1.9-.9c.2-.1.5 0 .6.2.1.2 0 .5-.2.6l-2.4 1.1c-.2.1-.5 0-.6-.2M446.5 146.4l-1 .3c-.3.1-.5-.1-.6-.3-.1-.3.1-.5.3-.6l2.9-.9c.3-.1.5.1.6.3.1.3-.1.5-.3.6l-1 .3 1 3.1c.1.3-.1.6-.3.6-.3.1-.6-.1-.6-.3l-1-3.1"/><path fill="#1A1918" d="M451.2 144.8c0-.3.2-.5.5-.6l1.4-.2c1.1-.1 1.9.5 2 1.4.1 1.1-.7 1.7-1.7 1.9l-.8.1.1.9c0 .3-.2.5-.5.6-.3 0-.5-.2-.6-.5l-.4-3.6zm2 1.6c.5-.1.8-.4.7-.8 0-.5-.4-.7-.9-.6l-.8.1.2 1.4.8-.1zM455.4 146.2c.1-1.4 1.2-2.4 2.6-2.3 1.5.1 2.4 1.2 2.4 2.6-.1 1.3-1.2 2.4-2.6 2.3-1.5-.2-2.5-1.3-2.4-2.6zm3.9.2c0-.8-.5-1.5-1.4-1.6-.8 0-1.5.6-1.5 1.4 0 .8.5 1.5 1.4 1.6.9 0 1.5-.6 1.5-1.4zM460.5 148.4c-.1-.1-.1-.3-.1-.4.1-.3.3-.4.6-.4.1 0 .2.1.3.2.3.3.6.6 1.1.7.4.1.7 0 .8-.3.1-.3-.1-.4-.8-.8-.9-.4-1.4-.8-1.2-1.7.2-.8 1-1.2 1.9-1 .6.1 1 .4 1.4.7.1.1.2.3.1.5-.1.3-.3.4-.6.4-.1 0-.2-.1-.2-.1-.3-.3-.6-.5-.9-.5-.4-.1-.6.1-.7.3-.1.3.1.4.9.8.9.4 1.3.9 1.2 1.7-.2.9-1 1.3-2 1.1-.8-.4-1.3-.7-1.8-1.2M466.3 146.5l-.9-.3c-.2-.1-.4-.4-.3-.6.1-.2.4-.4.6-.3l2.9 1c.2.1.4.4.3.6-.1.2-.4.4-.6.3l-.9-.3-1.1 3.1c-.1.3-.4.4-.7.3-.3-.1-.4-.4-.3-.7l1-3.1"/><path fill="#1A1918" d="M467.2 150l3.2-2.5c.2-.2.5-.2.7-.1h.1c.3.1.4.4.3.6l-.2 4.1v.2c-.1.2-.4.3-.7.2-.2-.1-.3-.3-.3-.5l.1-.8-1.8-1-.6.5c-.2.1-.4.2-.6.1-.2-.1-.3-.4-.2-.7v-.1zm3.2.2l.1-1.7-1.3 1.1 1.2.6zM473.6 149.4c.2-.2.5-.3.7-.1.2.2.3.5.1.7l-1.9 2.7 1.6 1.1c.2.2.3.4.1.7-.2.2-.4.3-.7.1l-2-1.4c-.2-.2-.3-.5-.1-.7l2.2-3.1M475.4 155.5c0-.1 0-.3.1-.4.2-.2.5-.2.7 0 .1.1.1.2.1.3.1.4.2.8.5 1.2.3.3.6.4.8.2.2-.2.2-.4-.2-1.1-.5-.9-.7-1.5 0-2.1.6-.6 1.5-.5 2.2.2.4.4.6.9.7 1.4 0 .1 0 .3-.1.4-.2.2-.5.2-.7 0-.1-.1-.1-.2-.1-.2-.1-.4-.2-.7-.5-.9-.3-.3-.6-.3-.7-.2-.2.2-.2.4.3 1.2.5.9.6 1.5 0 2.1-.7.6-1.6.5-2.3-.2-.4-.6-.7-1.2-.8-1.9M478.1 158.3l3-2.2c.2-.2.6-.1.7.1l1.5 2.1c.2.2.1.5-.1.7-.2.1-.5.1-.6-.1l-1.2-1.7-.8.6 1.1 1.5c.2.2.1.5-.1.7-.2.2-.5.1-.6-.1l-1.1-1.5-.8.6 1.3 1.7c.2.2.1.5-.1.7-.2.1-.5.1-.6-.1l-1.6-2.1c-.3-.4-.3-.7 0-.9"/><path fill="#1A1918" d="M483.6 159.9c.3-.1.6 0 .7.2l.8 1.5c.3.5.3 1 .2 1.4-.1.4-.4.7-.8.9-.7.3-1.2.2-1.7-.2l-.4 1c-.1.1-.1.3-.3.3-.3.1-.5 0-.7-.2-.1-.2-.1-.4 0-.6l.7-1.5-.4-.7-.9.5c-.3.1-.6 0-.7-.2s0-.6.2-.7l3.3-1.7zm-.6 2.6c.2.4.6.6 1 .4.4-.2.5-.6.2-1l-.5-.9-1.2.6.5.9zM482.5 166.6l3-2.6c.1-.1.1-.1.2-.1.3-.1.6.1.7.3.1.3 0 .5-.2.6l-2.5 2.1 3.3.1c.2 0 .4.1.5.4.1.3 0 .6-.3.6h-.2l-4-.3c-.3 0-.5-.2-.6-.4v-.1c-.2-.2-.1-.4.1-.6M487.2 168.8c.3-.1.6.1.6.4.1.3-.1.6-.4.6l-3.7.8c-.3.1-.6-.1-.6-.4-.1-.3.1-.6.4-.6l3.7-.8M485.8 170.8c1.3-.1 2.6.7 2.7 2.2.1.7-.1 1.2-.3 1.6-.1.1-.2.2-.4.2-.3 0-.5-.2-.6-.5 0-.1 0-.2.1-.3.2-.3.3-.6.2-1-.1-.8-.8-1.3-1.6-1.2-.8.1-1.4.7-1.3 1.5 0 .4.2.7.5 1 .1.1.1.2.1.3 0 .3-.2.5-.4.5s-.3 0-.4-.1c-.4-.4-.7-.9-.8-1.6-.1-1.3.8-2.5 2.2-2.6M484.4 175.6l3.7.2c.3 0 .5.3.5.5l-.1 2.6c0 .3-.2.5-.5.4-.3 0-.5-.2-.4-.5l.1-2.1h-1l-.1 1.8c0 .3-.2.5-.5.4-.3 0-.5-.2-.4-.5l.1-1.8h-1l-.1 2.1c0 .3-.2.5-.5.4-.3 0-.5-.2-.4-.5l.1-2.6c0-.2.2-.4.5-.4"/><path fill="#1A1918" d="M478.9 198.4c.2.2.2.5 0 .7l-1 .9c-.8.8-1.8.7-2.4 0-.7-.8-.5-1.8.3-2.5l.6-.5-.6-.7c-.2-.2-.2-.5 0-.7.2-.2.5-.2.7 0l2.4 2.8zm-2.7-.1c-.4.3-.4.8-.1 1.1.3.3.7.3 1.1 0l.6-.5-1-1.1-.6.5zM474.6 199.8c.7 1.1.4 2.6-.8 3.4s-2.7.5-3.4-.7c-.7-1.1-.4-2.6.8-3.4 1.2-.8 2.7-.5 3.4.7zm-3.3 2.1c.4.7 1.3.9 2 .5.7-.5.8-1.3.4-2s-1.3-.9-2-.5c-.7.5-.8 1.3-.4 2zM469.2 201c.1 0 .3.1.3.3.1.2 0 .5-.2.6-.1.1-.2.1-.3 0-.4-.1-.9-.1-1.3.1s-.6.4-.4.7c.1.2.3.3 1.1.2 1-.2 1.6-.2 2 .7.3.8-.1 1.6-.9 2-.5.2-1 .3-1.5.2-.1 0-.3-.1-.4-.3-.1-.2 0-.5.2-.6.1 0 .2-.1.3 0 .4 0 .7 0 1-.1.4-.2.5-.4.4-.6-.1-.3-.4-.3-1.2-.2-1 .2-1.6.1-1.9-.7-.4-.9.1-1.6 1-2 .5-.4 1.2-.4 1.8-.3M465.6 205.9l1-.3c.3-.1.5.1.6.3.1.3-.1.5-.3.6l-2.9.9c-.3.1-.5-.1-.6-.3-.1-.3.1-.5.3-.6l1-.3-.9-3.1c-.1-.3.1-.6.4-.6.3-.1.6.1.6.4l.8 3"/><path fill="#1A1918" d="M462.8 203.6l-1.1 3.9c-.1.3-.3.5-.5.5h-.1c-.3 0-.5-.1-.7-.3l-2.2-3.4-.1-.2c0-.3.1-.5.4-.6.2 0 .4.1.5.3l.4.7 2.1-.3.2-.8c.1-.2.2-.4.4-.4.3 0 .5.1.5.4l.2.2zm-2.7 1.7l.9 1.4.4-1.6-1.3.2zM458.4 205.9c0 1.4-1.1 2.4-2.5 2.4-.7 0-1.2-.2-1.6-.5-.1-.1-.2-.2-.2-.4 0-.3.2-.5.5-.5l.3.1c.3.2.6.3 1 .3.8 0 1.4-.7 1.4-1.5 0-.9-.6-1.5-1.4-1.5-.4 0-.7.1-1 .3v.7h.7c.2 0 .5.2.4.4 0 .2-.2.5-.5.4h-1.2c-.3 0-.5-.2-.5-.5v-1.1c0-.3.1-.5.4-.7.4-.2.9-.5 1.7-.5 1.5.2 2.5 1.2 2.5 2.6M453.4 204l-.6 3.6c0 .3-.3.5-.6.4l-2.6-.4c-.3 0-.4-.3-.4-.5 0-.3.3-.4.5-.4l2.1.3.2-.9-1.8-.3c-.3 0-.4-.3-.4-.5 0-.3.3-.4.5-.4l1.8.3.2-1-2.1-.3c-.3 0-.4-.3-.4-.5 0-.3.3-.4.5-.4l2.6.4c.4.1.6.3.5.6"/><path fill="#1A1918" d="M446.8 206.4c-.1.3-.4.4-.7.3l-1.3-.5c-1.1-.4-1.5-1.3-1.1-2.2.4-1 1.4-1.3 2.4-.9l.7.3.3-.9c.1-.3.4-.4.7-.3.3.1.4.4.3.7l-1.3 3.5zm-1.1-2.4c-.5-.2-.9 0-1 .4-.2.4.1.8.5 1l.8.3.5-1.4-.8-.3zM444.8 201.9l-3.2 2.5c-.2.2-.5.2-.7.1h-.1c-.2-.1-.4-.4-.3-.6l.3-4 .1-.2c.1-.2.4-.3.7-.2.2.1.3.3.3.6l-.1.8 1.8 1 .7-.5c.2-.1.4-.2.6-.1.2.1.3.4.2.7-.2-.2-.2-.1-.3-.1zm-3.2-.2l-.2 1.7 1.3-1.1-1.1-.6zM438.5 202.4c-.2.2-.5.3-.7.1-.2-.2-.3-.5-.1-.7l2.2-3.1c.2-.2.5-.3.7-.1.2.2.3.5.1.7l-2.2 3.1"/><path fill="#1A1918" d="M436.7 201.2c-.2.2-.5.2-.7 0l-1-.9c-1.1-1-1.2-2.4-.3-3.4.9-1 2.3-1.1 3.4-.1l1 .9c.2.2.2.5 0 .7l-2.4 2.8zm.8-3.7c-.6-.6-1.4-.5-2 .1-.6.6-.5 1.4.1 2l.6.5 1.9-2.1-.6-.5zM444.4 167.3c0-1.4 1.1-2.6 2.5-2.6h.6c1.1 0 1.9.5 2.4 1.2l6.5 9.8 5.8-10.2c.5-.9 1.2-1.3 2.2-1.4h.6c1.4 0 2.6 1 2.6 2.4l.6 18.3c0 1.2-.8 2.4-2 2.6-1.6.4-3-.8-3.1-2.4l-.4-11.5-4.2 7c-.5.8-1.1 1.3-2.1 1.4-.9 0-1.6-.4-2.2-1.2l-4.6-6.6.4 11.4c0 1.4-1.1 2.7-2.5 2.7s-2.4-1-2.5-2.4l-.6-18.5"/></g><path fill="#EB392D" d="M283.5 186c0-1.1.9-2 2-2h72.6l25.4 25.7v96.3c0 1.1-.9 2-2 2h-96c-1.1 0-2-.9-2-2v-120z"/><path d="M283.5 186c0-1.1.9-2 2-2h72.6l25.4 25.7v96.3c0 1.1-.9 2-2 2h-96c-1.1 0-2-.9-2-2v-120z" fill="none"/><path fill="#CA2012" d="M357.5 185c0-1.1.6-1.4 1.4-.6l24.2 24.2c.8.8.5 1.4-.6 1.4h-23c-1.1 0-2-.9-2-2v-23z"/><g stroke="#FAF887" stroke-width="4" stroke-linecap="round" stroke-linejoin="round" fill="none"><path d="M334 265v-38M349 249l-14.9 16-15.1-16"/></g></g></svg>