<svg xmlns="http://www.w3.org/2000/svg" width="822" height="143.4" viewBox="0 0 822 143.4"><g fill="#e43a2c"><path d="M0 15.4c0-8.5 6.9-15.4 15.4-15.4h3.4c6.6 0 11.2 3.4 14 8l37.2 60.6 37.4-60.8c3.2-5.2 7.6-7.8 13.8-7.8h3.4c8.5 0 15.4 6.9 15.4 15.4v112.2c0 7.5-5.1 14.1-12.5 15.5-9.7 1.9-18.1-5.8-18.1-15.1v-71.2l-27 41.6c-3.2 4.8-7.2 7.8-12.8 7.8-5.6 0-9.6-3-12.8-7.8l-26.6-41v70.4c0 8.6-7 15.9-15.6 15.6-8.2-.2-14.6-6.7-14.6-15v-113zM159.2 122.4l48.8-110.2c3.4-7.6 9.6-12.2 18-12.2h1.8c8.4 0 14.4 4.6 17.8 12.2l48.8 110.2c1 2.2 1.6 4.2 1.6 6.2 0 8.2-6.4 14.8-14.6 14.8-7.2 0-12-4.2-14.8-10.6l-9.4-22h-61.6l-9.8 23c-2.6 6-7.8 9.6-14.2 9.6-8 0-14.2-6.4-14.2-14.4 0-2.2.8-4.4 1.8-6.6zm86.6-38.8l-19.4-46.2-19.4 46.2h38.8zM313.6 15.4c0-8.6 6.8-15.4 15.4-15.4h48.6c17.8 0 31.6 5 40.8 14.2 7.8 7.8 12 19.8 12 33v.4c0 22-11 34.6-28 41.6l23.1 28.2c3 3.8 5 7 5 11.8 0 8.6-7.2 14.2-14.6 14.2-7 0-11.6-3.4-15.2-8l-31.7-40.2h-24.6v32.8c0 8.6-6.8 15.4-15.4 15.4-8.6 0-15.4-6.8-15.4-15.4v-112.6zm62 52.6c15 0 23.6-8 23.6-19.8v-.4c0-13.2-9.2-20-24.2-20h-30.6v40.2h31.2zM451.6 15.4c0-8.6 6.8-15.4 15.4-15.4 8.6 0 15.4 6.8 15.4 15.4v48l57.8-57.4c3.8-3.8 7.6-6 13-6 8.6 0 14.2 6.6 14.2 14.2 0 4.8-2.2 8.4-5.6 11.6l-40.4 37.8 43 54c2.4 3 4.2 6.2 4.2 10.8 0 8.6-6.6 15-15.6 15-6 0-9.6-3-13-7.4l-40-52.4-17.6 16.4v28c0 8.6-6.8 15.4-15.4 15.4-8.6 0-15.4-6.8-15.4-15.4v-112.6zM587.4 128v-112.6c0-8.6 6.8-15.4 15.4-15.4h77.6c7.6 0 13.8 6.2 13.8 13.8 0 7.6-6.2 13.6-13.8 13.6h-62.4v28.4h53.4c7.6 0 13.8 6.2 13.8 13.8 0 7.6-6.2 13.6-13.8 13.6h-53.4v32.8h63.4c7.6 0 13.8 6.2 13.8 13.8s-6.2 13.6-13.8 13.6h-78.6c-8.6 0-15.4-6.8-15.4-15.4zM747.4 28.4h-29.6c-7.8 0-14.2-6.4-14.2-14.2s6.4-14.2 14.2-14.2h90c7.8 0 14.2 6.4 14.2 14.2s-6.4 14.2-14.2 14.2h-29.6v99.6c0 8.6-6.8 15.4-15.4 15.4s-15.4-6.8-15.4-15.4v-99.6z"/><linearGradient id="a" gradientUnits="userSpaceOnUse" x1="762.793" y1="55.969" x2="762.793" y2="28.4"><stop offset="0" stop-opacity="0"/><stop offset="1"/></linearGradient><path opacity=".4" fill="url(#a)" d="M747.4 28.4h30.8v27.6h-30.8z"/></g><linearGradient id="b" gradientUnits="userSpaceOnUse" x1="499.995" y1="72.96" x2="482.396" y2="72.96"><stop offset="0" stop-opacity="0"/><stop offset="1"/></linearGradient><path opacity=".4" fill="url(#b)" d="M482.4 63.4v36.6l17.6-16.4v-37.7z"/><linearGradient id="c" gradientUnits="userSpaceOnUse" x1="399.629" y1="118.645" x2="388.511" y2="88.097"><stop offset="0" stop-opacity="0"/><stop offset="1"/></linearGradient><path opacity=".4" fill="url(#c)" d="M369 95.2s19.8-.6 33.4-6l15.4 18.8-27.6 14.1-21.2-26.9z"/><linearGradient id="d" gradientUnits="userSpaceOnUse" x1="226.698" y1="97.198" x2="195.599" y2="97.198"><stop offset="0" stop-opacity="0"/><stop offset="1"/></linearGradient><path opacity=".4" fill="url(#d)" d="M195.6 110.8l11.4-27.2h19.7v27.2z"/><linearGradient id="e" gradientUnits="userSpaceOnUse" x1="251.191" y1="44.492" x2="227.316" y2="24.458"><stop offset="0" stop-opacity="0"/><stop offset="1"/></linearGradient><path opacity=".4" fill="url(#e)" d="M226.7 36.7l10.9-24.3c1.5-3.4 6.3-3.4 7.9 0l3 6.5 7.7 17.4c.3.6.2 1.4-.3 2l-17.4 21.1c-.9 1.1-2.6.8-3.2-.5l-8.7-20.8c-.1-.4-.1-1 .1-1.4z"/><linearGradient id="f" gradientUnits="userSpaceOnUse" x1="132.888" y1="73.579" x2="115.579" y2="26.024"><stop offset="0" stop-opacity="0"/><stop offset="1"/></linearGradient><path opacity=".4" fill="url(#f)" d="M109.7 56.3l22.3-35.3c2.3-3.7 8-2 8 2.3v45.5c0 .8-.5 1.6-1.3 1.9l-26.5 10.3c-1.3.5-2.8-.5-2.8-1.9v-21.7c0-.4.1-.8.3-1.1z"/><linearGradient id="g" gradientUnits="userSpaceOnUse" x1="55.39" y1="51.063" x2="22.5" y2="39.092"><stop offset="0" stop-opacity="0"/><stop offset="1"/></linearGradient><path opacity=".4" fill="url(#g)" d="M30.2 56.4v-37.7c0-4.2 5.5-5.8 7.8-2.2l17.6 28.6c.5.8.6 1.9.3 2.8l-8.7 25.7c-.9 2.7-4.5 3.1-6 .7l-10.5-16.1c-.3-.5-.5-1.1-.5-1.8z"/><linearGradient id="h" gradientUnits="userSpaceOnUse" x1="602.693" y1="55.799" x2="602.693" y2="27.4"><stop offset="0" stop-opacity="0"/><stop offset="1"/></linearGradient><path opacity=".4" fill="url(#h)" d="M617.8 27.4h-16.3c-7.8 0-14.1 6.3-14.1 14.1v14.1c0 .1.1.2.2.2h30.2c.1 0 .2-.1.2-.2v-28c0-.1-.1-.2-.2-.2z"/></svg>