<svg xmlns="http://www.w3.org/2000/svg" width="1090.1" height="143.4" viewBox="533 -59.4 1090.1 143.4" enable-background="new 533 -59.4 1090.1 143.4"><path fill="#E43A2C" d="M797-44c0-8.5 6.9-15.4 15.4-15.4h3.4c6.6 0 11.2 3.4 14 8l37.2 60.6 37.4-60.8c3.2-5.2 7.6-7.8 13.8-7.8h3.4c8.5 0 15.4 6.9 15.4 15.4v112.2c0 7.5-5.1 14.1-12.5 15.5-9.7 1.9-18.1-5.8-18.1-15.1v-71.2l-27 41.6c-3.2 4.8-7.2 7.8-12.8 7.8s-9.6-3-12.8-7.8l-26.6-41v70.3c0 8.6-7 15.9-15.6 15.6-8.2-.2-14.6-6.7-14.6-15v-112.9zm159.2 107l48.8-110.2c3.4-7.6 9.6-12.2 18-12.2h1.8c8.4 0 14.4 4.6 17.8 12.2l48.8 110.2c1 2.2 1.6 4.2 1.6 6.2 0 8.2-6.4 14.8-14.6 14.8-7.2 0-12-4.2-14.8-10.6l-9.4-22h-61.6l-9.8 23c-2.6 6-7.8 9.6-14.2 9.6-8 0-14.2-6.4-14.2-14.4 0-2.2.8-4.4 1.8-6.6zm86.6-38.8l-19.4-46.2-19.4 46.2h38.8zm67.8-68.2c0-8.6 6.8-15.4 15.4-15.4h48.6c17.8 0 31.6 5 40.8 14.2 7.8 7.8 12 18.8 12 32v.4c0 22-11 35.6-28 42.6l23.1 28.2c3 3.8 5 7 5 11.8 0 8.6-7.2 14.2-14.6 14.2-7 0-11.6-3.4-15.2-8l-31.7-40.2h-24.6v32.8c0 8.6-6.8 15.4-15.4 15.4s-15.4-6.8-15.4-15.4v-112.6zm62 52.6c15 0 23.6-8 23.6-19.8v-.4c0-13.2-9.2-20-24.2-20h-30.6v40.2h31.2zm76-51.6c0-8.6 6.8-15.4 15.4-15.4s15.4 6.8 15.4 15.4v47l56.8-56.4c3.8-3.8 7.6-6 13-6 8.6 0 14.2 6.6 14.2 14.2 0 4.8-2.2 8.4-5.6 11.6l-39.4 36.8 43 54c2.4 3 4.2 6.2 4.2 10.8 0 8.6-6.6 15-15.6 15-6 0-9.6-3-13-7.4l-40-52.4-17.6 16.4v28c0 8.6-6.8 15.4-15.4 15.4s-15.4-6.8-15.4-15.4v-111.6zm135.8 111.6v-112.6c0-8.6 6.8-15.4 15.4-15.4h77.6c7.6 0 13.8 6.2 13.8 13.8s-6.2 13.6-13.8 13.6h-62.4v28.4h53.4c7.6 0 13.8 6.2 13.8 13.8s-6.2 13.6-13.8 13.6h-53.4v32.8h63.4c7.6 0 13.8 6.2 13.8 13.8s-6.2 13.6-13.8 13.6h-78.6c-8.6 0-15.4-6.8-15.4-15.4zm160-99.6h-29.6c-7.8 0-14.2-6.4-14.2-14.2s6.4-14.2 14.2-14.2h90c7.8 0 14.2 6.4 14.2 14.2s-6.4 14.2-14.2 14.2h-29.6v99.6c0 8.6-6.8 15.4-15.4 15.4s-15.4-6.8-15.4-15.4v-99.6z"/><linearGradient id="a" gradientUnits="userSpaceOnUse" x1="1559.792" y1="29.831" x2="1559.792" y2="57.4" gradientTransform="matrix(1 0 0 -1 0 26.4)"><stop offset="0" stop-opacity="0"/><stop offset="1"/></linearGradient><path opacity=".4" fill="url(#a)" enable-background="new" d="M1544.4-31h30.8v27.6h-30.8v-27.6z"/><linearGradient id="b" gradientUnits="userSpaceOnUse" x1="1296.963" y1="12.85" x2="1279.363" y2="12.85" gradientTransform="matrix(1 0 0 -1 0 26.4)"><stop offset="0" stop-opacity="0"/><stop offset="1"/></linearGradient><path opacity=".4" fill="url(#b)" enable-background="new" d="M1279.4 4v36.6l17.6-16.4v-37.7l-17.6 17.5z"/><linearGradient id="c" gradientUnits="userSpaceOnUse" x1="1196.606" y1="-32.874" x2="1185.481" y2="-2.307" gradientTransform="matrix(1 0 0 -1 0 26.4)"><stop offset="0" stop-opacity="0"/><stop offset="1"/></linearGradient><path opacity=".4" fill="url(#c)" enable-background="new" d="M1166 35.8s19.8-.6 33.4-6l15.4 18.8-27.6 14.1-21.2-26.9z"/><linearGradient id="d" gradientUnits="userSpaceOnUse" x1="1023.692" y1="-11.4" x2="992.592" y2="-11.4" gradientTransform="matrix(1 0 0 -1 0 26.4)"><stop offset="0" stop-opacity="0"/><stop offset="1"/></linearGradient><path opacity=".4" fill="url(#d)" enable-background="new" d="M992.6 51.4l11.4-27.2h19.7v27.2h-31.1z"/><linearGradient id="e" gradientUnits="userSpaceOnUse" x1="1048.136" y1="41.281" x2="1024.261" y2="61.315" gradientTransform="matrix(1 0 0 -1 0 26.4)"><stop offset="0" stop-opacity="0"/><stop offset="1"/></linearGradient><path opacity=".4" fill="url(#e)" enable-background="new" d="M1023.7-22.7l10.9-24.3c1.5-3.4 6.3-3.4 7.9 0l3 6.5 7.7 17.4c.3.6.2 1.4-.3 2l-17.4 21.1c-.9 1.1-2.6.8-3.2-.5l-8.7-20.8c-.1-.4-.1-1 .1-1.4z"/><linearGradient id="f" gradientUnits="userSpaceOnUse" x1="929.92" y1="12.224" x2="912.611" y2="59.779" gradientTransform="matrix(1 0 0 -1 0 26.4)"><stop offset="0" stop-opacity="0"/><stop offset="1"/></linearGradient><path opacity=".4" fill="url(#f)" enable-background="new" d="M906.7-3.1l22.3-35.3c2.3-3.7 8-2 8 2.3v45.5c0 .8-.5 1.6-1.3 1.9l-26.5 10.3c-1.3.5-2.8-.5-2.8-1.9v-21.7c0-.4.1-.8.3-1.1z"/><linearGradient id="g" gradientUnits="userSpaceOnUse" x1="852.4" y1="34.747" x2="819.49" y2="46.725" gradientTransform="matrix(1 0 0 -1 0 26.4)"><stop offset="0" stop-opacity="0"/><stop offset="1"/></linearGradient><path opacity=".4" fill="url(#g)" enable-background="new" d="M827.2-3v-37.7c0-4.2 5.5-5.8 7.8-2.2l17.6 28.6c.5.8.6 1.9.3 2.8l-8.7 25.7c-.9 2.7-4.5 3.1-6 .7l-10.5-16.1c-.3-.5-.5-1.1-.5-1.8z"/><linearGradient id="h" gradientUnits="userSpaceOnUse" x1="1399.692" y1="30" x2="1399.692" y2="58.4" gradientTransform="matrix(1 0 0 -1 0 26.4)"><stop offset="0" stop-opacity="0"/><stop offset="1"/></linearGradient><path opacity=".4" fill="url(#h)" enable-background="new" d="M1414.8-32h-16.3c-7.8 0-14.1 6.3-14.1 14.1v14.1c0 .1.1.2.2.2h30.2c.1 0 .2-.1.2-.2v-28c0-.1-.1-.2-.2-.2z"/><path fill="#2D2D2D" d="M542.4 66.7c-.5 1.6-1.6 1.7-3 .7-2.5-1.9-4.5-7.3-2.7-15.7 1.4-5.8 4.4-14.5 8.2-23.7-1-19.4-1.4-43.7.5-59 .3-2.6 1.7-2.8 3.2-2 4 2.1 6.7 6.5 6.8 18 .1 8.9-.4 19.3-.2 31.2 13.8-17.3 34.6-40.7 46.4-52.6 1.6-1.5 2.8-1.1 3.4.6 1.6 4.5.5 11.6-8.2 21.4-10.7 11.8-23.5 24.8-41.6 47.3-5.8 12.3-10.1 24.1-12.8 33.8zm136.2-8.3c-10.3.7-14.7-5.4-14.1-14.6-5 7.7-12.5 16.6-21.6 16.5-11.3-.2-12.4-11.7-9.7-22.4 1-4.1 2.7-9 5.1-14.1-4.3 2.4-9.1 4-14.1 3.8-2.8 13.6-11.3 30-22.3 34.5-5.7 2.3-13.9 2.2-20.6-5.6-7.6-8.9-6.2-22.7-.1-35.8 5.3-11.4 14.5-20.9 24-22.2 4.7-.6 7.5.6 11.2 4.6 4.1 4.5 8.6 5.1 8.7 16.9.1 1 0 1.9-.1 3.2 9-.8 17.2-8.8 22-17.9 1.4-2.6 3.7-6.3 5.4-9.1 1.1-1.8 2.6-1.8 4-.4 3.8 5 3.5 11.7-1.5 21.5-5.1 9.7-8.3 16.3-10.8 24-2.6 8-1.8 13.5 1.7 13.6 6.2 0 14.3-11.3 21.8-25.7 8.7-16.7 12.6-28 17-35.1 1.3-2.2 2.5-2.6 3.9-1.2 2.6 2.7 4.3 9.4 1.1 17.6-3 7.4-10 19.5-13 28-3.5 9.5-2.4 15.9 3.3 15.2 6.5-.8 14-11.8 19.3-23.3.7-1.5 2-1.7 2.8-.4.9 1.4 1.2 5.5-.7 9.9-4.3 9.3-13.4 17.9-22.7 18.5zm-76.2-47.9c-3.9 3.8-8.3 9.5-11.3 15.9-5.8 12.4-7.1 26.9-2.7 30.3s13.8-3 20.7-18c2.2-4.8 3.5-9.2 4.7-13.2-5.6-2.7-10.9-8.5-11.4-15zm7.8-.2c-.2 4.3 1.4 8.2 4.4 10.5 1-4.7.8-8.7.3-11.3-.9-5.1-4.5-3.7-4.7.8zm126.4-16.2c1.8-1.4 3.1-1.8 4.3-.6 3.2 3.1 7.5 9.8 3.3 15.4-6.6 8.6-13.7 19.1-15.6 27.5-2 8.4.4 14.5 5 14.3 6.2-.1 13.1-10.5 17.4-22.2.5-1.3 1.5-1.5 2.2-.3.9 1.7 1.3 5.5-.1 9.9-3 9.4-11.7 16.7-20.2 17-11.4.3-16.8-9.8-13.6-22 2.8-10.7 11.2-22.6 17-30.3-6.7 5.1-13.4 7-18.1 7.3-5.3 11.5-18.9 35.1-20.9 49.7-.2 1.4-1.1 2.3-2.6 1-4.9-4.4-5.4-11.7-1.7-20.1 3.2-7.2 12.8-22.9 18-31.7-9.4-5.2 3.1-24.9 8.9-25.5 4.9-.5 4.3 8.8 1 19 4.9-1 10.1-3.9 15.7-8.4z"/></svg>