<svg xmlns="http://www.w3.org/2000/svg" xmlns:xlink="http://www.w3.org/1999/xlink" preserveAspectRatio="xMidYMid" width="170" height="170" viewBox="0 0 170 170">
  <defs>
    <style>
      .cls-1 {
        fill: #3ecb63;
        fill-rule: evenodd;
      }
    </style>
  </defs>
  <path d="M85.000,170.000 C38.056,170.000 0.000,131.944 0.000,85.000 C0.000,38.056 38.056,0.000 85.000,0.000 C131.944,0.000 170.000,38.056 170.000,85.000 C170.000,131.944 131.944,170.000 85.000,170.000 ZM85.000,2.000 C39.161,2.000 2.000,39.160 2.000,85.000 C2.000,130.840 39.161,168.000 85.000,168.000 C130.840,168.000 168.000,130.840 168.000,85.000 C168.000,39.160 130.840,2.000 85.000,2.000 ZM85.500,135.000 C58.162,135.000 36.000,112.838 36.000,85.500 C36.000,58.162 58.162,36.000 85.500,36.000 C112.838,36.000 135.000,58.162 135.000,85.500 C135.000,112.838 112.838,135.000 85.500,135.000 ZM85.500,48.375 C64.997,48.375 48.375,64.996 48.375,85.500 C48.375,106.004 64.997,122.626 85.500,122.626 C106.004,122.626 122.625,106.004 122.625,85.500 C122.625,64.996 106.004,48.375 85.500,48.375 ZM85.500,110.250 C82.083,110.250 79.313,107.480 79.313,104.063 C79.313,100.646 82.083,97.875 85.500,97.875 C88.917,97.875 91.688,100.646 91.688,104.063 C91.688,107.480 88.917,110.250 85.500,110.250 ZM85.500,91.687 C82.083,91.687 79.313,88.918 79.313,85.500 L79.313,66.938 C79.313,63.521 82.083,60.751 85.500,60.751 C88.917,60.751 91.688,63.521 91.688,66.938 L91.688,85.500 C91.688,88.918 88.917,91.687 85.500,91.687 Z" class="cls-1"/>
</svg>
