<svg xmlns="http://www.w3.org/2000/svg" xmlns:xlink="http://www.w3.org/1999/xlink" preserveAspectRatio="xMidYMid" width="170" height="170" viewBox="0 0 170 170">
  <defs>
    <style>
      .cls-1 {
        fill: #fdc449;
        fill-rule: evenodd;
      }
    </style>
  </defs>
  <path d="M85.000,170.000 C38.056,170.000 0.000,131.944 0.000,85.000 C0.000,38.056 38.056,0.000 85.000,0.000 C131.944,0.000 170.000,38.056 170.000,85.000 C170.000,131.944 131.944,170.000 85.000,170.000 ZM85.000,2.000 C39.160,2.000 2.000,39.161 2.000,85.000 C2.000,130.840 39.160,168.000 85.000,168.000 C130.840,168.000 168.000,130.840 168.000,85.000 C168.000,39.161 130.840,2.000 85.000,2.000 ZM118.928,121.001 L51.071,121.001 C48.823,121.001 47.000,119.178 47.000,116.929 L47.000,55.171 C47.000,52.923 48.823,51.005 51.071,51.005 L60.999,51.005 L60.999,54.326 C60.999,58.009 63.686,60.993 66.999,60.993 C70.313,60.993 73.000,58.009 73.000,54.326 L73.000,51.005 L97.000,51.005 L97.000,54.326 C97.000,58.009 99.686,60.993 103.000,60.993 C106.313,60.993 109.000,58.009 109.000,54.326 L109.000,51.005 L118.928,51.005 C121.177,51.005 123.000,52.923 123.000,55.171 L123.000,116.929 C123.000,119.178 121.177,121.001 118.928,121.001 ZM118.991,67.009 L51.008,67.009 L51.008,116.992 L118.991,116.992 L118.991,67.009 ZM61.010,77.021 L55.009,77.021 L55.009,71.020 L61.010,71.020 L61.010,77.021 ZM61.010,86.022 L55.009,86.022 L55.009,80.021 L61.010,80.021 L61.010,86.022 ZM61.010,95.022 L55.009,95.022 L55.009,89.022 L61.010,89.022 L61.010,95.022 ZM61.010,104.023 L55.009,104.023 L55.009,98.023 L61.010,98.023 L61.010,104.023 ZM61.010,113.024 L55.009,113.024 L55.009,107.023 L61.010,107.023 L61.010,113.024 ZM70.010,77.021 L64.009,77.021 L64.009,71.020 L70.010,71.020 L70.010,77.021 ZM70.010,86.022 L64.009,86.022 L64.009,80.021 L70.010,80.021 L70.010,86.022 ZM70.010,95.022 L64.009,95.022 L64.009,89.022 L70.010,89.022 L70.010,95.022 ZM70.010,104.023 L64.009,104.023 L64.009,98.023 L70.010,98.023 L70.010,104.023 ZM70.010,113.024 L64.009,113.024 L64.009,107.023 L70.010,107.023 L70.010,113.024 ZM79.010,77.021 L73.009,77.021 L73.009,71.020 L79.010,71.020 L79.010,77.021 ZM79.010,86.022 L73.009,86.022 L73.009,80.021 L79.010,80.021 L79.010,86.022 ZM79.010,95.022 L73.009,95.022 L73.009,89.022 L79.010,89.022 L79.010,95.022 ZM79.010,104.023 L73.009,104.023 L73.009,98.023 L79.010,98.023 L79.010,104.023 ZM79.010,113.024 L73.009,113.024 L73.009,107.023 L79.010,107.023 L79.010,113.024 ZM88.010,77.021 L82.009,77.021 L82.009,71.020 L88.010,71.020 L88.010,77.021 ZM88.010,86.022 L82.009,86.022 L82.009,80.021 L88.010,80.021 L88.010,86.022 ZM88.010,95.022 L82.009,95.022 L82.009,89.022 L88.010,89.022 L88.010,95.022 ZM88.010,104.023 L82.009,104.023 L82.009,98.023 L88.010,98.023 L88.010,104.023 ZM97.010,77.021 L91.009,77.021 L91.009,71.020 L97.010,71.020 L97.010,77.021 ZM97.010,86.022 L91.009,86.022 L91.009,80.021 L97.010,80.021 L97.010,86.022 ZM97.010,95.022 L91.009,95.022 L91.009,89.022 L97.010,89.022 L97.010,95.022 ZM97.010,104.023 L91.009,104.023 L91.009,98.023 L97.010,98.023 L97.010,104.023 ZM106.010,77.021 L100.009,77.021 L100.009,71.020 L106.010,71.020 L106.010,77.021 ZM105.000,71.995 L101.000,71.995 L101.000,75.996 L105.000,75.996 L105.000,71.995 ZM106.010,86.022 L100.009,86.022 L100.009,80.021 L106.010,80.021 L106.010,86.022 ZM105.000,80.996 L101.000,80.996 L101.000,84.997 L105.000,84.997 L105.000,80.996 ZM106.010,95.022 L100.009,95.022 L100.009,89.022 L106.010,89.022 L106.010,95.022 ZM105.000,89.997 L101.000,89.997 L101.000,93.997 L105.000,93.997 L105.000,89.997 ZM106.010,104.023 L100.009,104.023 L100.009,98.023 L106.010,98.023 L106.010,104.023 ZM105.000,98.999 L101.000,98.999 L101.000,103.000 L105.000,103.000 L105.000,98.999 ZM115.010,77.021 L109.009,77.021 L109.009,71.020 L115.010,71.020 L115.010,77.021 ZM114.000,71.995 L110.000,71.995 L110.000,75.996 L114.000,75.996 L114.000,71.995 ZM115.010,86.022 L109.009,86.022 L109.009,80.021 L115.010,80.021 L115.010,86.022 ZM114.000,80.996 L110.000,80.996 L110.000,84.997 L114.000,84.997 L114.000,80.996 ZM115.010,95.022 L109.009,95.022 L109.009,89.022 L115.010,89.022 L115.010,95.022 ZM114.000,89.997 L110.000,89.997 L110.000,93.997 L114.000,93.997 L114.000,89.997 ZM115.010,104.023 L109.009,104.023 L109.009,98.023 L115.010,98.023 L115.010,104.023 ZM114.000,98.999 L110.000,98.999 L110.000,103.000 L114.000,103.000 L114.000,98.999 ZM103.000,57.993 C101.343,57.993 100.000,56.651 100.000,54.992 L100.000,48.992 C100.000,47.335 101.343,45.991 103.000,45.991 C104.656,45.991 106.000,47.335 106.000,48.992 L106.000,54.992 C106.000,56.651 104.656,57.993 103.000,57.993 ZM66.999,57.993 C65.343,57.993 63.999,56.651 63.999,54.992 L63.999,48.992 C63.999,47.335 65.343,45.991 66.999,45.991 C68.656,45.991 70.000,47.335 70.000,48.992 L70.000,54.992 C70.000,56.651 68.656,57.993 66.999,57.993 Z" class="cls-1"/>
</svg>
