<svg xmlns="http://www.w3.org/2000/svg" xmlns:xlink="http://www.w3.org/1999/xlink" preserveAspectRatio="xMidYMid" width="170" height="170" viewBox="0 0 170 170">
  <defs>
    <style>
      .cls-1 {
        fill: #9ed068;
        fill-rule: evenodd;
      }
    </style>
  </defs>
  <path d="M85.000,170.000 C38.056,170.000 0.000,131.944 0.000,85.000 C0.000,38.056 38.056,0.000 85.000,0.000 C131.944,0.000 170.000,38.056 170.000,85.000 C170.000,131.944 131.944,170.000 85.000,170.000 ZM85.000,2.000 C39.160,2.000 2.000,39.161 2.000,85.000 C2.000,130.840 39.160,168.000 85.000,168.000 C130.840,168.000 168.000,130.840 168.000,85.000 C168.000,39.161 130.840,2.000 85.000,2.000 ZM58.000,39.000 L101.000,39.000 L101.000,59.000 L121.000,59.000 L121.000,123.000 L58.000,123.000 L58.000,39.000 ZM70.000,108.000 L106.000,108.000 L106.000,105.000 L70.000,105.000 L70.000,108.000 ZM70.000,99.000 L110.000,99.000 L110.000,96.000 L70.000,96.000 L70.000,99.000 ZM70.000,90.000 L106.000,90.000 L106.000,87.000 L70.000,87.000 L70.000,90.000 ZM70.000,81.000 L110.000,81.000 L110.000,78.000 L70.000,78.000 L70.000,81.000 ZM103.000,39.000 L121.000,57.000 L103.000,57.000 L103.000,39.000 ZM114.000,130.000 L51.000,130.000 L51.000,46.000 L56.000,46.000 L56.000,125.000 L114.000,125.000 L114.000,130.000 Z" class="cls-1"/>
</svg>
