<svg xmlns="http://www.w3.org/2000/svg" xmlns:xlink="http://www.w3.org/1999/xlink" preserveAspectRatio="xMidYMid" width="170" height="170" viewBox="0 0 170 170">
  <defs>
    <style>
      .cls-1 {
        fill: #d787d6;
        fill-rule: evenodd;
      }
    </style>
  </defs>
  <path d="M85.000,170.000 C38.056,170.000 0.000,131.944 0.000,85.000 C0.000,38.056 38.056,-0.000 85.000,-0.000 C131.944,-0.000 170.000,38.056 170.000,85.000 C170.000,131.944 131.944,170.000 85.000,170.000 ZM85.000,2.000 C39.160,2.000 2.000,39.161 2.000,85.000 C2.000,130.840 39.160,168.000 85.000,168.000 C130.840,168.000 168.000,130.840 168.000,85.000 C168.000,39.161 130.840,2.000 85.000,2.000 ZM126.000,98.000 C119.373,98.000 114.000,92.628 114.000,86.000 C114.000,79.373 119.373,74.000 126.000,74.000 C132.627,74.000 138.000,79.373 138.000,86.000 C138.000,92.628 132.627,98.000 126.000,98.000 ZM126.000,79.000 C122.134,79.000 119.000,82.134 119.000,86.000 C119.000,89.866 122.134,93.000 126.000,93.000 C129.866,93.000 133.000,89.866 133.000,86.000 C133.000,82.134 129.866,79.000 126.000,79.000 ZM86.000,98.000 C79.373,98.000 74.000,92.628 74.000,86.000 C74.000,79.373 79.373,74.000 86.000,74.000 C92.627,74.000 98.000,79.373 98.000,86.000 C98.000,92.628 92.627,98.000 86.000,98.000 ZM86.000,79.000 C82.134,79.000 79.000,82.134 79.000,86.000 C79.000,89.866 82.134,93.000 86.000,93.000 C89.866,93.000 93.000,89.866 93.000,86.000 C93.000,82.134 89.866,79.000 86.000,79.000 ZM46.000,98.000 C39.373,98.000 34.000,92.628 34.000,86.000 C34.000,79.373 39.373,74.000 46.000,74.000 C52.627,74.000 58.000,79.373 58.000,86.000 C58.000,92.628 52.627,98.000 46.000,98.000 ZM46.000,79.000 C42.134,79.000 39.000,82.134 39.000,86.000 C39.000,89.866 42.134,93.000 46.000,93.000 C49.866,93.000 53.000,89.866 53.000,86.000 C53.000,82.134 49.866,79.000 46.000,79.000 Z" class="cls-1"/>
</svg>
