<svg xmlns="http://www.w3.org/2000/svg" xmlns:xlink="http://www.w3.org/1999/xlink" preserveAspectRatio="xMidYMid" width="170" height="170" viewBox="0 0 170 170">
  <defs>
    <style>
      .cls-1 {
        fill: #df9845;
        fill-rule: evenodd;
      }
    </style>
  </defs>
  <path d="M85.000,170.000 C38.056,170.000 0.000,131.944 0.000,85.000 C0.000,38.056 38.056,-0.000 85.000,-0.000 C131.944,-0.000 170.000,38.056 170.000,85.000 C170.000,131.944 131.944,170.000 85.000,170.000 ZM85.000,2.000 C39.161,2.000 2.000,39.160 2.000,85.000 C2.000,130.840 39.161,168.000 85.000,168.000 C130.840,168.000 168.000,130.840 168.000,85.000 C168.000,39.160 130.840,2.000 85.000,2.000 ZM38.014,85.500 L85.500,38.015 L132.986,85.500 L85.500,132.986 L38.014,85.500 ZM85.500,50.988 L50.987,85.500 L85.500,120.013 L120.013,85.500 L85.500,50.988 ZM85.500,70.444 L100.557,85.500 L85.500,100.556 L70.444,85.500 L85.500,70.444 ZM91.677,85.500 L85.500,79.323 L79.323,85.500 L85.500,91.677 L91.677,85.500 Z" class="cls-1"/>
</svg>
