<svg xmlns="http://www.w3.org/2000/svg" xmlns:xlink="http://www.w3.org/1999/xlink" preserveAspectRatio="xMidYMid" width="170" height="170" viewBox="0 0 170 170">
  <defs>
    <style>
      .cls-1 {
        fill: #94c440;
        fill-rule: evenodd;
      }
    </style>
  </defs>
  <path d="M85.000,170.000 C38.056,170.000 0.000,131.944 0.000,85.000 C0.000,38.056 38.056,0.000 85.000,0.000 C131.944,0.000 170.000,38.056 170.000,85.000 C170.000,131.944 131.944,170.000 85.000,170.000 ZM85.000,2.000 C39.160,2.000 2.000,39.161 2.000,85.000 C2.000,130.840 39.160,168.000 85.000,168.000 C130.840,168.000 168.000,130.840 168.000,85.000 C168.000,39.161 130.840,2.000 85.000,2.000 ZM127.518,76.699 L113.518,87.843 C108.549,91.802 101.888,93.170 95.706,91.502 C93.902,91.014 92.214,90.264 90.643,89.329 L100.073,81.819 C102.567,82.048 105.029,81.371 107.027,79.781 L121.026,68.638 C125.232,65.286 125.896,59.130 122.509,54.926 L121.747,53.984 C120.426,52.342 118.658,51.188 116.631,50.640 C113.575,49.815 110.415,50.462 107.960,52.417 L93.966,63.562 C92.098,65.051 90.973,67.098 90.545,69.277 L80.899,76.956 C78.559,69.332 80.887,60.747 87.475,55.500 L101.469,44.355 C106.440,40.400 113.095,39.034 119.274,40.701 C123.446,41.828 127.087,44.203 129.792,47.568 L130.554,48.508 C137.527,57.165 136.165,69.812 127.518,76.699 ZM69.713,100.652 C68.424,100.304 67.296,99.568 66.455,98.524 C65.410,97.225 64.933,95.600 65.110,93.945 C65.288,92.294 66.099,90.817 67.396,89.788 L94.328,68.347 C95.865,67.121 97.930,66.697 99.844,67.214 C101.134,67.562 102.262,68.298 103.105,69.345 C104.150,70.642 104.630,72.264 104.451,73.916 C104.277,75.563 103.464,77.039 102.166,78.071 L75.233,99.517 C73.692,100.746 71.628,101.169 69.713,100.652 ZM62.975,88.235 L48.977,99.386 C46.937,101.006 45.662,103.325 45.381,105.917 C45.104,108.509 45.856,111.058 47.500,113.100 L48.255,114.036 C49.574,115.675 51.342,116.828 53.367,117.375 C56.422,118.199 59.582,117.554 62.037,115.599 L76.036,104.455 C78.078,102.830 79.267,100.540 79.584,98.136 L88.975,90.657 C91.528,98.378 89.236,107.175 82.527,112.517 L68.528,123.661 C63.557,127.616 56.901,128.983 50.723,127.315 C46.553,126.190 42.915,123.814 40.204,120.449 L39.450,119.512 C36.071,115.319 34.524,110.076 35.099,104.752 C35.671,99.425 38.294,94.654 42.487,91.321 L56.480,80.176 C61.450,76.217 68.109,74.848 74.293,76.517 C75.959,76.967 77.532,77.632 79.000,78.466 L69.389,86.119 C67.082,86.035 64.828,86.763 62.975,88.235 Z" class="cls-1"/>
</svg>
