<svg xmlns="http://www.w3.org/2000/svg" xmlns:xlink="http://www.w3.org/1999/xlink" preserveAspectRatio="xMidYMid" width="170" height="170" viewBox="0 0 170 170">
  <defs>
    <style>
      .cls-1 {
        fill: #6c6ce8;
        fill-rule: evenodd;
      }
    </style>
  </defs>
  <path d="M85.000,170.000 C38.056,170.000 0.000,131.944 0.000,85.000 C0.000,38.056 38.056,0.000 85.000,0.000 C131.944,0.000 170.000,38.056 170.000,85.000 C170.000,131.944 131.944,170.000 85.000,170.000 ZM85.000,2.000 C39.160,2.000 2.000,39.160 2.000,85.000 C2.000,130.840 39.160,168.000 85.000,168.000 C130.840,168.000 168.000,130.840 168.000,85.000 C168.000,39.160 130.840,2.000 85.000,2.000 ZM115.829,84.235 C115.279,83.558 114.644,82.100 108.448,78.309 C107.997,77.448 107.665,76.437 107.772,76.490 C107.950,76.579 107.728,75.221 107.728,75.221 C107.728,75.221 103.456,71.486 103.500,68.115 C103.545,64.745 103.500,60.775 103.500,60.775 C103.500,60.775 104.652,52.778 110.203,52.778 L114.502,54.255 C119.490,54.255 120.849,60.775 120.849,60.775 L120.849,68.608 C120.849,68.608 119.855,73.222 116.727,74.945 C116.727,74.945 116.505,76.301 116.683,76.214 C116.861,76.126 115.792,82.320 121.223,83.107 C126.653,83.896 129.689,87.194 130.713,88.158 C131.737,89.121 133.003,95.989 133.003,95.989 L117.966,95.853 C117.966,95.853 116.380,84.913 115.829,84.235 ZM91.279,68.084 C91.532,67.960 90.259,76.532 97.989,77.654 C105.718,78.775 111.449,83.471 112.907,84.842 C114.364,86.213 115.186,95.988 115.186,95.988 L55.422,95.988 C55.422,95.988 55.339,88.051 57.864,84.842 C59.321,83.471 65.720,78.775 73.449,77.654 C81.179,76.532 78.838,68.110 79.091,68.234 C79.345,68.358 79.028,66.428 79.028,66.428 C79.028,66.428 73.432,61.111 73.496,56.314 C73.559,51.516 73.496,48.371 73.496,48.371 C73.496,48.371 74.402,36.990 82.304,36.990 L88.422,39.091 C95.523,39.091 97.168,48.371 97.168,48.371 L97.168,57.015 C97.168,57.015 95.794,63.826 91.343,66.277 C91.343,66.277 91.026,68.208 91.279,68.084 ZM63.273,75.221 C63.273,75.221 63.050,76.579 63.228,76.490 C63.335,76.437 61.981,76.718 62.645,78.582 C56.449,82.375 54.608,84.380 54.057,85.057 C53.506,85.734 53.034,95.853 53.034,95.853 L37.997,95.989 C37.997,95.989 39.263,89.121 40.287,88.158 C41.310,87.194 44.347,83.896 49.777,83.107 C55.208,82.320 54.140,76.126 54.317,76.214 C54.496,76.301 54.273,74.945 54.273,74.945 C51.146,73.222 49.903,68.608 49.903,68.608 L49.903,60.775 C49.903,60.775 51.510,54.255 56.498,54.255 L60.797,52.778 C66.349,52.778 67.500,60.775 67.500,60.775 C67.500,60.775 67.455,64.745 67.500,68.115 C67.545,71.486 63.273,75.221 63.273,75.221 ZM71.385,105.010 L97.615,105.010 C100.030,105.010 101.987,106.969 101.987,109.384 L101.987,135.635 C101.987,138.051 100.030,140.010 97.615,140.010 L71.385,140.010 C68.971,140.010 67.013,138.051 67.013,135.635 L67.013,109.384 C67.013,106.969 68.971,105.010 71.385,105.010 ZM83.380,131.260 L87.389,127.219 L96.741,117.791 L92.733,113.751 L83.380,123.179 L78.036,117.791 L74.028,121.833 L83.380,131.260 Z" class="cls-1"/>
</svg>
