<svg xmlns="http://www.w3.org/2000/svg" xmlns:xlink="http://www.w3.org/1999/xlink" preserveAspectRatio="xMidYMid" width="170" height="170" viewBox="0 0 170 170">
  <defs>
    <style>
      .cls-1 {
        fill: #43b9d6;
        fill-rule: evenodd;
      }
    </style>
  </defs>
  <path d="M85.000,170.000 C38.056,170.000 0.000,131.944 0.000,85.000 C0.000,38.056 38.056,0.000 85.000,0.000 C131.944,0.000 170.000,38.056 170.000,85.000 C170.000,131.944 131.944,170.000 85.000,170.000 ZM85.000,2.000 C39.160,2.000 2.000,39.161 2.000,85.000 C2.000,130.840 39.160,168.000 85.000,168.000 C130.840,168.000 168.000,130.840 168.000,85.000 C168.000,39.161 130.840,2.000 85.000,2.000 ZM122.395,105.656 C121.734,104.830 120.973,103.050 113.538,98.424 C112.997,97.373 112.598,96.140 112.727,96.204 C112.940,96.312 112.673,94.655 112.673,94.655 C112.673,94.655 107.547,90.097 107.600,85.984 C107.654,81.871 107.600,77.027 107.600,77.027 C107.600,77.027 108.982,67.268 115.644,67.268 L120.802,69.069 C126.788,69.069 128.419,77.027 128.419,77.027 L128.419,86.585 C128.419,86.585 127.226,92.216 123.473,94.318 C123.473,94.318 123.206,95.974 123.419,95.867 C123.633,95.760 122.351,103.319 128.867,104.280 C135.384,105.242 139.027,109.267 140.256,110.444 C141.484,111.618 143.003,119.999 143.003,119.999 L124.959,119.834 C124.959,119.834 123.056,106.482 122.395,105.656 ZM92.935,85.946 C93.239,85.795 91.711,96.256 100.986,97.625 C110.262,98.992 117.139,104.723 118.888,106.396 C120.636,108.069 121.623,119.999 121.623,119.999 L49.907,119.999 C49.907,119.999 49.806,110.313 52.837,106.396 C54.586,104.723 62.265,98.992 71.539,97.625 C80.815,96.256 78.005,85.978 78.309,86.130 C78.614,86.281 78.233,83.926 78.233,83.926 C78.233,83.926 71.519,77.437 71.595,71.582 C71.671,65.727 71.595,61.890 71.595,61.890 C71.595,61.890 72.682,48.001 82.165,48.001 L89.507,50.565 C98.027,50.565 100.002,61.890 100.002,61.890 L100.002,72.438 C100.002,72.438 98.352,80.750 93.011,83.742 C93.011,83.742 92.631,86.098 92.935,85.946 ZM59.327,94.655 C59.327,94.655 59.060,96.312 59.274,96.204 C59.402,96.140 57.778,96.482 58.574,98.757 C51.139,103.386 48.929,105.832 48.268,106.658 C47.607,107.486 47.041,119.834 47.041,119.834 L28.997,119.999 C28.997,119.999 30.516,111.618 31.745,110.444 C32.973,109.267 36.616,105.242 43.133,104.280 C49.649,103.319 48.368,95.760 48.581,95.867 C48.795,95.974 48.528,94.318 48.528,94.318 C44.775,92.216 43.284,86.585 43.284,86.585 L43.284,77.027 C43.284,77.027 45.212,69.069 51.198,69.069 L56.356,67.268 C63.019,67.268 64.400,77.027 64.400,77.027 C64.400,77.027 64.346,81.871 64.400,85.984 C64.453,90.097 59.327,94.655 59.327,94.655 Z" class="cls-1"/>
</svg>
