<?xml version="1.0" standalone="no"?>
<!DOCTYPE svg PUBLIC "-//W3C//DTD SVG 1.1//EN" "http://www.w3.org/Graphics/SVG/1.1/DTD/svg11.dtd" >
<svg xmlns="http://www.w3.org/2000/svg">
<metadata>Generated by IcoMoon</metadata>
<defs>
<font id="Bankin-font" horiz-adv-x="1024">
<font-face units-per-em="1024" ascent="960" descent="-64" />
<missing-glyph horiz-adv-x="1024" />
<glyph unicode="&#x20;" d="" horiz-adv-x="512" />
<glyph unicode="&#xe600;" d="M327.491 300.128h114.073c66.404 0 119.704 56.929 119.704 126.539 0 69.53-53.333 126.539-119.704 126.539h-114.072v130.951c0 35.421 28.833 64.219 64.238 64.219h685.477c35.498 0 64.238-28.788 64.238-64.433v-514.554c0-35.551-28.845-64.433-64.238-64.433h-685.477c-35.531 0-64.238 28.705-64.238 64.339v130.834zM284.597 300.128v-130.833c0-59.324 47.912-107.233 107.133-107.233h685.477c59.096 0 107.133 48.1 107.133 107.328v514.554c0 59.32-47.93 107.328-107.133 107.328h-685.477c-59.085 0-107.133-47.992-107.133-107.115v-130.951h-64.341c-10.66 0-19.302-8.642-19.302-19.302v-214.473c0-10.659 8.642-19.302 19.302-19.302h64.341zM522.664 426.667c0-48.838-36.604-87.934-81.099-87.934l-202.007 2.145 2.145 173.724h199.863c44.452 0 81.099-39.172 81.099-87.934zM781.034 230.113h214.473c11.845 0 21.447 9.602 21.447 21.447s-9.602 21.447-21.447 21.447h-214.473c-11.845 0-21.447-9.602-21.447-21.447s9.602-21.447 21.447-21.447zM413.282 383.772c23.691 0 42.895 19.205 42.895 42.895s-19.205 42.895-42.895 42.895c-23.691 0-42.895-19.205-42.895-42.895s19.205-42.895 42.895-42.895v0z" horiz-adv-x="1385" />
<glyph unicode="&#xe601;" d="M3760 970.667c0 0 8.533-68.267 0-133.333-8.533-70.4-19.2-124.8-19.2-124.8 8.533-5.333 108.8-40.533 108.8-40.533s25.6 41.6 44.8 128c18.133 83.2 18.133 170.667 18.133 170.667h-152.533zM3697.067 129.067c-21.333 5.333-39.467 41.6-33.067 100.267 6.4 59.733 21.333 163.2 21.333 263.467s-80 130.133-158.933 122.667c-77.867-8.533-192-51.2-228.267-87.467l5.333 70.4h-152.533l-52.267-455.467c-92.8-39.467-115.2 3.2-115.2 55.467 0 53.333 39.467 413.867 39.467 413.867h-162.133c0 0-28.8-295.467-33.067-450.133-73.6-38.4-142.933-29.867-181.333 25.6 0 0 152.533 129.067 152.533 235.733 0 105.6-82.133 210.133-187.733 210.133s-252.8-117.333-252.8-117.333l49.067 454.4h-172.8l-88.533-834.133c-17.067-7.467-45.867-16-72.533-9.6-21.333 5.333-39.467 41.6-33.067 100.267 6.4 59.733 21.333 163.2 21.333 263.467s-80 130.133-158.933 122.667c-77.867-8.533-192-51.2-228.267-87.467l5.333 70.4h-152.533l-77.867-456.533c-29.867-10.667-89.6-24.533-89.6 23.467 0 65.067 65.067 428.8 65.067 428.8l-170.667 18.133v-29.867c0 0-80 41.6-152.533 41.6-91.733 0-213.333-16-284.8-182.4-14.933-34.133-28.8-75.733-38.4-119.467-40.533 105.6-156.8 167.467-156.8 167.467 67.2 61.867 99.2 146.133 99.2 232.533s-69.333 157.867-88.533 173.867c-19.2 16-88.533 71.467-203.733 75.733s-163.2-2.133-228.267-13.867c-64-11.733-201.6-48-201.6-48l51.2-157.867 107.733 24.533-74.667-798.933 168.533 1.067 3.2 32c145.067-69.333 249.6-70.4 348.8-38.4 73.6 24.533 142.933 84.267 173.867 176 1.067-5.333 3.2-10.667 5.333-16 35.2-93.867 129.067-164.267 211.2-164.267 135.467 0 179.2 88.533 179.2 88.533s24.533-88.533 187.733-88.533c33.067 0 58.667 6.4 77.867 16h171.733c60.8 428.8 154.667 428.8 206.933 434.133 58.667 5.333 70.4-46.933 65.067-93.867-6.4-46.933-16-81.067-6.4-194.133 13.867-151.467 123.733-167.467 162.133-167.467 39.467 0 58.667 0 88.533 20.267 1.067 1.067 2.133 2.133 4.267 3.2v-5.333h179.2l14.933 196.267c117.333 0 164.267-215.467 381.867-215.467 0 0 100.267 4.267 112 39.467 5.333 14.933 10.667 46.933 14.933 78.933 0 0 0-1.067 0-1.067 18.133-58.667 76.8-117.333 152.533-117.333 53.333 0 83.2 13.867 97.067 22.4v-2.133h153.6c60.8 428.8 154.667 428.8 206.933 434.133 58.667 5.333 70.4-46.933 65.067-93.867-6.4-46.933-16-81.067-6.4-194.133 13.867-151.467 123.733-167.467 162.133-167.467s58.667 0 88.533 20.267c29.867 20.267 36.267 164.267 36.267 164.267s-50.133-25.6-92.8-13.867zM332.8 807.467c141.867 0 201.6-42.667 201.6-115.2 0-156.8-118.4-163.2-230.4-155.733l28.8 270.933zM606.933 237.867c-11.733-88.533-78.933-109.867-167.467-97.067-64 9.6-166.4 32-166.4 32l19.2 194.133c0 0 101.333 2.133 163.2 0 67.2-3.2 164.267-36.267 151.467-129.067zM1171.2 259.2c-32-88.533-105.6-141.867-164.267-120.533s-80 109.867-48 198.4c32 88.533 105.6 141.867 164.267 120.533 58.667-22.4 80-110.933 48-198.4zM2414.933 291.2c-11.733 11.733 140.8 246.4 217.6 164.267 77.867-83.2-205.867-176-217.6-164.267zM3074.133 864c0-59.499-48.234-107.733-107.733-107.733s-107.733 48.234-107.733 107.733c0 59.499 48.234 107.733 107.733 107.733s107.733-48.234 107.733-107.733z" horiz-adv-x="3915" />
<glyph unicode="&#xe602;" d="M28.558 607.403h100.068v97.223c0 42.894 1.081 108.999 32.199 149.959 32.825 43.349 77.824 72.818 155.307 72.818 126.18 0 179.314-17.977 179.314-17.977l-24.974-148.196c0 0-41.7 12.004-80.612 12.004s-73.728-13.938-73.728-52.793v-113.038h159.516l-11.15-144.725h-148.366v-502.841h-187.506v502.841h-100.068v144.725z" horiz-adv-x="512" />
<glyph unicode="&#xe603;" d="M1234.919 808.159c-44.671-19.287-92.767-32.33-143.217-38.157 51.521 29.971 91.054 77.494 109.679 134.105-48.239-27.751-101.544-47.939-158.488-58.762-45.384 47.107-110.249 76.522-182.037 76.522-137.651 0-249.328-108.575-249.328-242.472 0-19.009 2.141-37.463 6.422-55.224-207.298 10.129-391.047 106.563-514.141 253.433-21.479-35.937-33.753-77.633-33.753-122.034 0-84.085 44.028-158.318 110.963-201.817-40.817 1.179-79.351 12.21-113.032 30.248v-2.983c0-117.524 85.987-215.553 200.162-237.754-20.908-5.689-42.958-8.533-65.722-8.533-16.056 0-31.755 1.457-46.954 4.301 31.755-96.295 123.808-166.435 232.987-168.308-85.345-65.075-192.954-103.857-309.769-103.857-20.123 0-40.032 1.11-59.513 3.33 110.392-68.683 241.55-108.852 382.341-108.852 458.838 0 709.664 369.431 709.664 689.882 0 10.545-0.214 21.091-0.642 31.428 48.738 34.203 91.054 76.869 124.379 125.502z" horiz-adv-x="1243" />
<glyph unicode="&#xe604;" d="M509.956 643.378c118.577 0 212.623-96.089 212.623-212.623 0-77.689 63.377-143.111 139.023-143.111 77.689 0 141.067 63.377 141.067 141.067 0 261.689-204.445 476.356-464.089 490.667-85.867 4.089-175.823-14.311-257.6-57.244-239.2-128.8-329.156-425.245-200.356-664.444 38.845-73.6 96.089-134.933 165.6-179.911 2.044 0 2.044 0 4.089-2.044 75.644-49.067 167.644-77.689 263.733-77.689 85.867 0 159.467 18.4 231.023 59.289 81.777 42.933 147.2 108.356 192.177 186.044 6.133 10.223 2.044 22.489-8.177 28.623s-22.489 2.044-28.623-8.177c-40.889-71.557-102.223-130.844-177.867-171.733-65.423-36.8-132.889-53.156-210.577-53.156-247.377 0-449.777 200.356-449.777 449.777 0 247.377 200.356 449.777 449.777 449.777 8.177 0 16.355 0 22.489 0 151.289-8.177 294.4-94.043 372.089-237.155 0 0 0-2.044 2.044-2.044 32.711-63.377 53.156-134.933 53.156-210.577 0-55.2-44.977-100.177-100.177-100.177-53.156 0-98.133 47.023-98.133 102.223 0 141.067-114.489 253.511-253.511 253.511-141.067 0-253.511-114.489-253.511-253.511s114.489-253.511 253.511-253.511c69.511 0 132.889 28.623 181.957 77.689 18.4 18.4 32.711 38.845 47.023 63.377 6.133 10.223 2.044 22.489-8.177 28.623s-22.489 2.044-28.623-8.177c-10.223-20.444-24.533-38.845-38.845-53.156-40.889-40.889-94.043-65.423-151.289-65.423-118.577 0-212.623 96.089-212.623 212.623s92 210.577 210.577 210.577z" />
<glyph unicode="&#xe605;" d="M512.794 176.549l-230.089-142.597c-21.951-13.605-24.984-11.42-18.968 13.711l66.251 276.816-214.639 184.425c-19.676 16.906-18.41 20.803 7.401 22.821l281.071 21.959 107.778 263.338c9.757 23.84 13.276 23.845 23.035 0l107.778-263.338 281.071-21.959c25.759-2.013 27.041-5.945 7.401-22.821l-214.639-184.425 66.252-276.816c5.999-25.065 2.93-27.282-18.968-13.711l-240.411 148.992-10.321-6.396zM533.436 143.242h-20.642l230.089-142.597c51.647-32.008 91.862-2.952 77.72 56.138l-63.468 265.188-6.286-19.422 205.57 176.633c46.068 39.583 30.654 86.878-29.886 91.607l-269.037 21.019 16.607-12.112-103.206 252.166c-23.057 56.336-72.537 56.264-95.565 0l-103.206-252.166 16.607 12.112-269.037-21.019c-60.618-4.736-75.967-52.013-29.886-91.607l205.57-176.633-6.286 19.422-63.469-265.188c-14.166-59.192 26.052-88.159 77.72-56.138l230.089 142.597z" horiz-adv-x="1046" />
<glyph unicode="&#xe606;" d="M396.846 213.53l-138.642-151.059-78.634 74.494c-8.276 8.276-20.692 8.276-28.97 0s-8.276-20.692 0-28.97l95.188-88.979c4.139-4.139 10.347-6.208 14.483-6.208 6.206 0 10.347 2.069 14.483 6.208l153.129 165.544c8.276 8.276 8.276 20.692-2.069 28.97-8.278 8.276-22.762 8.276-28.971 0zM1052.813 116.271h-434.552c-12.416 0-20.692-8.276-20.692-20.692s8.276-20.692 20.692-20.692h434.552c12.416 0 20.692 8.276 20.692 20.692s-8.278 20.692-20.692 20.692zM396.846 523.925l-138.642-151.059-78.634 74.494c-8.276 8.278-20.692 8.278-28.97 0s-8.276-20.692 0-28.97l95.188-88.979c4.139-4.139 10.347-6.208 14.483-6.208 6.206 0 10.347 2.069 14.483 6.208l153.129 165.544c8.276 8.276 8.276 20.692-2.069 28.97-8.278 8.276-22.762 8.276-28.971 0zM1321.823 426.667h-703.56c-12.416 0-20.692-8.276-20.692-20.692s8.276-20.692 20.692-20.692h703.56c12.416 0 20.692 8.276 20.692 20.692s-8.278 20.692-20.692 20.692zM396.846 834.32l-138.642-151.059-78.634 74.494c-8.276 8.276-20.692 8.276-28.97 0s-8.276-20.692 0-28.97l95.188-88.979c4.139-4.139 10.347-6.208 14.483-6.208 6.206 0 10.347 2.069 14.483 6.208l153.129 165.543c8.276 8.278 8.276 20.692-2.069 28.97-8.278 8.278-22.762 8.278-28.971 0zM618.262 695.675h703.56c12.416 0 20.692 8.276 20.692 20.692s-8.276 20.692-20.692 20.692h-703.56c-12.416 0-20.692-8.276-20.692-20.692 0-10.347 8.276-20.692 20.692-20.692z" horiz-adv-x="1485" />
<glyph unicode="&#xe607;" d="M1133.661 840.527h-893.065c-60.99 0-108.911-47.92-108.911-108.911v-609.898c0-60.99 47.92-108.911 108.911-108.911h893.065c60.99 0 108.911 47.92 108.911 108.911v609.898c0 60.99-47.921 108.911-108.911 108.911zM1199.006 121.718c0-37.030-28.316-65.346-65.346-65.346h-893.065c-37.030 0-65.346 28.316-65.346 65.346v609.898c0 37.030 28.316 65.346 65.346 65.346h893.065c37.030 0 65.346-28.316 65.346-65.346v-609.898zM1090.095 698.943l-383.365-285.345-383.365 285.345c-8.714 6.535-23.96 4.356-30.494-4.356s-4.356-23.96 4.356-30.494l394.255-294.058c8.713-6.535 17.425-6.535 26.139 0l394.255 294.058c8.714 6.535 10.891 21.782 4.356 30.494s-17.425 10.891-26.14 4.356z" horiz-adv-x="1374" />
<glyph unicode="&#xe608;" d="M675.096 342.686c65.546 55.304 108.561 139.286 108.561 231.46 0 167.962-135.189 303.151-303.151 303.151s-303.15-135.189-303.15-303.151c0-92.173 40.966-176.155 106.513-231.46-131.092-61.449-219.17-190.494-227.363-335.925 0-12.29 8.193-20.483 18.435-22.531 12.29 0 20.483 8.193 22.531 18.434 8.193 139.286 96.27 258.088 225.315 311.344 45.064-26.629 98.318-43.015 155.672-43.015s110.61 16.387 155.672 43.015c133.141-49.161 225.315-172.059 233.507-313.393 0-12.29 10.241-20.483 22.531-18.435 12.29 0 20.483 10.241 18.435 22.531-8.193 147.479-98.318 276.523-233.507 337.973zM220.372 574.146c0 145.43 116.755 262.185 262.185 262.185 143.382 0 262.185-116.755 262.185-262.185s-116.755-262.185-262.185-262.185c-145.43 0-262.185 116.755-262.185 262.185z" horiz-adv-x="977" />
<glyph unicode="&#xe609;" d="M872.376 896.89h-556.263c-38.018 0-68.032-30.014-68.032-68.032v-222.104h-140.066c-38.018 0-68.032-30.014-68.032-68.032v-514.243c0-38.018 30.014-68.032 68.032-68.032h302.142c38.018 0 68.032 30.014 68.032 68.032v12.005h394.186c38.018 0 68.032 30.014 68.032 68.032v724.343c0 38.018-30.014 68.032-68.032 68.032zM438.17 24.477c0-16.008-12.005-28.013-28.013-28.013h-302.142c-16.008 0-28.013 12.005-28.013 28.013v514.243c0 16.008 12.005 28.013 28.013 28.013h302.142c16.008 0 28.013-12.005 28.013-28.013v-514.243zM900.389 104.516c0-16.008-12.005-28.013-28.013-28.013h-394.186v462.219c0 38.018-30.014 68.032-68.032 68.032h-124.059v222.104c0 16.008 12.005 28.013 28.013 28.013h556.263c16.008 0 28.013-12.005 28.013-28.013v-724.343zM300.105 100.513c0-22.102-17.917-40.018-40.018-40.018s-40.018 17.917-40.018 40.018c0 22.102 17.917 40.018 40.018 40.018s40.018-17.917 40.018-40.018zM650.272 182.552c0-22.102-17.917-40.018-40.018-40.018s-40.018 17.917-40.018 40.018c0 22.102 17.917 40.018 40.018 40.018s40.018-17.917 40.018-40.018z" horiz-adv-x="980" />
<glyph unicode="&#xe60a;" d="M806.735 636.347c0 3.679-1.84 7.357-5.518 11.036l-270.377 222.556c-1.84 1.84-3.679 3.679-7.357 3.679-3.679 1.84-7.357 3.679-11.036 3.679h-386.253c-40.465 0-73.572-33.108-73.572-73.572v-741.24c0-40.465 33.108-73.572 73.572-73.572h612.488c40.465 0 73.572 33.108 73.572 73.572v560.988c0 3.679-1.84 9.197-5.518 12.875zM530.839 822.118l218.878-180.252h-182.092c-20.232 0-36.787 16.553-36.787 36.787v143.465zM738.681 25.697h-612.488c-20.232 0-36.787 16.553-36.787 36.786v741.24c0 20.232 16.553 36.786 36.787 36.786h367.861v-163.698c0-40.465 33.108-73.572 73.572-73.572h207.841v-542.595c0-18.393-16.553-34.947-36.786-34.947zM554.75 283.202l-115.876-115.876-115.876 115.876c-7.357 7.357-18.393 7.357-25.75 0s-7.357-18.393 0-25.75l128.752-128.752c7.357-7.357 18.393-7.357 25.75 0l128.752 128.752c7.357 7.357 7.357 18.393 0 25.75s-18.393 7.357-25.75 0zM464.624 340.22c0-12.19-9.882-22.072-22.072-22.072s-22.072 9.882-22.072 22.072c0 12.19 9.882 22.072 22.072 22.072s22.072-9.882 22.072-22.072zM464.624 413.792c0-12.19-9.882-22.072-22.072-22.072s-22.072 9.882-22.072 22.072c0 12.19 9.882 22.072 22.072 22.072s22.072-9.882 22.072-22.072zM464.624 487.364c0-12.19-9.882-22.072-22.072-22.072s-22.072 9.882-22.072 22.072c0 12.19 9.882 22.072 22.072 22.072s22.072-9.882 22.072-22.072zM464.624 266.648c0-12.19-9.882-22.072-22.072-22.072s-22.072 9.882-22.072 22.072c0 12.19 9.882 22.072 22.072 22.072s22.072-9.882 22.072-22.072z" horiz-adv-x="878" />
<glyph unicode="&#xe60b;" d="M769.469 446.056c-44.067 0-84.607-17.627-112.81-47.592l-162.165-188.605c-21.152-21.152-51.118-33.491-84.607-33.491-66.981 0-119.862 52.881-119.862 118.098s54.643 118.098 119.862 118.098c38.779 0 74.031-19.389 96.947-47.592h-86.37c-10.576 0-17.627-7.050-17.627-17.627s7.050-17.627 17.627-17.627h118.098c10.576 0 17.627 7.050 17.627 17.627v123.387c0 10.576-7.050 17.627-17.627 17.627s-17.627-7.050-17.627-17.627v-66.981c-28.203 28.203-66.981 45.829-109.284 45.829-86.37 0-155.115-68.744-155.115-153.353s70.507-153.352 155.115-153.352c42.304 0 81.083 15.863 109.284 45.829l162.165 188.605c21.152 22.914 52.881 37.017 86.37 37.017 66.981 0 119.862-52.881 119.862-118.098s-54.643-118.098-119.862-118.098c-49.355 0-93.421 29.966-111.048 74.031-3.526 8.814-14.1 14.1-22.914 8.814s-14.1-14.1-8.814-22.914c22.914-58.168 81.083-96.947 144.538-96.947 86.371 0 155.115 68.744 155.115 153.352-1.763 82.845-72.27 151.59-156.877 151.59zM788.858 95.285c-10.576 0-17.627-7.050-17.627-17.627 0-19.389-15.863-35.253-35.254-35.253h-586.968c-19.389 0-35.253 15.863-35.253 35.253v710.355c0 19.389 15.863 35.253 35.253 35.253h352.533v-156.877c0-38.779 31.728-70.507 70.507-70.507h199.182v-72.27c0-10.576 7.050-17.627 17.627-17.627s17.627 7.050 17.627 17.627v89.896c0 5.288-3.526 10.576-7.050 14.1-1.763 1.763-1.763 3.526-5.288 5.288l-262.637 218.572c0 0-1.763 0-1.763 1.763v0c0 0 0 0 0 0-1.763 1.763-3.526 1.763-5.288 3.526-1.763 0-1.763 0-3.526 0s-1.763 0-3.526 0h-370.159c-38.779 0-70.507-31.728-70.507-70.507v-710.355c0-38.779 31.728-70.507 70.507-70.507h586.968c38.779 0 70.506 31.728 70.506 70.507 1.763 10.576-5.288 19.389-15.863 19.389zM536.796 666.389v137.487l206.232-170.979h-170.979c-19.389-1.763-35.253 14.1-35.253 33.491z" horiz-adv-x="1003" />
<glyph unicode="&#xe60c;" d="M903.725 586.264h-304.175c-35.675 0-80.738 24.409-99.514 54.452l-52.573 84.493c-15.022 22.531-45.064 41.307-73.227 41.307h-296.666c-11.266 0-18.776-7.51-18.776-18.776v-674.068c0-52.573 41.307-93.882 93.882-93.882h675.944c52.573 0 93.882 41.307 93.882 93.882v495.692c0 7.51-7.509 16.898-18.776 16.898zM828.619 15.468h-675.944c-31.92 0-56.328 24.409-56.328 56.328v542.633h244.090c11.266 0 18.776 7.51 18.776 18.776s-7.51 18.776-18.776 18.776h-244.090v75.105h279.766c15.022 0 33.798-11.266 41.307-22.531l52.573-84.493c26.287-41.307 82.616-73.227 131.434-73.227h285.399v-476.917c-1.877-30.042-26.287-54.452-58.205-54.452zM753.514 764.64h56.328v-56.328c0-11.266 7.51-18.776 18.776-18.776s18.776 7.51 18.776 18.776v56.328h56.328c11.266 0 18.776 7.51 18.776 18.776s-7.51 18.776-18.776 18.776h-56.328v56.328c0 11.266-7.51 18.776-18.776 18.776s-18.776-7.51-18.776-18.776v-56.328h-56.328c-11.266 0-18.776-7.509-18.776-18.776 0-9.389 7.509-18.776 18.776-18.776z" horiz-adv-x="981" />
<glyph unicode="&#xe60d;" d="M942.98 117.664c-11.516 0-19.193-7.677-19.193-19.193v-38.386c0-11.516 7.677-19.193 19.193-19.193s19.193 7.677 19.193 19.193v38.386c0 11.516-7.677 19.193-19.193 19.193zM896.917-5.17h-38.386c-11.516 0-19.193-7.677-19.193-19.193s7.677-19.193 19.193-19.193h38.386c11.516 0 19.193 7.677 19.193 19.193s-9.597 19.193-19.193 19.193zM731.86 729.912c11.516 0 19.193 7.677 19.193 19.193v38.385c0 11.516-7.677 19.193-19.193 19.193s-19.193-7.677-19.193-19.193v-38.385c0-11.516 7.677-19.193 19.193-19.193zM810.55 896.89h-38.385c-11.516 0-19.193-7.677-19.193-19.193s7.677-19.193 19.193-19.193h38.385c11.516 0 19.193 7.677 19.193 19.193s-7.677 19.193-19.193 19.193zM935.303 887.293c-9.597 5.758-21.112 3.839-26.87-5.758s-3.839-21.112 5.758-26.87c5.758-3.839 9.597-9.597 9.597-15.353v-11.516c0-11.516 7.677-19.193 19.193-19.193s19.193 7.677 19.193 19.193v11.516c0 21.112-11.516 38.385-26.87 47.982zM942.98 731.832c-11.516 0-19.193-7.677-19.193-19.193v-38.386c0-11.516 7.677-19.193 19.193-19.193s19.193 7.677 19.193 19.193v38.386c0 11.516-7.677 19.193-19.193 19.193zM751.052 14.023v5.758c0 11.516-7.677 19.193-19.193 19.193s-19.193-7.677-19.193-19.193v-5.758c0-17.273 7.677-32.628 19.193-44.143 7.677-7.677 19.193-5.758 26.87 1.92s5.758 19.193-1.92 26.87c-3.839 3.839-5.758 9.597-5.758 15.353zM942.98 578.29c-11.516 0-19.193-7.677-19.193-19.193v-38.385c0-11.516 7.677-19.193 19.193-19.193s19.193 7.677 19.193 19.193v38.385c0 11.516-7.677 19.193-19.193 19.193zM942.98 424.747c-11.516 0-19.193-7.677-19.193-19.193v-38.386c0-11.516 7.677-19.193 19.193-19.193s19.193 7.677 19.193 19.193v38.386c0 11.516-7.677 19.193-19.193 19.193zM942.98 271.206c-11.516 0-19.193-7.677-19.193-19.193v-38.385c0-11.516 7.677-19.193 19.193-19.193s19.193 7.677 19.193 19.193v38.385c0 11.516-7.677 19.193-19.193 19.193zM731.86 422.828c11.516 0 19.193 7.677 19.193 19.193v38.386c0 11.516-7.677 19.193-19.193 19.193s-19.193-7.677-19.193-19.193v-38.386c0-11.516 7.677-19.193 19.193-19.193zM731.86 115.744c11.516 0 19.193 7.677 19.193 19.193v38.386c0 11.516-7.677 19.193-19.193 19.193s-19.193-7.677-19.193-19.193v-38.386c0-11.516 7.677-19.193 19.193-19.193zM731.86 269.287c11.516 0 19.193 7.677 19.193 19.193v38.386c0 11.516-7.677 19.193-19.193 19.193s-19.193-7.677-19.193-19.193v-38.386c0-11.516 7.677-19.193 19.193-19.193zM731.86 576.37c11.516 0 19.193 7.677 19.193 19.193v38.386c0 11.516-7.677 19.193-19.193 19.193s-19.193-7.677-19.193-19.193v-38.386c0-11.516 7.677-19.193 19.193-19.193zM559.126 647.384h-134.35c-32.628 0-57.579-24.95-57.579-57.579v-575.783c0-32.628 24.95-57.579 57.579-57.579h134.35c32.628 0 57.579 24.95 57.579 57.579v575.783c0 32.628-24.95 57.579-57.579 57.579zM578.318 14.023c0-11.516-7.677-19.193-19.193-19.193h-134.35c-11.516 0-19.193 7.677-19.193 19.193v575.783c0 11.516 7.677 19.193 19.193 19.193h134.35c11.516 0 19.193-7.677 19.193-19.193v-575.783zM232.849 340.299h-134.35c-32.628 0-57.579-24.95-57.579-57.579v-268.698c0-32.628 24.95-57.579 57.579-57.579h134.35c32.628 0 57.579 24.95 57.579 57.579v268.698c0 32.628-24.95 57.579-57.579 57.579zM252.042 14.023c0-11.516-7.677-19.193-19.193-19.193h-134.35c-11.516 0-19.193 7.677-19.193 19.193v268.698c0 11.516 7.677 19.193 19.193 19.193h134.35c11.516 0 19.193-7.677 19.193-19.193v-268.698z" horiz-adv-x="1003" />
<glyph unicode="&#xe60e;" d="M820.345 205.95c-11.516 0-19.193-7.677-19.193-19.193 0-5.758 0-46.062 0-74.852 0-34.547 0-72.932 0-71.013-1.92-7.677-3.839-13.435-7.677-19.193-7.677-9.597-17.273-13.435-28.789-13.435h-641.038c-21.112 0-38.386 17.273-38.386 38.385v773.468c0 21.112 17.273 38.385 38.386 38.385h383.855v-170.815c0-42.224 34.547-76.771 76.771-76.771h216.878v-193.846c0-11.516 7.677-19.193 19.193-19.193s19.193 7.677 19.193 19.193v213.039c0 5.758-3.839 11.516-7.677 15.353-1.92 1.92-1.92 3.839-5.758 5.758l-285.972 237.991c0 0-1.92 0-1.92 1.92v0c0 0 0 0 0 0-1.92 1.92-3.839 1.92-5.758 3.839-1.92 0-1.92 0-3.839 0s-1.92 0-3.839 0h-403.047c-42.224 0-76.771-34.547-76.771-76.771v-773.468c0-42.224 34.547-76.771 76.771-76.771h639.118c23.032 0 44.143 9.597 59.498 26.87 9.597 11.516 15.353 23.032 17.273 36.466 0 1.92 0 21.112 0 76.771 0 28.789 0 69.094 0 74.852 1.92 15.353-5.758 23.032-17.273 23.032zM545.889 687.688v149.703l224.555-186.17h-186.17c-21.112-1.92-38.386 15.353-38.386 36.466zM1087.124 296.156l-115.157 115.157c-7.677 7.677-19.193 7.677-26.87 0s-7.677-19.193 0-26.87l82.529-82.529h-289.811c-11.516 0-19.193-7.677-19.193-19.193s7.677-19.193 19.193-19.193h289.811l-82.529-82.529c-7.677-7.677-7.677-19.193 0-26.87s19.193-7.677 26.87 0l115.157 115.156c7.677 7.677 7.677 19.193 0 26.87zM236.886 184.838l36.466 59.498 36.467-59.498h38.386l-53.74 78.691 49.901 78.691h-36.466l-32.628-55.659-34.547 55.659h-36.467l47.982-76.771-51.82-80.609zM380.831 342.219v-157.38h97.883v26.87h-65.255v130.511zM555.486 209.788c-5.758 0-13.435 1.92-21.112 3.839s-17.273 5.758-26.87 9.597v-30.709c13.435-5.758 28.789-9.597 44.143-9.597 19.193 0 32.628 3.839 42.224 11.516s15.353 19.193 15.353 34.547c0 9.597-1.92 19.193-7.677 26.87s-15.353 13.435-30.709 21.112c-11.516 5.758-19.193 9.597-21.112 11.516-3.839 1.92-5.758 3.839-5.758 5.758-1.92 1.92-1.92 5.758-1.92 7.677 0 3.839 1.92 9.597 5.758 11.516 3.839 3.839 7.677 3.839 15.353 3.839 5.758 0 11.516 0 17.273-1.92s13.435-3.839 21.112-7.677l11.516 26.87c-7.677 3.839-15.353 5.758-23.032 7.677s-15.353 3.839-23.032 3.839c-17.273 0-30.709-3.839-40.305-11.516s-13.435-19.193-13.435-32.628c0-7.677 1.92-13.435 3.839-19.193 3.839-5.758 7.677-9.597 11.516-15.353s11.516-7.677 21.112-13.435c9.597-5.758 17.273-7.677 21.112-11.516 3.839-1.92 5.758-3.839 7.677-7.677 1.92-1.92 1.92-5.758 1.92-7.677 0-5.758-1.92-9.597-5.758-13.435-7.677-1.92-13.435-3.839-19.193-3.839z" horiz-adv-x="1149" />
<glyph unicode="&#xe60f;" d="M588.641 73.478c-10.45 6.27-22.989 2.090-29.259-8.36-29.259-50.156-91.954-66.876-142.112-37.617s-66.876 91.954-37.617 142.112c6.27 10.45 2.090 22.989-8.36 29.259s-22.988 2.090-29.259-8.36c-39.709-68.965-16.718-158.83 54.337-200.628 68.965-39.708 158.83-16.718 200.628 54.337 6.27 10.45 2.090 25.079-8.36 29.259zM757.921 742.239l-45.977 27.168c-146.292 85.686-334.381 35.527-417.975-108.674l-131.663-227.797-79.415 45.977c-10.45 6.27-22.988 2.090-29.259-8.36s-2.090-22.989 8.36-29.259l723.097-417.975c10.45-6.27 22.988-2.090 29.259 8.36s2.090 22.988-8.36 29.259l-64.786 37.617 131.663 227.797c83.594 146.291 33.438 332.29-114.943 415.886zM837.336 347.252l-131.663-227.797-505.75 292.583 131.663 227.797c73.145 125.392 234.066 167.19 361.548 94.044l45.977-27.168c125.392-73.146 169.28-234.066 98.224-359.459zM686.865 811.204c10.45-6.27 22.988-2.090 29.259 8.36 16.718 29.259 56.427 39.709 85.686 22.988s39.709-56.427 22.989-85.686c-6.27-10.45-2.090-22.988 8.36-29.259s22.988-2.090 29.259 8.36c29.259 50.156 12.539 112.853-37.617 142.112s-112.853 12.539-142.112-37.617c-10.45-10.45-6.27-22.988 4.179-29.259z" horiz-adv-x="956" />
<glyph unicode="&#xe610;" d="M829.393 650.972c0 0 2.003 0 0 0l-292.397 240.327c0 0-10.014 12.017-24.033 12.017h-414.565c-44.060 0-80.109-36.049-80.109-80.109v-807.097c0-44.060 36.049-80.109 80.109-80.109h666.906c44.060 0 80.109 36.049 80.109 80.109v604.821c0 10.014-8.011 28.038-16.021 30.041zM538.999 839.228l230.313-192.261h-190.259c-22.030 0-40.055 18.024-40.055 40.054v152.206zM765.307-23.946h-666.906c-22.030 0-40.055 18.024-40.055 40.054v807.097c0 22.030 18.024 40.055 40.055 40.055h400.544v-178.242c0-44.060 36.049-80.109 80.109-80.109h226.307v-590.803c0-20.027-18.024-38.053-40.054-38.053zM310.689 699.037l-76.103-60.082-20.027 34.047c-6.008 10.014-18.024 12.017-28.038 6.008s-12.017-18.024-6.008-28.038l32.044-54.073c6.008-10.014 20.027-12.017 30.041-6.008l92.126 74.101c8.011 6.008 10.014 20.027 4.006 28.038-6.008 10.014-18.024 12.017-28.038 6.008zM310.689 468.724l-76.103-60.082-20.027 34.047c-6.008 10.014-18.024 12.017-28.038 6.008s-12.017-18.024-6.008-28.038l32.044-54.073c6.008-10.014 20.027-12.017 30.041-6.008l92.126 74.101c8.011 6.008 10.014 20.027 4.006 28.038-6.008 12.017-18.024 14.019-28.038 6.008zM310.689 248.425l-76.103-60.082-20.027 34.047c-6.008 10.014-18.024 12.017-28.038 6.008s-12.017-18.024-6.008-28.038l32.044-54.073c6.008-10.014 20.027-12.017 30.041-6.008l92.126 74.101c8.011 6.008 10.014 20.027 4.006 28.038-6.008 10.014-18.024 12.017-28.038 6.008zM659.163 216.381h-200.272c-12.017 0-20.027-8.011-20.027-20.027s8.011-20.027 20.027-20.027h200.272c12.017 0 20.027 8.011 20.027 20.027s-8.011 20.027-20.027 20.027zM659.163 456.708h-200.272c-12.017 0-20.027-8.011-20.027-20.027s8.011-20.027 20.027-20.027h200.272c12.017 0 20.027 8.011 20.027 20.027s-8.011 20.027-20.027 20.027z" horiz-adv-x="878" />
<glyph unicode="&#xe611;" d="M832.607-0.808h-123.968c162.44 74.808 273.584 237.248 273.584 427.475 0 260.76-209.463 470.223-470.223 470.223s-470.223-209.463-470.223-470.223c0-190.226 113.281-352.667 273.584-427.475h-123.968c-12.824 0-21.374-8.549-21.374-21.374s8.549-21.374 21.374-21.374h641.212c12.824 0 21.374 8.549 21.374 21.374s-8.549 21.374-21.374 21.374zM843.293 695.976l-316.331-205.188v361.216c128.242-4.275 241.523-64.121 316.331-156.028zM84.525 426.667c0 226.562 177.402 412.514 401.826 425.337v-401.826c0-17.099 19.236-27.786 32.060-17.099l350.53 226.562c44.885-68.396 70.533-147.479 70.533-235.111 0-235.111-192.364-427.475-427.475-427.475s-427.475 194.501-427.475 429.612z" />
<glyph unicode="&#xe612;" d="M86.815 818.967v-787.211c0-12.553 10.176-22.729 22.729-22.729h816.784c12.553 0 22.729 10.176 22.729 22.729s-10.176 22.729-22.729 22.729h-816.784l22.729-22.729v787.211c0 12.553-10.176 22.729-22.729 22.729s-22.729-10.176-22.729-22.729v0zM271.618 156.316c0.3 2.117 0.995 6.363 2.134 12.431 1.928 10.264 4.406 21.739 7.488 34.115 8.798 35.33 20.614 70.635 35.786 103.394 59.196 127.805 147.261 178.804 278.819 117.641 127.13-59.104 221.607-50.348 286.395 20.842 51.17 56.227 80.511 145.153 101.954 281.225 1.954 12.399-6.514 24.037-18.915 25.991s-24.037-6.514-25.991-18.915c-20.137-127.793-47.266-210.012-90.671-257.704-49.914-54.847-123.039-61.625-233.611-10.218-158.121 73.514-270.63 8.358-339.233-139.756-16.499-35.621-29.203-73.582-38.65-111.516-3.304-13.267-5.969-25.602-8.056-36.708-1.268-6.754-2.071-11.667-2.463-14.433-1.763-12.429 6.881-23.933 19.309-25.698s23.933 6.881 25.698 19.309v0z" horiz-adv-x="1078" />
<glyph unicode="&#xe613;" d="M451.169 139.285c192.155 0 347.852 157.019 347.852 350.622s-155.698 350.622-347.852 350.622c-192.155 0-347.852-157.019-347.852-350.622s155.698-350.622 347.852-350.622v0zM451.169 182.849c-168.012 0-304.29 137.434-304.29 307.058s136.276 307.058 304.29 307.058c168.012 0 304.29-137.434 304.29-307.058s-136.276-307.058-304.29-307.058v0zM451.169 739.344c-136.745 0-247.523-111.719-247.523-249.44 0-12.030 9.752-21.782 21.782-21.782s21.782 9.752 21.782 21.782c0 113.744 91.357 205.877 203.959 205.877 12.030 0 21.782 9.752 21.782 21.782s-9.752 21.782-21.782 21.782v0zM761.773 196.32l163.035-164.42c8.471-8.543 22.261-8.601 30.804-0.13s8.601 22.261 0.13 30.804l-163.036 164.419c-8.471 8.543-22.261 8.601-30.804 0.13s-8.601-22.261-0.13-30.804v0z" horiz-adv-x="1078" />
<glyph unicode="&#xe614;" d="M802.692 721.067c-14.934 14.934-36.266 25.6-59.733 25.6h-42.667v55.466c0 6.4-2.133 10.666-6.4 14.934s-8.533 6.4-14.934 6.4h-104.533c-12.8 0-21.333 8.533-21.333 21.333v51.2c0 6.4-2.133 10.666-6.4 14.934s-8.533 6.4-14.934 6.4h-215.467c-6.4 0-10.666-2.133-14.934-6.4s-6.4-8.533-6.4-14.934v-51.2c0-10.666-8.533-21.333-21.333-21.333h-106.666c-6.4 0-10.666-2.133-14.934-6.4s-6.4-8.533-6.4-14.934v-55.466h-42.667c-46.933 0-85.333-38.4-85.333-85.333v-640c0-46.933 38.4-85.333 85.333-85.333h640c46.933 0 85.333 38.4 85.333 85.333v640c0 23.467-10.666 44.8-25.6 59.733zM188.292 780.8h85.333c36.266 0 64 27.733 64 64v29.866h172.8v-29.866c0-36.266 29.866-64 64-64h83.2v-98.133h-469.333v98.133zM785.625 467.201v-445.867c0-23.467-19.2-42.667-42.667-42.667h-640c-23.467 0-42.667 19.2-42.667 42.667v640c0 23.467 19.2 42.667 42.667 42.667h42.667v-42.667c0-6.4 2.133-10.666 6.4-14.934s8.533-6.4 14.934-6.4h512c6.4 0 10.666 2.133 14.934 6.4s6.4 8.533 6.4 14.934v42.667h42.667c23.467 0 42.667-19.2 42.667-42.667v-194.133zM422.959 213.333h-213.334c-12.8 0-21.333-8.533-21.333-21.333s8.533-21.333 21.333-21.333h213.334c12.8 0 21.333 8.533 21.333 21.333s-8.533 21.333-21.333 21.333zM636.291 362.667h-426.666c-12.8 0-21.333-8.533-21.333-21.333s8.533-21.333 21.333-21.333h426.666c12.8 0 21.333 8.533 21.333 21.333s-8.533 21.333-21.333 21.333zM636.291 512h-426.666c-12.8 0-21.333-8.533-21.333-21.333s8.533-21.333 21.333-21.333h426.666c12.8 0 21.333 8.533 21.333 21.333s-8.533 21.333-21.333 21.333z" horiz-adv-x="846" />
<glyph unicode="&#xe615;" d="M832 464.035v-224.069c0-93.709-1.379-118.218-10.333-150.892-0.781-2.846-1.621-5.692-2.524-8.555-14.958-41.038-47.96-74.038-89.86-89.283-2.001-0.613-4.847-1.453-7.693-2.233-32.672-8.957-57.181-10.337-150.889-10.337h-245.402c-93.733 0-118.245 1.382-150.922 10.346-2.835 0.777-5.669 1.615-8.52 2.517-41.041 14.953-74.042 47.952-89.295 89.857-0.61 1.996-1.45 4.842-2.23 7.688-8.953 32.672-10.331 57.182-10.331 150.891v245.402c0 93.739 1.382 118.256 10.345 150.939 0.776 2.83 1.612 5.66 2.512 8.506 14.958 41.038 47.959 74.040 89.863 89.293 1.986 0.608 4.82 1.444 7.654 2.221 32.678 8.96 57.191 10.341 150.925 10.341h224.069c11.782 0 21.333 9.552 21.333 21.333s-9.552 21.333-21.333 21.333h-224.069c-97.947 0-124.386-1.489-162.208-11.859-3.366-0.923-6.727-1.915-10.1-2.981-54.62-19.861-96.957-62.197-116.523-115.952-1.359-4.233-2.35-7.588-3.271-10.948-10.375-37.827-11.864-64.27-11.864-162.224v-245.402c0-97.92 1.488-124.353 11.849-162.166 0.926-3.379 1.921-6.753 2.992-10.139 19.861-54.623 62.2-96.959 115.955-116.518 4.233-1.359 7.595-2.352 10.96-3.275 37.823-10.376 64.261-11.866 162.209-11.866h245.402c97.921 0 124.354 1.489 162.169 11.855 3.379 0.927 6.754 1.922 10.139 2.994 54.616 19.851 96.955 62.187 116.521 115.944 1.365 4.253 2.36 7.627 3.286 11.006 10.361 37.813 11.849 64.246 11.849 162.166v224.069c0 11.782-9.552 21.333-21.333 21.333s-21.333-9.552-21.333-21.333v0zM819.2 567.467c94.257 0 170.667 76.41 170.667 170.667s-76.41 170.667-170.667 170.667c-94.257 0-170.667-76.41-170.667-170.667s76.41-170.667 170.667-170.667v0zM819.2 610.133c-70.693 0-128 57.307-128 128s57.307 128 128 128c70.691 0 128-57.307 128-128s-57.307-128-128-128v0z" />
<glyph unicode="&#xe616;" d="M98.298 539.044c0.386 2.137 1.334 6.535 2.944 12.867 2.741 10.773 6.354 22.835 10.94 35.856 13.128 37.275 31.363 74.556 55.458 109.249 68.405 98.495 169.469 157.209 311.546 157.209 147.935 0 249.017-49.451 307.835-134.361 45.183-65.227 61.889-149.846 50.839-214.234-19.941-98.154-10.74-155.75 20.481-191.998 6.073-7.051 24.549-23.666 20.634-19.873 8.11-7.856 21.054-7.649 28.909 0.46s7.649 21.054-0.46 28.909c-2.1 2.035-10.316 9.276-9.402 8.454-3.502 3.149-6.175 5.805-8.698 8.734-21.854 25.373-29.037 70.33-11.277 157.787 12.922 75.24-5.93 170.722-57.412 245.044-66.707 96.299-180.494 151.967-341.447 151.967-156.204 0-269.434-65.781-345.129-174.774-26.341-37.928-46.164-78.456-60.44-118.99-5.005-14.211-8.967-27.437-12-39.358-1.853-7.285-3.001-12.614-3.553-15.663-2.012-11.111 5.365-21.747 16.475-23.76s21.747 5.365 23.76 16.475zM847.107 214.067c-2.51 0.789-7.614 2.79-14.422 6.167-11.587 5.748-23.203 13.201-33.992 22.479-30.463 26.197-48.502 61.398-48.502 108.209 0 50.78 1.544 77.462 4.917 103.446 0.345 2.662 1.528 11.403 1.607 12.005 2.611 19.661 3.65 34.353 3.65 59.624 0 126.981-91.923 232.588-287.744 239.482-107.2 3.774-185.067-43.222-236.667-122.866-17.135-26.447-30.086-54.651-39.487-82.85-5.673-17.015-8.938-30.418-10.355-38.465-0.36-1.813-1.486-6.248-3.428-12.131-3.272-9.911-7.597-19.811-13.030-28.908-21.413-35.856-51.681-48.849-99.741-28.694-10.413 4.367-22.393-0.535-26.76-10.947s0.535-22.393 10.947-26.76c68.388-28.68 119.5-6.739 150.661 45.436 12.155 20.352 18.777 40.414 21.547 54.514 0.313 1.753 0.915 4.656 1.944 8.88 1.764 7.243 4.080 15.366 7.005 24.142 8.375 25.118 19.907 50.233 35.014 73.549 44.249 68.296 109.148 107.466 200.913 104.235 172.829-6.084 248.294-92.785 248.294-198.617 0-23.403-0.913-36.306-3.295-54.24-0.067-0.507-1.261-9.334-1.622-12.125-3.613-27.829-5.257-56.251-5.257-108.709 0-59.427 23.674-105.625 62.731-139.211 23.253-19.997 46.486-31.522 62.818-36.652 10.772-3.384 22.249 2.605 25.633 13.376s-2.605 22.249-13.376 25.633zM128.994 173.026c3.156 0.264 8.735 0.89 16.396 1.998 12.582 1.821 26.555 4.369 41.581 7.766 42.936 9.71 85.896 24.322 126.172 44.907 112.759 57.63 183.009 150.291 187.468 283.786 0.377 11.284-8.466 20.738-19.75 21.116s-20.738-8.466-21.116-19.75c-3.913-117.175-64.725-197.385-165.211-248.743-36.965-18.893-76.761-32.429-116.582-41.434-13.941-3.153-26.863-5.509-38.418-7.181-6.821-0.987-11.586-1.522-13.949-1.719-11.252-0.941-19.609-10.826-18.668-22.078s10.826-19.609 22.078-18.668zM73.473 284.546c0.494-0.019 0.494-0.019 2.159-0.060 12.294-0.26 28.691 0.254 47.767 2.166 28.997 2.907 57.721 8.492 84.784 17.452 69.213 22.919 118.15 64.549 135.175 129.050 36.875 139.701 62.989 173.351 132.454 173.351 75.925 0 132.082-68.092 114.267-148.677-1.107-5.004-2.172-10.139-3.581-17.168-24.073-120.092-54.782-173.444-178.146-245.744-48.649-28.511-109.064-55.749-182.728-81.758-10.647-3.759-16.231-15.438-12.471-26.085s15.438-16.231 26.085-12.472c75.992 26.831 138.75 55.124 189.79 85.038 134.895 79.060 171.403 142.485 197.561 272.985 1.36 6.787 2.378 11.688 3.415 16.378 23.514 106.364-52.382 198.391-154.193 198.391-93.513 0-130.914-48.192-171.988-203.805-12.984-49.19-51.194-81.697-108.494-100.67-23.951-7.931-49.8-12.957-76.009-15.583-17.312-1.735-32.087-2.198-42.824-1.971-1.263 0.033-1.263 0.033-1.379 0.036-11.281 0.454-20.796-8.323-21.25-19.606s8.323-20.796 19.606-21.25zM362.315 3.399c2.738 2.105 8.038 5.964 15.43 10.988 12.407 8.43 25.982 16.871 40.237 24.726 24.486 13.496 48.31 23.793 70.212 29.619 13.029 3.467 25.063 5.255 35.888 5.255 39.417 0 56.333-8.348 88.794-36.54 0.182-0.158 0.182-0.158 0.364-0.316 15.654-13.595 23.468-19.746 34.97-26.543 9.721-5.743 22.257-2.52 28.002 7.2s2.52 22.257-7.2 28.003c-8.712 5.147-15.12 10.193-28.96 22.212-0.182 0.158-0.182 0.158-0.363 0.316-39.202 34.047-64.553 46.559-115.606 46.559-14.642 0-30.139-2.303-46.401-6.629-25.521-6.791-52.266-18.348-79.435-33.323-15.444-8.512-30.080-17.61-43.481-26.717-4.704-3.197-8.928-6.174-12.615-8.858-2.257-1.643-3.863-2.846-4.762-3.537-8.95-6.884-10.625-19.72-3.741-28.67s19.72-10.625 28.669-3.741zM624.19 223.66c1.609-4.888 4.682-12.991 9.266-23.263 7.6-17.030 16.798-34.066 27.695-50.081 25.231-37.079 55.742-63.33 92.486-73.142 10.909-2.913 22.115 3.569 25.028 14.478s-3.569 22.115-14.478 25.028c-25.686 6.86-49.012 26.929-69.231 56.641-9.416 13.836-17.488 28.784-24.161 43.739-3.979 8.918-6.568 15.743-7.766 19.383-3.53 10.725-15.086 16.558-25.811 13.029s-16.558-15.086-13.029-25.811zM523.91-41.653c31.28 0 56.637 10.248 56.637 22.891s-25.358 22.891-56.637 22.891c-31.28 0-56.637-10.248-56.637-22.891s25.357-22.891 56.637-22.891z" horiz-adv-x="957" />
<glyph unicode="&#xe617;" d="M881.836 896.89h-654.223c-79.733 0-143.111-63.378-143.111-143.111v-24.533c-2.044 0-4.089-2.044-6.133-4.089-12.267-8.177-20.444-18.4-26.577-30.667s-8.177-26.577-8.177-42.933v-81.777c0-20.444 6.133-38.845 16.356-55.2 4.088-8.177 12.267-14.312 18.4-18.4 2.044-2.044 4.089-2.044 6.133-4.089v-130.845c-2.044 0-4.089-2.044-6.133-4.088-12.267-8.177-20.444-18.4-26.577-30.667s-8.177-26.577-8.177-42.933v-81.777c0-20.444 6.133-38.845 16.356-55.2 4.089-8.177 12.267-14.312 18.4-18.4 2.044-2.044 4.088-2.044 6.133-4.088v-24.533c0-79.733 63.378-143.111 143.111-143.111h654.223c79.733 0 143.111 63.378 143.111 143.111v654.223c0 79.733-63.378 143.111-143.111 143.111zM84.503 651.556c0 12.267 4.088 24.533 8.177 32.711 2.044 4.089 4.089 6.133 6.133 8.177s4.088 2.044 4.088 2.044 2.044 0 4.089-2.044c4.089-2.044 8.177-6.133 10.222-14.312 4.089-6.133 6.133-16.356 6.133-26.577v-81.777c0-12.267-4.089-24.533-8.177-32.711-2.044-4.089-4.089-6.133-6.133-8.177s-4.089-2.044-4.089-2.044-2.044 0-4.089 2.044-8.177 6.133-10.222 14.312c-4.089 6.133-6.133 16.356-6.133 26.577v81.777zM109.036 162.934c-2.044-2.044-4.089-2.044-4.089-2.044-2.044 0-2.044 0-4.089 2.044s-8.177 6.133-10.222 14.312c-4.089 6.133-6.133 16.356-6.133 26.577v81.777c0 12.267 4.089 24.533 8.177 32.711 2.044 4.088 4.089 6.133 6.133 8.177s4.089 2.044 4.089 2.044 2.044 0 4.088-2.044 8.177-6.133 10.222-14.312c4.089-6.133 6.133-16.356 6.133-26.577v-81.777c0-12.267-4.089-24.533-8.177-32.711 0-4.089-4.089-6.133-6.133-8.177zM984.058 99.556c0-28.622-12.267-53.155-30.667-71.556s-44.977-30.667-71.556-30.667h-654.223c-28.622 0-53.155 12.267-71.556 30.667s-30.667 44.977-30.667 71.556v24.533c2.044 0 4.089 2.044 6.133 4.088 12.267 8.177 20.444 18.4 26.577 30.667s8.177 26.577 8.177 42.933v81.777c0 20.444-6.133 38.845-16.356 55.2-4.089 8.177-12.267 14.312-18.4 18.4-2.044 2.044-4.088 2.044-6.133 4.088v130.845c2.044 0 4.089 2.044 6.133 4.088 12.267 8.177 20.444 18.4 26.577 30.667s8.177 26.577 8.177 42.933v81.777c0 20.444-6.133 38.845-16.356 55.2-4.089 8.177-12.267 14.312-18.4 18.4-2.044 2.044-4.089 2.044-6.133 4.088v24.533c0 28.622 12.267 53.155 30.667 71.556s44.977 30.667 71.556 30.667h654.223c28.622 0 53.155-12.267 71.556-30.667s30.667-44.977 30.667-71.556v-654.223zM750.991 447.111h-32.711c0 0 0 0-2.044 0-4.088 30.667-16.356 57.244-32.711 79.733 0 0 0 0 2.044 0l22.489 22.489c8.177 8.177 8.177 20.444 0 28.622s-20.444 8.177-28.622 0l-22.489-22.489c0 0 0 0 0-2.044-22.489 18.4-51.111 28.622-79.733 32.711 0 0 0 0 0 2.044v32.711c0 12.267-8.177 20.444-20.444 20.444s-20.444-8.177-20.444-20.444v-32.711c0 0 0 0 0-2.044-30.667-4.088-57.244-16.356-79.733-32.711 0 0 0 0 0 2.044l-22.489 22.489c-8.177 8.177-20.444 8.177-28.622 0s-8.177-20.444 0-28.622l22.489-22.489c0 0 0 0 2.044 0-18.4-22.489-28.622-51.111-32.711-79.733 0 0 0 0-2.044 0h-32.711c-12.267 0-20.444-8.177-20.444-20.444s8.177-20.444 20.444-20.444h32.711c0 0 0 0 2.044 0 4.088-30.667 16.356-57.244 32.711-79.733 0 0 0 0-2.044 0l-22.489-22.489c-8.177-8.177-8.177-20.444 0-28.622s20.444-8.177 28.622 0l22.489 22.489c0 0 0 0 0 2.044 22.489-18.4 51.111-28.622 79.733-32.711 0 0 0 0 0-2.044v-32.711c0-12.267 8.177-20.444 20.444-20.444s20.444 8.177 20.444 20.444v32.711c0 0 0 0 0 2.044 30.667 4.089 57.244 16.356 79.733 32.711 0 0 0 0 0-2.044l22.489-22.489c8.177-8.177 20.444-8.177 28.622 0s8.177 20.444 0 28.622l-22.489 22.489c0 0 0 0-2.044 0 18.4 22.489 28.622 51.111 32.711 79.733 0 0 0 0 2.044 0h32.711c12.267 0 20.444 8.177 20.444 20.444s-8.177 20.444-20.444 20.444zM636.502 406.223h32.711c2.044 0 4.089 0 6.133 2.044-4.088-26.577-16.356-49.067-34.755-67.467-22.489-22.489-53.155-36.8-85.867-36.8-34.755 0-65.423 14.312-85.867 36.8-22.489 22.489-36.8 53.155-36.8 85.867 0 34.755 14.312 65.423 36.8 85.867 22.489 22.489 53.155 36.8 85.867 36.8 34.755 0 65.423-14.312 85.867-36.8 18.4-18.4 30.667-40.889 34.755-67.467-2.044 0-4.088 2.044-6.133 2.044h-32.711c-12.267 0-20.444-8.177-20.444-20.444 0-10.222 8.177-20.444 20.444-20.444z" horiz-adv-x="1069" />
<glyph unicode="&#xe618;" d="M945.925 730.579h-209.595v83.838c0 35.631-27.247 62.878-62.878 62.878h-251.514c-35.631 0-62.878-27.247-62.878-62.878v-83.838h-209.596c-46.111 0-83.838-37.727-83.838-83.838v-586.867c0-46.111 37.727-83.838 83.838-83.838h796.462c46.111 0 83.838 37.727 83.838 83.838v586.867c0 46.111-37.727 83.838-83.838 83.838zM400.978 814.417c0 12.575 8.384 20.96 20.96 20.96h251.514c12.575 0 20.96-8.384 20.96-20.96v-83.838h-293.433v83.838zM862.087 688.661c0 0 0 0 0 0v-60.781c0-113.181-96.414-213.787-232.651-243.131v10.48c0 33.535-27.247 60.782-60.781 60.782h-41.919c-33.535 0-60.781-27.247-60.781-60.782v-10.48c-136.237 29.344-232.651 127.852-232.651 243.131v62.878h628.786zM591.709 395.227v-83.838c0-12.575-10.48-23.056-23.056-23.056h-41.919c-12.575 0-23.056 10.48-23.056 23.056v83.838c0 12.575 10.48 23.056 23.056 23.056h41.919c12.575 0 23.056-10.48 23.056-23.056zM987.845 59.875c0-23.056-18.864-41.919-41.919-41.919h-796.462c-23.056 0-41.919 18.864-41.919 41.919v586.867c0 23.056 18.864 41.919 41.919 41.919h41.918v-62.878c0-138.333 115.278-255.706 274.57-285.050v-29.344c0-33.535 27.247-60.782 60.782-60.782h41.919c33.535 0 60.782 27.247 60.782 60.781v29.344c159.292 31.44 274.57 146.717 274.57 285.050v60.782c0 0 0 2.096 0 2.096h41.919c23.056 0 41.918-18.864 41.918-41.919v-586.867z" horiz-adv-x="1095" />
<glyph unicode="&#xe619;" d="M94.36 21.633c-10.876 0-19.692 8.817-19.692 19.692s8.817 19.692 19.692 19.692h790.327c10.876 0 19.692-8.817 19.692-19.692s-8.817-19.692-19.692-19.692h-790.327zM35.085-67.878c-10.876 0-19.692 8.817-19.692 19.692s8.817 19.692 19.692 19.692h908.876c10.876 0 19.692-8.817 19.692-19.692s-8.817-19.692-19.692-19.692h-908.876zM186.681 351.628c0 21.387 1.25 50.59 3.508 85.552 0.977 15.135 2.125 31.048 3.407 47.472 1.519 19.453 3.147 38.612 4.775 56.644 0.57 6.309 1.098 12.025 1.573 17.044 0.284 3.004 0.487 5.114 0.593 6.195l-19.599-17.773h99.544l-19.593 17.712c0.11-1.086 0.32-3.203 0.614-6.218 0.491-5.037 1.039-10.772 1.63-17.101 1.687-18.088 3.374-37.294 4.948-56.778 1.305-16.158 2.476-31.812 3.477-46.709 2.372-35.296 3.687-64.686 3.687-86.039 0-21.34-1.327-50.852-3.719-86.358-0.994-14.755-2.153-30.256-3.444-46.256-1.574-19.504-3.261-38.741-4.948-56.864-0.59-6.341-1.138-12.089-1.63-17.138-0.294-3.022-0.505-5.145-0.614-6.234l19.593 17.717h-99.544l19.601-17.793c-0.106 1.095-0.309 3.227-0.593 6.262-0.474 5.069-1.003 10.838-1.573 17.201-1.628 18.185-3.257 37.474-4.776 57.015-1.224 15.746-2.326 31.003-3.274 45.531-2.341 35.862-3.641 65.583-3.641 86.917zM147.296 351.628c0-22.374 1.333-52.837 3.725-89.482 0.96-14.701 2.073-30.118 3.309-46.019 1.532-19.705 3.173-39.145 4.814-57.474 0.575-6.417 1.108-12.239 1.587-17.359 0.288-3.079 0.494-5.235 0.605-6.389 0.978-10.093 9.46-17.793 19.601-17.793h99.544c10.111 0 18.579 7.657 19.593 17.717 0.116 1.152 0.329 3.3 0.628 6.368 0.497 5.103 1.050 10.905 1.645 17.304 1.701 18.275 3.402 37.67 4.99 57.346 1.305 16.164 2.477 31.837 3.483 46.776 2.447 36.314 3.808 66.596 3.808 89.006 0 22.417-1.35 52.579-3.776 88.68-1.014 15.084-2.197 30.913-3.516 47.239-1.588 19.657-3.289 39.023-4.99 57.263-0.596 6.386-1.149 12.177-1.645 17.268-0.299 3.062-0.512 5.205-0.628 6.354-1.016 10.058-9.483 17.712-19.593 17.712h-99.544c-10.132 0-18.611-7.689-19.599-17.773-0.112-1.144-0.318-3.279-0.606-6.329-0.479-5.072-1.013-10.842-1.588-17.208-1.641-18.181-3.283-37.496-4.815-57.119-1.296-16.591-2.455-32.678-3.445-48-2.308-35.736-3.59-65.683-3.59-88.090zM444.74 351.628c0 21.387 1.25 50.59 3.508 85.552 0.977 15.135 2.125 31.048 3.407 47.472 1.519 19.453 3.147 38.612 4.775 56.644 0.57 6.309 1.098 12.025 1.573 17.044 0.284 3.004 0.487 5.114 0.593 6.195l-19.599-17.773h99.544l-19.593 17.712c0.11-1.086 0.32-3.203 0.614-6.218 0.491-5.037 1.039-10.772 1.63-17.101 1.687-18.088 3.374-37.294 4.948-56.778 1.305-16.158 2.476-31.812 3.477-46.709 2.372-35.296 3.687-64.686 3.687-86.039 0-21.34-1.327-50.852-3.719-86.358-0.994-14.755-2.153-30.256-3.444-46.256-1.574-19.504-3.261-38.741-4.948-56.864-0.59-6.341-1.138-12.089-1.63-17.138-0.294-3.022-0.505-5.145-0.614-6.234l19.593 17.717h-99.544l19.601-17.793c-0.106 1.095-0.309 3.227-0.593 6.262-0.474 5.069-1.003 10.838-1.573 17.201-1.628 18.185-3.257 37.474-4.776 57.015-1.224 15.746-2.326 31.003-3.274 45.531-2.341 35.862-3.641 65.583-3.641 86.917zM405.356 351.628c0-22.374 1.333-52.837 3.725-89.482 0.96-14.701 2.073-30.118 3.309-46.019 1.532-19.705 3.173-39.145 4.814-57.474 0.575-6.417 1.108-12.239 1.587-17.359 0.288-3.079 0.494-5.235 0.605-6.389 0.978-10.093 9.46-17.793 19.601-17.793h99.544c10.111 0 18.579 7.657 19.593 17.717 0.116 1.152 0.329 3.3 0.628 6.368 0.497 5.103 1.050 10.905 1.645 17.304 1.701 18.275 3.402 37.67 4.99 57.346 1.305 16.164 2.477 31.837 3.483 46.776 2.447 36.314 3.808 66.596 3.808 89.006 0 22.417-1.35 52.579-3.776 88.68-1.014 15.084-2.197 30.913-3.516 47.239-1.588 19.657-3.289 39.023-4.99 57.263-0.596 6.386-1.149 12.177-1.645 17.268-0.299 3.062-0.512 5.205-0.628 6.354-1.016 10.058-9.483 17.712-19.593 17.712h-99.544c-10.132 0-18.611-7.689-19.599-17.773-0.112-1.144-0.318-3.279-0.606-6.329-0.479-5.072-1.013-10.842-1.588-17.208-1.641-18.181-3.283-37.496-4.815-57.119-1.296-16.591-2.455-32.678-3.445-48-2.308-35.736-3.59-65.683-3.59-88.090zM711.777 351.628c0 21.387 1.25 50.59 3.508 85.552 0.977 15.135 2.125 31.048 3.407 47.472 1.519 19.453 3.147 38.612 4.775 56.644 0.57 6.309 1.098 12.025 1.573 17.044 0.284 3.004 0.487 5.114 0.593 6.195l-19.599-17.773h99.544l-19.593 17.712c0.11-1.086 0.32-3.203 0.614-6.218 0.491-5.037 1.039-10.772 1.63-17.101 1.687-18.088 3.374-37.294 4.948-56.778 1.305-16.158 2.476-31.812 3.477-46.709 2.372-35.296 3.687-64.686 3.687-86.039 0-21.34-1.327-50.852-3.719-86.358-0.994-14.755-2.153-30.256-3.444-46.256-1.574-19.504-3.261-38.741-4.948-56.864-0.59-6.341-1.138-12.089-1.63-17.138-0.294-3.022-0.505-5.145-0.614-6.234l19.593 17.717h-99.544l19.601-17.793c-0.106 1.095-0.309 3.227-0.593 6.262-0.474 5.069-1.003 10.838-1.573 17.201-1.628 18.185-3.257 37.474-4.776 57.015-1.224 15.746-2.326 31.003-3.274 45.531-2.341 35.862-3.641 65.583-3.641 86.917zM672.392 351.628c0-22.374 1.333-52.837 3.725-89.482 0.96-14.701 2.073-30.118 3.309-46.019 1.532-19.705 3.173-39.145 4.814-57.474 0.575-6.417 1.108-12.239 1.587-17.359 0.288-3.079 0.494-5.235 0.605-6.389 0.978-10.093 9.46-17.793 19.601-17.793h99.544c10.111 0 18.579 7.657 19.593 17.717 0.116 1.152 0.329 3.3 0.628 6.368 0.497 5.103 1.050 10.905 1.645 17.304 1.701 18.275 3.402 37.67 4.99 57.346 1.305 16.164 2.477 31.837 3.483 46.776 2.447 36.314 3.808 66.596 3.808 89.006 0 22.417-1.35 52.579-3.776 88.68-1.014 15.084-2.197 30.913-3.516 47.239-1.588 19.657-3.289 39.023-4.99 57.263-0.596 6.386-1.149 12.177-1.645 17.268-0.299 3.062-0.512 5.205-0.628 6.354-1.016 10.058-9.483 17.712-19.593 17.712h-99.544c-10.132 0-18.611-7.689-19.599-17.773-0.112-1.144-0.318-3.279-0.606-6.329-0.479-5.072-1.013-10.842-1.588-17.208-1.641-18.181-3.283-37.496-4.815-57.119-1.296-16.591-2.455-32.678-3.445-48-2.308-35.736-3.59-65.683-3.59-88.090zM75.71 662.842c-6.056-0.032-10.456 0.483-12.728 1.22 1.295-0.42 3.875-2.485 5.209-7.493 1.329-4.989 0.134-8.036-0.761-9.029 1.608 1.783 5.164 4.435 10.423 7.441l380.111 217.207c22.313 12.751 60.807 12.884 83.405 0.212l379.198-212.632c5.332-2.99 8.954-5.644 10.616-7.451-0.844 0.918-2.041 3.855-0.823 8.786 1.246 5.041 3.827 7.177 5.145 7.624-2.245-0.76-6.631-1.325-12.689-1.358l-847.108-4.527zM75.921 623.458l847.108 4.527c52.951 0.283 62.844 40.318 16.802 66.135l-379.198 212.632c-34.656 19.433-87.878 19.248-122.208-0.369l-380.111-217.207c-45.799-26.171-35.189-66 17.608-65.718v0z" horiz-adv-x="985" />
<glyph unicode="&#xe61a;" d="M9.453 448c0 13.528 4.51 22.546 13.528 31.564l491.49 450.91c18.036 18.036 49.6 18.036 67.636 0s18.036-45.090 0-63.128l-459.928-423.854 459.928-423.854c18.036-18.036 18.036-45.090 0-63.128s-49.6-18.036-67.636 0l-491.49 450.91c-9.018 18.036-13.528 31.564-13.528 40.582v0z" horiz-adv-x="605" />
<glyph unicode="&#xe61b;" d="M595.635 448c0 13.528-4.51 22.546-13.528 31.564l-491.49 450.91c-18.036 18.036-49.6 18.036-67.636 0s-18.036-45.090 0-63.128l459.928-423.854-459.928-423.854c-18.036-18.036-18.036-45.090 0-63.128s49.6-18.036 67.636 0l491.49 450.91c9.018 18.036 13.528 31.564 13.528 40.582v0z" horiz-adv-x="605" />
<glyph unicode="&#xe61c;" d="M658.525 786.861c15.641 0 26.066-5.214 36.492-15.641l521.327-568.245c20.853-20.853 20.853-57.345 0-78.198s-52.131-20.853-72.988 0l-490.046 531.752-490.046-531.752c-20.853-20.853-52.131-20.853-72.988 0s-20.853 57.345 0 78.198l521.327 568.245c20.853 10.427 31.278 15.641 46.919 15.641v0z" horiz-adv-x="1285" />
<glyph unicode="&#xe61d;" d="M674.475 109.139c-15.641 0-26.066 5.214-36.492 15.641l-521.327 568.245c-20.853 20.853-20.853 57.345 0 78.198s52.131 20.853 72.988 0l490.046-531.751 490.046 531.751c20.853 20.853 52.131 20.853 72.988 0s20.853-57.345 0-78.198l-521.327-568.245c-20.853-10.427-31.278-15.641-46.919-15.641v0z" horiz-adv-x="1349" />
<glyph unicode="&#xe61e;" d="M559.020 171.52l-326.127-230.358 115.053 386.023-316.611 243.654 397.234 8.217 130.451 380.945 130.451-380.945 397.234-8.217-316.611-243.654 115.053-386.023z" horiz-adv-x="1126" />
<glyph unicode="&#xe61f;" d="M897.714 512.286h-321.428v321.428c0 38.572-25.714 64.286-64.286 64.286s-64.286-25.714-64.286-64.286v-321.428h-321.428c-38.572 0-64.286-25.714-64.286-64.286s25.714-64.286 64.286-64.286h321.428v-321.428c0-38.572 25.714-64.286 64.286-64.286s64.286 25.714 64.286 64.286v321.428h321.428c38.572 0 64.286 25.714 64.286 64.286s-25.714 64.286-64.286 64.286z" />
<glyph unicode="&#xe620;" d="M924.082 517.244h-830.922c-41.547 0-69.245-27.697-69.245-69.244s27.697-69.245 69.245-69.245h830.922c41.547 0 69.244 27.697 69.244 69.245s-27.697 69.244-69.244 69.244z" />
<glyph unicode="&#xe621;" d="M232.639 408.893l289.094-286.782 525.623 521.422c0.612 0.6-131.407 130.355-131.407 130.355l-394.219-391.066-157.688 156.427-131.407-130.355z" horiz-adv-x="1280" />
<glyph unicode="&#xe622;" d="M449.629 775.273h703.174c33.287 0 60.272 27.473 60.272 61.364s-26.985 61.364-60.272 61.364h-703.174c-33.287 0-60.272-27.473-60.272-61.364s26.985-61.364 60.272-61.364zM148.346 386.636h1004.457c33.287 0 60.272 27.473 60.272 61.364s-26.985 61.364-60.272 61.364h-1004.457c-33.287 0-60.272-27.473-60.272-61.364s26.985-61.364 60.272-61.364zM449.629-2h703.174c33.287 0 60.272 27.473 60.272 61.364s-26.985 61.364-60.272 61.364h-703.174c-33.287 0-60.272-27.473-60.272-61.364s26.985-61.364 60.272-61.364z" horiz-adv-x="1306" />
<glyph unicode="&#xe623;" d="M520.881 362.36l-307.637-307.637c-23.227-23.227-61.229-22.886-84.877 0.761s-23.99 61.65-0.761 84.878l307.637 307.637-307.637 307.637c-23.227 23.227-22.886 61.229 0.761 84.877s61.65 23.99 84.877 0.761l307.637-307.637 307.637 307.637c23.227 23.227 61.229 22.887 84.878-0.761s23.99-61.65 0.761-84.877l-307.637-307.637 307.637-307.637c23.227-23.227 22.886-61.229-0.761-84.878s-61.65-23.99-84.877-0.761l-307.637 307.637z" />
<glyph unicode="&#xe624;" d="M958.592 481.604l-404.444 404.647c-11.339 11.294-26.072 16.938-40.878 16.938s-29.539-5.644-40.878-16.938l-404.444-404.647c-11.050-11.048-16.9-25.825-16.9-40.869 0-7.449 1.445-14.964 4.405-22.126 8.956-21.598 29.972-35.681 53.372-35.681h57.778v-346.84c0-31.924 25.855-57.806 57.778-57.806h173.333v289.033h231.112v-289.033h173.333c31.922 0 57.778 25.883 57.778 57.806v346.84h57.778c23.4 0 44.417 14.083 53.372 35.681 2.962 7.161 4.405 14.676 4.405 22.126 0 15.044-5.85 29.821-16.9 40.869z" />
<glyph unicode="&#xe625;" d="M1002.99 213.626c-37.461 0-67.802 29.966-67.802 66.965s30.341 66.965 67.802 66.965c37.461 0 67.802-29.966 67.802-66.965s-30.341-66.965-67.802-66.965v0zM663.974 452.185c-139.147 0-238.248 19.708-297.641 42.148 26.966 129.039 67.079 180.442 81.91 197.555 23.124 26.633 77.056 53.267 215.731 53.267s192.607-26.633 215.731-53.267c14.831-17.112 54.944-68.515 81.843-197.555-59.393-22.438-158.496-42.148-297.574-42.148v0zM324.977 213.626c-37.461 0-67.802 29.966-67.802 66.965s30.341 66.965 67.802 66.965c37.461 0 67.802-29.966 67.802-66.965s-30.341-66.965-67.802-66.965v0zM1104.691 548.447h-15.51c-3.305 13.309-6.611 26.032-9.747 38.002-5.339 19.755-52.715 126.814-92.804 173.018-53.479 61.607-156.028 90.318-322.649 90.318-166.706 0-269.171-28.71-322.734-90.318-40.087-46.205-87.464-153.264-92.719-173.018-3.221-11.97-6.526-24.693-9.831-38.002h-15.425c-84.073 0-101.703-45.535-101.703-83.706 0-16.909 12.713-31.138 29.663-33.231l61.192-7.534c-13.307-75.418-23.052-159.459-23.052-243.834v-100.447c0-18.499 15.17-33.482 33.901-33.482h67.802c18.729 0 33.901 14.983 33.901 33.482v33.482h678.013v-33.482c0-18.499 15.17-33.482 33.901-33.482h67.802c18.729 0 33.901 14.983 33.901 33.482v100.447c0 84.375-9.831 168.415-23.052 243.834l61.106 7.534c17.035 2.092 29.749 16.323 29.749 33.231 0 38.17-17.712 83.706-101.703 83.706v0z" horiz-adv-x="1365" />
<glyph unicode="&#xe626;" d="M317.186 708.902h604.34c37.364 0 64.272-34.858 53.827-69.73l-105.358-351.748c-6.968-23.264-28.901-39.262-53.827-39.262h-462.574c-26.262 0-49.005 17.722-54.719 42.638l-117.673 512.724h-76.549c-30.963 0-56.063 24.398-56.063 54.496s25.1 54.496 56.063 54.496h121.578c26.262 0 49.005-17.722 54.719-42.638l36.235-160.976zM421.805-21.708c51.309 0 92.903 41.594 92.903 92.903s-41.594 92.903-92.903 92.903c-51.309 0-92.903-41.594-92.903-92.903s41.594-92.903 92.903-92.903zM758.178-21.708c51.309 0 92.903 41.594 92.903 92.903s-41.594 92.903-92.903 92.903c-51.309 0-92.903-41.594-92.903-92.903s41.594-92.903 92.903-92.903z" />
<glyph unicode="&#xe627;" d="M679.439 614.154v229.821c0 19.916-16.206 36.024-36.195 36.024h-259.917c-20.168 0-36.195-16.129-36.195-36.024v-229.821h-229.821c-19.916 0-36.024-16.206-36.024-36.195v-259.917c0-20.167 16.129-36.195 36.024-36.195h229.821v-229.821c0-19.916 16.206-36.024 36.195-36.024h259.917c20.168 0 36.195 16.129 36.195 36.024v229.821h229.821c19.916 0 36.024 16.206 36.024 36.195v259.917c0 20.168-16.129 36.195-36.024 36.195h-229.821z" />
<glyph unicode="&#xe628;" d="M672.469 88.193v160.698c0 23.845-18.953 43.178-42.333 43.178s-42.333-19.33-42.333-43.178v-160.698h84.665zM503.138 88.193v160.698c0 23.845-18.953 43.178-42.333 43.178s-42.333-19.33-42.333-43.178v-160.698h84.665zM333.808 88.193v160.698c0 23.845-18.952 43.178-42.333 43.178s-42.333-19.33-42.333-43.178v-160.698h84.665zM153.337 88.193v230.276h-43.043c-23.379 0-42.333 19.33-42.333 43.178s18.952 43.178 42.333 43.178h876.295c23.379 0 42.333-19.33 42.333-43.178s-18.952-43.178-42.333-43.178h-43.043v-230.276h43.043c23.379 0 42.333-19.33 42.333-43.178s-18.952-43.178-42.333-43.178h-876.295c-23.379 0-42.333 19.33-42.333 43.178s18.952 43.178 42.333 43.178h43.043zM841.799 88.193v160.698c0 23.845-18.952 43.178-42.333 43.178s-42.333-19.33-42.333-43.178v-160.698h84.665zM587.804 775.46v75.523c0 23.845-18.952 43.178-42.333 43.178s-42.333-19.33-42.333-43.178v-76.383c-102.458-20.564-183.702-110.736-204.322-225.855h-35.562c-23.379 0-42.333-19.33-42.333-43.178s18.952-43.178 42.333-43.178h564.435c23.379 0 42.333 19.33 42.333 43.178s-18.953 43.178-42.333 43.178h-31.043c-20.922 116.808-104.258 207.93-208.842 226.714v0z" horiz-adv-x="1095" />
<glyph unicode="&#xe629;" d="M83.714 662.273c-16.698 7.657-16.671 19.233 0.393 25.989l466.009 184.518c16.914 6.697 44.378 5.812 60.444-1.566l417.035-191.505c16.468-7.562 16.401-20.115-0.020-27.975l-423.137-202.545c-16.479-7.888-43.518-8.159-59.929-0.815l-300.013 134.282c-16.618 7.438-30.090-1.182-30.090-19.521v-345.643c0-18.219 8.196-45.231 18.398-60.471l34.647-51.754c10.162-15.178 18.398-42.374 18.398-60.912v-96.381h-228.761v107.437c0 18.429 8.623 45.258 19.358 60.058l36.455 50.259c10.691 14.74 19.358 41.582 19.358 59.602v381.771c0 18.177-13.723 39.204-30.234 46.775l-18.314 8.397zM321.918 458.222c0 18.246 13.497 26.7 29.863 19.015l174.87-82.094c33.188-15.58 86.944-15.607 120.187 0l174.87 82.094c16.493 7.743 29.863-0.951 29.863-19.015v-212.386c0-18.246-14.719-33.037-33.132-33.037h-463.39c-18.298 0-33.132 14.971-33.132 33.037v212.386z" horiz-adv-x="1095" />
<glyph unicode="&#xe62a;" d="M780.362 114.379h-605.172v201.724h-100.863v-201.724c0-55.726 45.135-100.863 100.863-100.863h605.172c55.726 0 100.863 45.135 100.863 100.863v201.724h-100.863v-201.724zM780.362 529.466c0-13.113-5.107-26.035-14.751-35.68l-252.156-252.156c-9.518-9.457-22.315-14.751-35.68-14.751s-26.224 5.295-35.68 14.751l-252.156 252.156c-9.645 9.645-14.751 22.567-14.751 35.68 0 6.493 1.26 13.049 3.846 19.29 7.817 18.849 26.162 31.141 46.585 31.141h126.078v252.156c0 27.863 22.567 50.431 50.431 50.431h151.293c27.863 0 50.431-22.567 50.431-50.431v-252.156h126.077c20.362 0 38.768-12.293 46.585-31.141 2.585-6.241 3.846-12.797 3.846-19.29v0z" horiz-adv-x="953" />
<glyph unicode="&#xe62b;" d="M277.264 500.381c100.642 0 182.011 82.2 182.011 183.334s-81.369 183.334-182.011 183.334c-100.642 0-182.011-82.2-182.011-183.334s81.369-183.334 182.011-183.334v0zM277.264 605.143c-42.544 0-77.249 35.060-77.249 78.572s34.705 78.572 77.249 78.572c42.544 0 77.249-35.060 77.249-78.572s-34.705-78.572-77.249-78.572zM784.671 28.952c100.642 0 182.011 82.2 182.011 183.334s-81.369 183.334-182.011 183.334c-100.642 0-182.011-82.2-182.011-183.334s81.369-183.334 182.011-183.334zM784.671 133.714c-42.544 0-77.249 35.060-77.249 78.572s34.705 78.572 77.249 78.572c42.544 0 77.249-35.060 77.249-78.572s-34.705-78.572-77.249-78.572zM233.74 56.479l666.98 699.701c20.959 21.986 20.125 56.801-1.862 77.759s-56.801 20.125-77.759-1.862l-666.98-699.701c-20.959-21.986-20.125-56.801 1.862-77.759s56.801-20.125 77.759 1.862z" horiz-adv-x="1062" />
<glyph unicode="&#xe62c;" d="M643.507 178.059c-30.758 30.758-68.361 17.455-101.272 50.29-14.841 14.918-21.762 33.911-21.762 57.518 0 33.219 18.147 69.36 43.523 94.736 24.991 24.991 59.671 43.523 94.89 43.523 22.3 0 42.524-6.921 57.364-21.762 35.449-35.449 19.532-70.514 50.29-101.272 92.275-92.275 220.615 132.723 220.615 148.486s-5.998 31.527-17.994 43.523c-92.275 92.275-197.315 110.269-105.040 202.544 30.758 30.758 65.823 14.918 101.272 50.29 14.918 14.918 21.762 35.142 21.762 57.365 0 35.218-18.532 69.899-43.523 94.89-25.299 25.376-61.517 43.523-94.736 43.523-23.607 0-42.6-6.844-57.518-21.762-32.835-32.835-19.532-70.514-50.29-101.272-92.275-92.275-110.269 12.765-202.544 105.040-12.073 11.996-27.836 17.994-43.523 17.994-15.764 0-31.527-5.998-43.523-17.994l-430.618-430.618c-11.996-11.996-17.994-28.144-17.994-43.523 0-15.764 5.998-31.45 17.994-43.523l430.618-430.618c11.996-11.996 27.759-17.994 43.523-17.994 15.687 0 240.762 128.34 148.486 220.615z" horiz-adv-x="987" />
<glyph unicode="&#xe62d;" d="M912.577 718c32.633 0 59.063-30.223 59.063-67.5v-540c0-37.277-26.43-67.5-59.063-67.5h-826.875c-32.631 0-59.063 30.223-59.063 67.5v675.001c0 37.277 26.431 67.5 59.063 67.5h295.313c22.37 0 42.82-14.445 52.861-37.319l42.672-97.681h436.028zM568.849 262.375h138.555c36.298 0 65.722 22.666 65.722 50.625s-29.425 50.625-65.722 50.625h-138.555c-36.298 0-65.723-22.666-65.723-50.625s29.425-50.625 65.723-50.625z" horiz-adv-x="1028" />
<glyph unicode="&#xe62e;" d="M393.752 567.279c0 93.914-54.756 250.436-54.756 250.436-2.566 7.983-7.822 15.652-15.644 15.652s-13.814-7.67-15.644-15.652l-15.644-234.784c-1.22-9.626-7.822-15.652-23.467-15.652s-22.246 5.635-23.467 15.652c-1.119 15.574-23.467 250.436-23.467 250.436-1.142 8.139-7.822 15.652-15.644 15.652s-14.502-7.513-15.644-15.652c0 0-22.348-234.862-23.467-250.436-1.22-10.017-7.822-15.652-23.467-15.652s-22.246 6.026-23.467 15.652l-15.644 234.784c-1.83 7.983-7.822 15.652-15.644 15.652s-13.079-7.67-15.644-15.652c0 0-54.756-156.523-54.756-250.436 0-57.913 69.055-129.444 125.156-156.523l-31.289-406.959c0-34.592 28.019-62.609 62.578-62.609h62.578c34.559 0 62.578 28.018 62.578 62.609l-31.289 406.959c56.101 27.078 125.156 98.609 125.156 156.523v0zM769.219 880.324v-876.527c0-34.592-28.019-62.609-62.578-62.609h-62.578c-34.559 0-62.578 28.018-62.578 62.609l31.289 313.045c0 0-125.156 93.914-125.156 219.132s93.867 406.959 219.022 406.959c31.289 0 62.578-31.305 62.578-62.609v0z" horiz-adv-x="785" />
<glyph unicode="&#xe62f;" d="M853.037 232.91c-42.576 0-77.078 33.729-77.078 75.373s34.503 75.373 77.078 75.373c42.566 0 77.078-33.729 77.078-75.373s-34.512-75.373-77.078-75.373v0zM47.112 655.086v94.216c0 41.644 34.512 75.373 77.078 75.373h825.195c42.566 0 77.078-33.729 77.078-75.373v-94.216h-979.353zM47.112 542.027v-395.706c0-41.644 34.512-75.373 77.078-75.373h825.195c42.566 0 77.078 33.729 77.078 75.373v395.706h-979.353z" horiz-adv-x="1061" />
<glyph unicode="&#xe630;" d="M512-14.222c-106.889 0-208.145 36.082-290.117 102.389l-65-65.036c-5.489-5.511-12.928-8.465-20.438-8.465-3.178 0-6.283 0.513-9.389 1.567-10.4 3.575-17.911 12.79-19.283 23.739l-28.889 231.112c-0.144 1.199-0.217 2.391-0.217 3.582 0 7.605 3.034 14.972 8.45 20.424 5.489 5.453 12.856 8.465 20.438 8.465 1.156 0 2.383-0.072 3.611-0.224l231.112-28.889c10.906-1.365 20.15-8.855 23.689-19.291 1.084-3.069 1.589-6.232 1.589-9.374 0-7.533-2.962-14.914-8.45-20.424l-54.889-54.875c59.656-44.85 131.806-69.145 207.784-69.145 191.172 0 346.667 155.516 346.667 346.667s-155.495 346.667-346.667 346.667c-92.588 0-179.689-36.053-245.122-101.53-65.506-65.477-101.544-152.533-101.544-245.137h-115.555c0 123.472 48.1 239.546 135.344 326.849 87.317 87.302 203.377 135.373 326.878 135.373 254.873 0 462.222-207.35 462.222-462.222s-207.35-462.222-462.222-462.222v0zM569.778 635.778v-178.295l98.656-98.627c11.267-11.281 16.9-26.079 16.9-40.856 0-14.783-5.633-29.575-16.9-40.856-11.339-11.281-26.072-16.922-40.878-16.922s-29.539 5.641-40.878 16.922l-115.555 115.555c-10.834 10.834-16.9 25.531-16.9 40.856v202.223c0 31.908 25.855 57.778 57.778 57.778s57.778-25.87 57.778-57.778v0z" />
<glyph unicode="&#xe631;" d="M475.34 646.096c-109.241 0-198.096-88.854-198.096-198.096s88.854-198.096 198.096-198.096c109.241 0 198.096 88.854 198.096 198.096s-88.854 198.096-198.096 198.096v0zM475.34 910.222c91.165 0 165.080-73.914 165.080-165.080 0-5.819-0.285-11.552-0.907-17.205 27.733 21.13 62.4 33.713 99.955 33.713 91.165 0 165.080-73.914 165.080-165.080 0-65.367-37.968-121.828-93.064-148.571 55.095-26.738 93.064-83.242 93.064-148.571 0-91.161-73.914-165.080-165.080-165.080-37.555 0-72.222 12.587-99.955 33.717 0.623-5.654 0.907-11.386 0.907-17.21 0-91.161-73.914-165.080-165.080-165.080s-165.080 73.918-165.080 165.080c0 5.823 0.289 11.556 0.908 17.21-27.774-21.13-62.396-33.717-99.955-33.717-91.165 0-165.080 73.918-165.080 165.080 0 65.33 37.968 121.833 93.064 148.571-55.095 26.743-93.064 83.204-93.064 148.571 0 91.165 73.914 165.080 165.080 165.080 37.56 0 72.181-12.583 99.955-33.713-0.619 5.654-0.908 11.386-0.908 17.205 0 91.165 73.914 165.080 165.080 165.080v0z" horiz-adv-x="948" />
<glyph unicode="&#xe632;" d="M938.508 16h-816.717c-59.668 0-108.103 48.47-108.103 108.261v448.093c0 59.929 48.341 108.261 107.974 108.261h191.103v132.923c0 36.72 29.741 66.461 66.461 66.461h301.846c36.72 0 66.461-29.741 66.461-66.461v-132.923h191.103c59.922 0 107.974-48.47 107.974-108.261v-448.093c0-59.929-48.399-108.261-108.103-108.261zM478.979 682h110.844c29.038 0 52.578 24.177 52.578 54s-23.54 54-52.578 54h-110.844c-29.038 0-52.578-24.177-52.578-54s23.54-54 52.578-54z" horiz-adv-x="1060" />
<glyph unicode="&#xe633;" d="M957.156 514.276h-116.679v116.679h-93.867v-116.679h-116.622v-93.867h116.622v-116.679h93.867v116.679h116.679v93.867zM521.159 372.964c-27.079 19.172-78.848 65.82-78.848 93.241 0 32.142 9.216 47.9 57.515 85.675 49.55 38.798 84.651 93.241 84.651 156.501 0 75.378-33.564 148.821-96.597 173.113h95.004l67.072 48.412h-299.691c-134.315 0-260.722-101.774-260.722-219.591 0-120.491 91.591-217.771 228.238-217.771 9.5 0 18.716 0.228 27.762 0.853-8.875-16.953-15.246-36.124-15.246-55.922 0-33.508 18.034-60.644 40.789-82.83-17.18 0-33.849-0.512-51.883-0.512-166.4 0-294.514-105.927-294.514-215.836 0-108.203 140.402-175.9 306.802-175.9 189.668 0 294.457 107.577 294.457 215.836 0 86.812-25.6 138.752-104.789 194.731v0zM361.131 523.15c-77.198 2.276-150.585 86.357-163.897 187.676-13.369 101.433 38.457 178.972 115.655 176.697 77.141-2.332 150.528-83.627 163.84-185.003s-38.4-181.703-115.598-179.371v0zM330.866 10.24c-115.029 0-198.087 72.761-198.087 160.256 0 85.732 103.083 157.070 218.055 155.819 26.852-0.284 51.883-4.608 74.581-11.947 62.407-43.463 107.179-67.925 119.808-117.419 2.389-10.069 3.698-20.366 3.698-30.891 0-87.495-56.32-155.819-218.055-155.819v0z" horiz-adv-x="967" />
<glyph unicode="&#xe634;" d="M1120.512-39.488h-240.576v351.36c0 91.968-37.632 154.752-120.384 154.752-63.296 0-98.496-42.368-114.88-83.2-6.144-14.656-5.184-35.072-5.184-55.488v-367.424h-238.336c0 0 3.072 622.4 0 678.976h238.336v-106.56c14.080 46.592 90.24 113.088 211.776 113.088 150.784 0 269.248-97.664 269.248-307.968v-377.536zM160.128 724.416h-1.536c-76.8 0-126.592 51.904-126.592 117.696 0 67.072 51.264 117.888 129.6 117.888 78.272 0 126.4-50.688 127.936-117.696 0-65.792-49.664-117.888-129.408-117.888v0zM59.456 639.488h212.16v-678.976h-212.16v678.976z" horiz-adv-x="1152" />
<glyph unicode="&#xe635;" d="M112.951 233.306v16.581l416.834 118.718c3.217 14.924 4.958 30.89 4.958 47.855 0 100.138-114.659 161.044-114.659 161.044 44.993 41.41 66.587 98.334 66.587 155.944s-46.79 106.212-59.392 117.019c-12.594 10.8-59.392 48.078-136.776 50.685-77.392 2.607-109.79-1.275-152.979-9.282-43.196-8.007-134.979-32.408-134.979-32.408l34.196-106.212 71.986 16.2-50.392-536.473 54.615 0.328zM409.989 408.282c-7.905-59.408-52.898-73.811-112.117-65.346-43.096 6.152-111.752 21.629-111.752 21.629l12.594 130.133c0 0 68.313 1.654 109.783 0 44.993-1.805 109.762-24.243 101.492-86.416zM360.693 713.123c0-105.008-79.189-109.685-154.776-104.285l19.797 181.691c95.385 0 134.979-28.669 134.979-77.406zM533.588 972.8c0 0 5.207-43.32 0-84.906-5.636-45.005-12.15-79.715-12.15-79.715 5.207-3.466 69.427-25.992 69.427-25.992s16.465 26.366 28.54 81.828c11.619 53.336 11.619 108.785 11.619 108.785h-97.436zM144.171 231.156v-276.74l546.020 180.177v252.075l-546.020-155.512zM280.076 202.488c13.956 4.142 24.412 5.373 31.371 3.695 5.481-1.344 10.122-3.948 13.921-7.812 4.793-4.817 7.965-10.976 9.519-18.477 2.11-10.188 1.202-20.143-2.722-29.864-3.453-8.452-8.678-15.217-15.676-20.294s-17.474-9.687-31.43-13.829l-28.805-8.549-0.539-49.716-28.718-8.523 1.525 138.067 51.555 15.3zM414.91 158.812l-27.075-8.035-0.639-54.112-28.718-8.523 1.525 138.067 53.458 15.865c14.532 4.313 25.283 5.899 32.252 4.759 12-2.083 19.438-10.066 22.313-23.949 2.11-10.188 1.308-19.547-2.404-28.076s-10.151-15.788-19.317-21.776l-1.712-1.043 27.634-50.089-29.064-8.626-24.775 46.481-3.477-0.943zM595.263 283.729c12.72-6.742 20.877-18.79 24.471-36.143 2.179-10.524 2.556-21.286 1.131-32.286s-4.51-21.155-9.254-30.465c-9.972-19.537-26.462-32.72-49.471-39.549-16.262-4.826-30.193-4.653-41.793 0.52-14.855 6.703-24.351 20.046-28.489 40.031-3.408 16.458-2.438 32.611 2.912 48.459 4.36 12.643 11.3 23.393 20.821 32.249s21.115 15.313 34.782 19.369c17.416 5.169 32.379 4.44 44.892-2.185zM256.508 130.964l24.653 7.316c6.228 1.848 10.879 3.555 13.952 5.121s5.514 3.449 7.323 5.649c4.598 5.583 6.12 12.125 4.567 19.627-1.217 5.878-4.197 9.628-8.941 11.251-3.497 1.22-10.003 0.418-19.518-2.406l-21.539-6.392-0.497-40.166zM388.004 172.574l25.691 7.624c5.824 1.729 10.25 3.339 13.277 4.832s5.491 3.264 7.393 5.314c5.048 5.479 6.795 11.969 5.242 19.47-1.148 5.542-3.787 8.977-7.919 10.306s-10.378 0.753-18.74-1.729l-24.48-7.265-0.464-38.552zM590.22 238.025c-2.168 10.468-6.539 17.831-13.113 22.089s-14.706 4.95-24.394 2.074c-11.591-3.44-20.266-10.471-26.024-21.093-3.57-6.407-5.882-13.867-6.935-22.379s-0.733-16.855 0.959-25.028c2.214-10.692 6.701-18.244 13.46-22.655s15.012-5.171 24.757-2.278c11.072 3.286 19.441 10.167 25.107 20.642 3.881 7.272 6.272 15.676 7.174 25.213 0.811 8.5 0.538 16.025-0.818 22.574l-0.174 0.84z" horiz-adv-x="693" />
<glyph unicode="&#xe636;" d="M512 253.536c107.399 0 194.464 87.065 194.464 194.464s-87.065 194.464-194.464 194.464c-107.401 0-194.464-87.066-194.464-194.464s87.066-194.464 194.464-194.464v0zM512 318.358c-71.6 0-129.642 58.043-129.642 129.642s58.043 129.642 129.642 129.642c71.6 0 129.642-58.043 129.642-129.642s-58.043-129.642-129.642-129.642v0z" />
<glyph unicode="&#xe637;" d="M502.691-48.485c274.201 0 496.485 222.284 496.485 496.485s-222.284 496.485-496.485 496.485c-274.201 0-496.485-222.284-496.485-496.485s222.284-496.485 496.485-496.485v0zM502.691-17.455c-257.063 0-465.455 208.391-465.455 465.455s208.391 465.455 465.455 465.455c257.063 0 465.455-208.391 465.455-465.455s-208.391-465.455-465.455-465.455v0zM277.666 435.025v0c-10.988 13.152-9.233 32.721 3.918 43.708s32.721 9.233 43.708-3.918l125.399-150.097-46.115 1.681 277.025 286.354c11.916 12.317 31.559 12.642 43.877 0.727s12.642-31.559 0.727-43.877l-277.025-286.354c-12.819-13.25-34.295-12.468-46.115 1.681l-125.399 150.097z" />
<glyph unicode="&#xe638;" d="M420.907 144.95c211.727 0 383.075 174.472 383.075 389.343s-171.348 389.343-383.075 389.343c-211.727 0-383.075-174.472-383.075-389.343s171.348-389.343 383.075-389.343v0zM420.907 223.496c-168.026 0-304.529 138.992-304.529 310.797s136.503 310.797 304.529 310.797c168.026 0 304.529-138.992 304.529-310.797s-136.503-310.797-304.529-310.797zM780.325 166.926l171.901-175.035c15.198-15.475 40.063-15.699 55.538-0.502s15.699 40.063 0.502 55.537l-171.901 175.035c-15.198 15.475-40.063 15.699-55.538 0.502s-15.699-40.063-0.502-55.538z" horiz-adv-x="1071" />
<glyph unicode="&#xe639;" d="M640.192 641.182c0 73.657-59.783 135.795-75.882 149.613-16.091 13.808-75.882 61.471-174.754 64.802-98.881 3.333-140.275-1.629-195.456-11.867-55.189-10.237-172.458-41.434-172.458-41.434l43.689-135.795 91.974 20.713-64.383-685.895 144.867 0.871 2.296 27.626c124.174-59.848 213.853-60.718 298.929-33.092 85.076 27.617 162.596 111.163 162.596 239.183 0 128.031-146.496 205.899-146.496 205.899 57.486 52.944 85.076 125.722 85.076 199.379zM542.217 225.447c-10.099-75.955-67.586-94.369-143.249-83.546-55.062 7.866-142.782 27.654-142.782 27.654l16.091 166.378c0 0 87.281 2.116 140.267 0 57.486-2.308 140.239-30.996 129.673-110.485zM479.233 615.195c0-134.256-101.177-140.235-197.752-133.332l25.294 232.298c121.871 0 172.458-36.655 172.458-98.966zM700.136 947.2h124.489c0 0 0-70.894-14.845-139.085-15.428-70.911-36.465-104.62-36.465-104.62s-82.052 28.8-88.704 33.231c0 0 8.323 44.377 15.523 101.918 6.653 53.171 0 108.556 0 108.556z" horiz-adv-x="846" />
<glyph unicode="&#xe63a;" d="M608.997 178.272h67.702v-50.777h-67.702v-60.404c0-4.031-3.254-7.299-7.275-7.299h-36.227c-4.018 0-7.275 3.232-7.275 7.299v60.404h-67.702v50.777h67.702v60.404c0 4.031 3.254 7.299 7.275 7.299h36.227c4.018 0 7.275-3.232 7.275-7.299v-60.404zM599.866 388.010c-29.89 82.562-121.126 131.059-121.126 131.059 51.202 47.157 75.777 111.979 75.777 177.585s-53.247 120.951-67.588 133.258c-7.166 6.149-24.063 19.837-50.177 32.358v0c-26.113 12.521-61.443 23.876-105.475 25.36-88.072 2.969-124.942-1.452-174.091-10.57-49.157-9.118-153.606-36.905-153.606-36.905l38.915-120.951 81.92 18.448-57.346-610.919 129.032 0.775 2.045 24.606c59.17-28.518 109.546-42.001 155.205-44.607-3.958 16.871-6.051 34.46-6.051 52.538 0 31.759 6.461 62.008 18.14 89.506-8.271 0.307-16.884 1.126-25.779 2.398-49.043 7.006-127.174 24.631-127.174 24.631l14.332 148.191c0 0 77.74 1.884 124.934 0 42.008-1.686 99.164-19.189 113.139-64.519 33.014 18.435 71.057 28.94 111.555 28.94 7.906 0 15.719-0.4 23.419-1.182v0zM607.908 969.22h110.882c0 0 0-63.144-13.222-123.881-13.741-63.159-32.478-93.184-32.478-93.184s-73.082 25.652-79.008 29.599c0 0 7.413 39.527 13.826 90.777 5.926 47.358 0 96.689 0 96.689zM411.152 673.507c0-119.581-90.117-124.906-176.136-118.757l22.529 206.905c108.548 0 153.606-32.648 153.606-88.148zM583.608-47.62c110.735 0 200.503 89.768 200.503 200.503s-89.768 200.503-200.503 200.503c-110.735 0-200.503-89.768-200.503-200.503s89.768-200.503 200.503-200.503z" horiz-adv-x="788" />
<glyph unicode="&#xe63b;" d="M512 877.297c-249.895 0-450.63-200.735-450.63-450.63s200.735-450.63 450.63-450.63 450.63 200.735 450.63 450.63-200.735 450.63-450.63 450.63zM512 836.331c102.416 0 196.639-38.918 270.377-102.416l-591.963-559.189c-53.257 69.642-86.029 155.672-86.029 251.944-2.048 227.363 182.3 409.664 407.615 409.664zM512 17.003c-116.755 0-221.218 49.161-297.006 126.995l596.060 561.238c67.594-73.74 110.61-172.059 110.61-278.571 0-225.315-184.349-409.664-409.664-409.664z" />
<glyph unicode="&#xe63c;" d="M562.162 185.548c-131.166 0-237.662 107.914-237.662 241.119s106.494 241.119 237.662 241.119c9.226 0 18.656-0.615 28.605-1.815l2.587 21.437-17.517 12.624c-22.761-31.584-35.267-69.478-35.267-109.171 0-102.552 82.168-185.787 183.626-185.787 39.373 0 76.817 12.687 108.177 35.824l-12.82 17.376-21.446-2.52c1.136-9.668 1.715-19.414 1.715-29.087 0-133.233-106.443-241.119-237.662-241.119v0zM562.162 142.363c155.201 0 280.845 127.348 280.845 284.305 0 11.373-0.679 22.801-2.012 34.126-1.933 16.462-20.927 24.697-34.264 14.856-24.039-17.735-52.53-27.389-82.537-27.389-77.482 0-140.44 63.777-140.44 142.602 0 30.531 9.598 59.612 27.116 83.921 9.611 13.336 1.389 32.094-14.931 34.061-11.601 1.4-22.743 2.126-33.777 2.126-155.146 0-280.845-127.377-280.845-284.304s125.699-284.305 280.845-284.305v0zM562.243 842.326c-198.682 0-385.193-144.469-537.155-404.771-3.927-6.727-3.926-15.049 0.002-21.774 151.998-260.279 338.51-404.77 537.154-404.77s385.156 144.491 537.154 404.77c3.928 6.727 3.929 15.049 0.002 21.774-151.963 260.304-338.474 404.771-537.155 404.771v0zM562.243 799.141c180.599 0 354.859-134.979 499.861-383.36l0.002 21.774c-145.037-248.358-319.303-383.362-499.862-383.362s-354.825 135.004-499.862 383.362l0.002-21.774c145.001 248.38 319.263 383.36 499.859 383.36v0z" horiz-adv-x="1135" />
<glyph unicode="&#xe63d;" d="M512-64c-282.77 0-512 229.23-512 512s229.23 512 512 512c282.77 0 512-229.23 512-512s-229.23-512-512-512zM512-7.111c251.351 0 455.111 203.76 455.111 455.111s-203.76 455.111-455.111 455.111c-251.351 0-455.111-203.76-455.111-455.111s203.76-455.111 455.111-455.111zM455.111 459.899c0 31.129 25.251 56.364 56.889 56.364 31.419 0 56.889-25.655 56.889-56.364v-228.605c0-31.129-25.251-56.364-56.889-56.364-31.419 0-56.889 25.656-56.889 56.364v228.605zM512 618.667c31.419 0 56.889 25.47 56.889 56.889s-25.47 56.889-56.889 56.889c-31.419 0-56.889-25.47-56.889-56.889s25.47-56.889 56.889-56.889z" />
</font>
</defs>
</svg>
