<svg xmlns="http://www.w3.org/2000/svg" xmlns:xlink="http://www.w3.org/1999/xlink" preserveAspectRatio="xMidYMid" width="170" height="170" viewBox="0 0 170 170">
  <defs>
    <style>
      .cls-1 {
        fill: #d45a46;
        fill-rule: evenodd;
      }
    </style>
  </defs>
  <path d="M85.000,170.000 C38.056,170.000 0.000,131.944 0.000,85.000 C0.000,38.056 38.056,-0.000 85.000,-0.000 C131.944,-0.000 170.000,38.056 170.000,85.000 C170.000,131.944 131.944,170.000 85.000,170.000 ZM85.000,2.000 C39.160,2.000 2.000,39.160 2.000,85.000 C2.000,130.840 39.160,168.000 85.000,168.000 C130.840,168.000 168.000,130.840 168.000,85.000 C168.000,39.160 130.840,2.000 85.000,2.000 ZM114.000,131.000 L54.000,131.000 C50.686,131.000 48.000,128.313 48.000,125.000 L48.000,83.000 C48.000,79.686 50.686,77.000 54.000,77.000 L114.000,77.000 C117.314,77.000 120.000,79.686 120.000,83.000 L120.000,125.000 C120.000,128.313 117.314,131.000 114.000,131.000 ZM84.000,89.000 C79.029,89.000 75.000,93.029 75.000,98.000 C75.000,100.662 76.163,103.047 78.000,104.695 L78.000,113.000 C78.000,114.656 80.687,116.000 84.000,116.000 C87.314,116.000 90.000,114.656 90.000,113.000 L90.000,104.695 C91.837,103.047 93.000,100.662 93.000,98.000 C93.000,93.029 88.971,89.000 84.000,89.000 ZM99.000,62.000 C99.000,53.716 92.284,47.000 84.000,47.000 C75.716,47.000 69.000,53.716 69.000,62.000 L69.000,71.000 L57.000,71.000 L57.000,62.000 C57.000,47.088 69.088,35.000 84.000,35.000 C98.912,35.000 111.000,47.088 111.000,62.000 L111.000,71.000 L99.000,71.000 L99.000,62.000 Z" class="cls-1"/>
</svg>
