<svg xmlns="http://www.w3.org/2000/svg" xmlns:xlink="http://www.w3.org/1999/xlink" preserveAspectRatio="xMidYMid" width="170" height="170" viewBox="0 0 170 170">
  <defs>
    <style>
      .cls-1 {
        fill: #e86a9d;
        fill-rule: evenodd;
      }
    </style>
  </defs>
  <path d="M85.000,170.000 C38.056,170.000 0.000,131.944 0.000,85.000 C0.000,38.056 38.056,-0.000 85.000,-0.000 C131.944,-0.000 170.000,38.056 170.000,85.000 C170.000,131.944 131.944,170.000 85.000,170.000 ZM85.000,2.000 C39.160,2.000 2.000,39.160 2.000,85.000 C2.000,130.840 39.160,168.000 85.000,168.000 C130.840,168.000 168.000,130.840 168.000,85.000 C168.000,39.160 130.840,2.000 85.000,2.000 ZM68.111,81.818 L68.111,60.909 L110.333,60.909 L110.333,81.818 L68.111,81.818 ZM76.556,77.636 L101.889,77.636 L101.889,73.455 L76.556,73.455 L76.556,77.636 ZM106.111,65.091 L72.333,65.091 L72.333,69.273 L106.111,69.273 L106.111,65.091 ZM118.138,132.001 L56.085,132.001 C53.399,132.001 51.223,129.754 51.223,126.982 L51.223,115.273 L55.451,115.273 L55.451,127.818 L118.785,127.818 L118.785,44.182 L55.451,44.182 L55.451,52.545 L51.223,52.545 L51.223,45.018 C51.223,42.247 53.399,40.000 56.085,40.000 L118.138,40.000 C120.824,40.000 123.000,42.247 123.000,45.018 L123.000,126.982 C123.000,129.754 120.824,132.001 118.138,132.001 ZM59.667,60.909 L47.000,60.909 L47.000,56.727 L59.667,56.727 L59.667,60.909 ZM59.667,69.273 L47.000,69.273 L47.000,65.091 L59.667,65.091 L59.667,69.273 ZM59.667,77.636 L47.000,77.636 L47.000,73.455 L59.667,73.455 L59.667,77.636 ZM59.667,86.000 L47.000,86.000 L47.000,81.818 L59.667,81.818 L59.667,86.000 ZM59.667,94.364 L47.000,94.364 L47.000,90.182 L59.667,90.182 L59.667,94.364 ZM59.667,102.727 L47.000,102.727 L47.000,98.546 L59.667,98.546 L59.667,102.727 ZM59.667,111.091 L47.000,111.091 L47.000,106.909 L59.667,106.909 L59.667,111.091 Z" class="cls-1"/>
</svg>
