<svg xmlns="http://www.w3.org/2000/svg" xmlns:xlink="http://www.w3.org/1999/xlink" preserveAspectRatio="xMidYMid" width="170" height="170" viewBox="0 0 170 170">
  <defs>
    <style>
      .cls-1 {
        fill: #3bcaad;
        fill-rule: evenodd;
      }
    </style>
  </defs>
  <path d="M85.000,170.000 C38.056,170.000 0.000,131.944 0.000,85.000 C0.000,38.056 38.056,-0.000 85.000,-0.000 C131.944,-0.000 170.000,38.056 170.000,85.000 C170.000,131.944 131.944,170.000 85.000,170.000 ZM85.000,2.000 C39.160,2.000 2.000,39.160 2.000,85.000 C2.000,130.840 39.160,168.000 85.000,168.000 C130.840,168.000 168.000,130.840 168.000,85.000 C168.000,39.160 130.840,2.000 85.000,2.000 ZM127.790,83.020 L70.938,83.020 C67.452,83.020 64.549,80.424 63.889,76.979 L48.897,76.979 L48.897,70.978 L48.897,61.942 L44.146,61.942 C40.209,61.942 37.019,58.592 37.019,54.462 C37.019,50.331 40.209,46.981 44.146,46.981 L77.406,46.981 C81.342,46.981 84.534,50.331 84.534,54.462 C84.534,58.592 81.342,61.942 77.406,61.942 L54.836,61.942 L54.836,70.978 L65.214,70.978 C66.526,69.157 68.590,67.962 70.938,67.962 L127.790,67.962 C131.761,67.962 134.981,71.333 134.981,75.493 C134.981,79.650 131.761,83.020 127.790,83.020 ZM104.032,104.019 L76.877,104.019 C72.905,104.019 69.685,100.650 69.685,96.492 C69.685,92.333 72.905,88.963 76.877,88.963 L104.032,88.963 C108.004,88.963 111.224,92.333 111.224,96.492 C111.224,100.650 108.004,104.019 104.032,104.019 ZM47.180,109.962 L104.032,109.962 C108.004,109.962 111.224,113.333 111.224,117.492 C111.224,121.650 108.004,125.020 104.032,125.020 L47.180,125.020 C43.208,125.020 39.988,121.650 39.988,117.492 C39.988,113.333 43.208,109.962 47.180,109.962 ZM129.105,96.472 L121.664,103.988 L114.224,96.472 L121.664,88.955 L129.105,96.472 Z" class="cls-1"/>
</svg>
