<svg xmlns="http://www.w3.org/2000/svg" xmlns:xlink="http://www.w3.org/1999/xlink" preserveAspectRatio="xMidYMid" width="170" height="170" viewBox="0 0 170 170">
  <defs>
    <style>
      .cls-1 {
        fill: #f3a73b;
        fill-rule: evenodd;
      }
    </style>
  </defs>
  <path d="M85.000,170.000 C38.056,170.000 0.000,131.944 0.000,85.000 C0.000,38.056 38.056,0.000 85.000,0.000 C131.944,0.000 170.000,38.056 170.000,85.000 C170.000,131.944 131.944,170.000 85.000,170.000 ZM85.000,2.000 C39.160,2.000 2.000,39.160 2.000,85.000 C2.000,130.840 39.160,168.000 85.000,168.000 C130.840,168.000 168.000,130.840 168.000,85.000 C168.000,39.160 130.840,2.000 85.000,2.000 ZM127.778,132.000 L96.445,132.000 C93.561,132.000 91.222,129.661 91.222,126.778 L91.222,116.333 L59.889,116.333 L59.889,111.111 L59.889,108.499 L59.889,87.272 C48.055,85.390 39.000,75.169 39.000,62.805 C39.000,49.106 50.106,38.000 63.806,38.000 C77.505,38.000 88.611,49.106 88.611,62.805 C88.611,75.169 79.556,85.390 67.722,87.272 L67.722,108.499 L91.222,108.499 L91.222,95.445 C91.222,92.559 93.561,90.222 96.445,90.222 L127.778,90.222 C130.662,90.222 133.000,92.559 133.000,95.445 L133.000,126.778 C133.000,129.661 130.662,132.000 127.778,132.000 ZM78.167,66.722 L78.167,58.889 L49.445,58.889 L49.445,66.722 L78.167,66.722 ZM121.946,100.656 L110.774,111.910 L104.389,105.479 L99.602,110.302 L110.774,121.556 L115.562,116.733 L126.734,105.479 L121.946,100.656 Z" class="cls-1"/>
</svg>
