<svg xmlns="http://www.w3.org/2000/svg" xmlns:xlink="http://www.w3.org/1999/xlink" preserveAspectRatio="xMidYMid" width="170" height="170" viewBox="0 0 170 170">
  <defs>
    <style>
      .cls-1 {
        fill: #f4895a;
        fill-rule: evenodd;
      }
    </style>
  </defs>
  <path d="M85.000,170.000 C38.056,170.000 0.000,131.944 0.000,85.000 C0.000,38.056 38.056,0.000 85.000,0.000 C131.944,0.000 170.000,38.056 170.000,85.000 C170.000,131.944 131.944,170.000 85.000,170.000 ZM85.000,2.000 C39.160,2.000 2.000,39.160 2.000,85.000 C2.000,130.840 39.160,168.000 85.000,168.000 C130.840,168.000 168.000,130.840 168.000,85.000 C168.000,39.160 130.840,2.000 85.000,2.000 ZM127.000,91.167 C127.000,95.126 123.793,98.334 119.833,98.334 L116.250,98.334 C120.210,98.334 123.417,101.540 123.417,105.500 C123.417,109.460 120.210,112.667 116.250,112.667 L115.623,112.667 C117.111,113.976 118.042,115.910 118.042,118.041 C118.042,120.353 116.948,122.413 115.246,123.721 C114.028,124.652 111.214,125.459 109.048,125.817 C103.510,126.731 97.831,126.999 92.062,126.999 C74.270,126.999 56.212,123.148 41.000,116.250 L41.000,84.000 C56.373,75.365 66.801,61.981 71.404,47.326 L71.708,46.303 C72.515,43.257 75.311,41.000 78.625,41.000 C82.585,41.000 85.792,44.207 85.792,48.166 C85.792,48.902 85.683,49.619 85.468,50.297 L83.213,65.188 C83.213,67.660 85.218,69.667 87.692,69.667 L119.833,69.667 C123.793,69.667 127.000,72.874 127.000,76.833 C127.000,80.793 123.793,84.000 119.833,84.000 C123.793,84.000 127.000,87.208 127.000,91.167 Z" class="cls-1"/>
</svg>
