<svg xmlns="http://www.w3.org/2000/svg" xmlns:xlink="http://www.w3.org/1999/xlink" preserveAspectRatio="xMidYMid" width="150" height="150" viewBox="0 0 150 150">
  <defs>
    <style>

      .cls-2 {
        fill: #43bcd2;
      }
    </style>
  </defs>
  <path d="M75.000,150.000 C33.579,150.000 0.000,116.422 0.000,75.000 C0.000,33.579 33.579,0.000 75.000,0.000 C116.421,0.000 150.000,33.579 150.000,75.000 C150.000,116.422 116.421,150.000 75.000,150.000 ZM75.000,3.000 C35.236,3.000 3.000,35.236 3.000,75.000 C3.000,114.765 35.236,147.000 75.000,147.000 C114.764,147.000 147.000,114.765 147.000,75.000 C147.000,35.236 114.764,3.000 75.000,3.000 ZM124.000,104.000 C124.000,104.000 98.753,104.000 98.753,104.000 C99.713,103.053 100.616,102.049 101.465,101.000 C101.465,101.000 124.000,101.000 124.000,101.000 C124.000,101.000 124.000,58.000 124.000,58.000 C124.000,58.000 102.990,58.000 102.990,58.000 C102.043,56.646 101.006,55.359 99.885,54.149 C99.885,54.149 104.881,49.000 104.881,49.000 C104.881,49.000 123.000,49.000 123.000,49.000 C125.761,49.000 127.000,50.239 127.000,53.000 C127.000,53.000 127.000,101.000 127.000,101.000 C127.000,103.761 126.761,104.000 124.000,104.000 ZM97.830,49.851 C97.830,49.851 94.575,53.672 94.575,53.672 C101.584,59.641 106.007,68.529 106.007,78.453 C106.007,96.428 91.502,110.999 73.402,110.999 C55.302,110.999 40.628,96.428 40.628,78.453 C40.628,60.961 55.812,45.940 69.837,45.940 C69.837,45.940 69.837,38.733 69.837,38.733 C69.837,38.733 67.419,38.733 67.419,38.733 C67.419,38.733 65.150,38.808 65.150,36.780 C65.150,36.780 64.847,34.000 67.571,34.000 C67.571,34.000 79.296,34.000 79.296,34.000 C79.296,34.000 81.868,34.150 81.868,36.479 C81.868,36.479 81.717,38.808 79.296,38.808 C79.296,38.808 76.876,38.808 76.876,38.808 C76.876,38.808 76.873,45.930 76.873,45.930 C83.445,46.527 86.760,48.683 91.362,51.260 C91.362,51.260 94.955,47.691 94.955,47.691 C94.955,47.691 93.196,46.095 93.196,46.095 C93.196,46.095 95.485,43.616 95.485,43.616 C95.485,43.616 101.612,48.649 101.612,48.649 C101.612,48.649 99.267,50.978 99.267,50.978 C99.267,50.978 97.830,49.851 97.830,49.851 ZM91.548,60.596 C86.943,56.060 80.445,53.115 73.418,53.115 C66.293,53.115 59.848,56.063 55.208,60.711 C55.586,61.165 57.833,62.950 57.833,62.950 C57.833,62.950 55.925,65.510 55.925,65.510 C55.925,65.510 53.223,62.685 53.074,62.888 C50.228,66.766 48.087,72.230 47.849,77.347 C49.949,77.291 52.739,77.262 52.739,77.262 C52.739,77.262 52.694,79.657 52.694,79.657 C52.694,79.657 47.838,79.467 47.844,79.602 C48.064,84.927 49.935,89.806 52.961,93.766 C54.082,93.040 56.144,91.547 56.144,91.547 C56.144,91.547 57.962,93.497 57.962,93.497 C57.962,93.497 54.994,96.115 55.274,96.393 C56.018,97.129 56.808,97.820 57.640,98.460 C61.666,101.565 66.662,103.501 72.107,103.775 C72.087,101.993 72.208,98.849 72.208,98.849 C72.208,98.849 74.479,98.862 74.479,98.862 C74.479,98.862 74.345,103.791 74.524,103.784 C81.152,103.504 87.111,100.757 91.482,96.433 C91.889,96.030 88.576,93.607 88.576,93.607 C88.576,93.607 90.017,91.573 90.017,91.573 C90.017,91.573 93.527,94.153 93.735,93.883 C96.786,89.919 98.675,85.023 98.910,79.672 C98.920,79.447 93.880,79.691 93.880,79.691 C93.880,79.691 93.791,77.262 93.791,77.262 C93.791,77.262 97.864,77.267 98.900,77.199 C98.622,71.852 96.690,66.952 93.600,62.992 C93.415,62.755 90.190,65.316 90.190,65.316 C90.190,65.316 88.452,63.220 88.452,63.220 C88.452,63.220 90.731,61.133 91.548,60.596 ZM73.207,84.482 C71.138,84.482 69.613,82.968 69.613,80.914 C69.613,77.383 72.110,77.195 72.110,77.195 C72.110,72.552 72.110,56.837 72.110,56.837 C72.110,56.174 72.652,55.635 73.320,55.635 C73.988,55.635 74.531,56.174 74.531,56.837 C74.531,56.837 74.531,72.385 74.531,77.120 C74.531,77.120 76.951,77.458 76.951,80.914 C76.951,82.968 75.275,84.482 73.207,84.482 ZM43.653,58.000 C43.653,58.000 24.000,58.000 24.000,58.000 C24.000,58.000 24.000,101.000 24.000,101.000 C24.000,101.000 45.175,101.000 45.175,101.000 C46.024,102.049 46.927,103.053 47.887,104.000 C47.887,104.000 24.000,104.000 24.000,104.000 C21.239,104.000 21.000,103.761 21.000,101.000 C21.000,101.000 21.000,53.000 21.000,53.000 C21.000,50.239 22.239,49.000 25.000,49.000 C25.000,49.000 52.690,49.000 52.690,49.000 C49.168,51.443 46.105,54.493 43.653,58.000 ZM25.500,52.000 C24.672,52.000 24.000,52.672 24.000,53.500 C24.000,54.328 24.672,55.000 25.500,55.000 C26.328,55.000 27.000,54.328 27.000,53.500 C27.000,52.672 26.328,52.000 25.500,52.000 ZM30.500,52.000 C29.672,52.000 29.000,52.672 29.000,53.500 C29.000,54.328 29.672,55.000 30.500,55.000 C31.328,55.000 32.000,54.328 32.000,53.500 C32.000,52.672 31.328,52.000 30.500,52.000 ZM35.500,52.000 C34.672,52.000 34.000,52.672 34.000,53.500 C34.000,54.328 34.672,55.000 35.500,55.000 C36.328,55.000 37.000,54.328 37.000,53.500 C37.000,52.672 36.328,52.000 35.500,52.000 Z" id="path-1" class="cls-2" fill-rule="evenodd"/>
</svg>
