<svg xmlns="http://www.w3.org/2000/svg" xmlns:xlink="http://www.w3.org/1999/xlink" preserveAspectRatio="xMidYMid" width="150" height="150" viewBox="0 0 150 150">
  <defs>
    <style>

      .cls-2 {
        fill: #f68c37;
      }
    </style>
  </defs>
  <path d="M75.000,150.000 C33.579,150.000 0.000,116.422 0.000,75.000 C0.000,33.579 33.579,0.000 75.000,0.000 C116.421,0.000 150.000,33.579 150.000,75.000 C150.000,116.422 116.421,150.000 75.000,150.000 ZM75.000,3.000 C35.236,3.000 3.000,35.236 3.000,75.000 C3.000,114.765 35.236,147.000 75.000,147.000 C114.764,147.000 147.000,114.765 147.000,75.000 C147.000,35.236 114.764,3.000 75.000,3.000 ZM114.214,100.019 C114.214,100.019 97.656,115.365 97.656,115.365 C97.656,115.365 95.636,117.122 95.636,115.115 C95.636,115.115 95.636,106.248 95.636,106.248 C95.636,106.248 86.763,106.207 86.763,106.207 C86.763,106.207 82.220,104.614 80.453,101.102 C80.453,101.102 61.143,68.502 61.143,68.502 C61.143,68.502 58.114,65.700 56.600,65.700 C56.600,65.700 45.201,65.700 45.201,65.700 C45.201,65.700 39.957,64.502 39.957,60.991 C39.957,60.991 39.957,53.926 39.957,53.926 C39.957,53.926 40.657,50.796 44.948,50.796 C44.948,50.796 62.585,50.796 62.585,50.796 C62.585,50.796 65.021,52.249 67.261,54.441 C67.301,54.478 67.340,54.519 67.381,54.558 C69.652,56.816 87.716,87.858 87.716,87.858 C87.716,87.858 88.912,91.106 91.437,91.106 C91.437,91.106 95.547,91.490 95.547,91.490 C95.547,91.490 95.584,82.109 95.584,82.109 C95.584,82.109 96.471,79.599 98.743,81.607 C98.743,81.607 113.709,97.009 113.709,97.009 C113.709,97.009 116.233,99.014 114.214,100.019 ZM113.709,60.099 C113.709,60.099 98.743,75.501 98.743,75.501 C96.471,77.508 95.584,75.000 95.584,75.000 C95.584,75.000 95.547,65.618 95.547,65.618 C95.547,65.618 91.437,66.002 91.437,66.002 C88.912,66.002 87.716,69.251 87.716,69.251 C87.716,69.251 87.206,70.125 86.403,71.498 C86.403,71.498 78.023,60.107 78.023,60.107 C78.023,60.107 80.453,56.005 80.453,56.005 C82.220,52.495 86.763,50.900 86.763,50.900 C86.763,50.900 95.636,50.860 95.636,50.860 C95.636,50.860 95.636,41.992 95.636,41.992 C95.636,39.986 97.656,41.742 97.656,41.742 C97.656,41.742 114.214,57.089 114.214,57.089 C116.233,58.093 113.709,60.099 113.709,60.099 ZM45.201,91.408 C45.201,91.408 56.600,91.408 56.600,91.408 C58.114,91.408 61.143,88.605 61.143,88.605 C61.143,88.605 63.433,84.738 63.433,84.738 C63.433,84.738 71.872,95.818 71.872,95.818 C69.694,99.327 67.981,101.954 67.381,102.550 C67.340,102.590 67.301,102.629 67.261,102.667 C65.021,104.859 62.585,106.312 62.585,106.312 C62.585,106.312 44.948,106.312 44.948,106.312 C40.657,106.312 39.957,103.182 39.957,103.182 C39.957,103.182 39.957,96.116 39.957,96.116 C39.957,92.607 45.201,91.408 45.201,91.408 Z" id="path-1" class="cls-2" fill-rule="evenodd"/>
</svg>
