<svg xmlns="http://www.w3.org/2000/svg" xmlns:xlink="http://www.w3.org/1999/xlink" preserveAspectRatio="xMidYMid" width="150" height="150" viewBox="0 0 150 150">
  <defs>
    <style>

      .cls-2 {
        fill: #ebc631;
      }
    </style>
  </defs>
  <path d="M75.000,150.000 C33.579,150.000 0.000,116.422 0.000,75.000 C0.000,33.579 33.579,-0.000 75.000,-0.000 C116.421,-0.000 150.000,33.579 150.000,75.000 C150.000,116.422 116.421,150.000 75.000,150.000 ZM75.000,3.000 C35.236,3.000 3.000,35.236 3.000,75.000 C3.000,114.765 35.236,147.000 75.000,147.000 C114.764,147.000 147.000,114.765 147.000,75.000 C147.000,35.236 114.764,3.000 75.000,3.000 ZM95.082,85.108 C95.082,85.108 90.479,96.115 90.479,96.115 C90.479,96.115 62.362,96.115 62.362,96.115 C62.362,96.115 57.918,85.108 57.918,85.108 C50.669,79.796 46.000,71.447 46.000,62.060 C46.000,46.010 59.655,33.000 76.500,33.000 C93.345,33.000 107.000,46.010 107.000,62.060 C107.000,71.447 102.331,79.796 95.082,85.108 ZM93.000,61.469 C93.000,60.330 92.077,59.406 90.937,59.406 C90.937,59.406 88.013,59.406 88.013,59.406 C87.742,58.393 87.339,57.433 86.826,56.546 C86.826,56.546 88.896,54.479 88.896,54.479 C89.702,53.674 89.702,52.368 88.896,51.562 C88.896,51.562 87.438,50.104 87.438,50.104 C86.632,49.298 85.327,49.298 84.521,50.104 C84.521,50.104 82.454,52.174 82.454,52.174 C81.567,51.662 80.606,51.258 79.594,50.987 C79.594,50.987 79.594,48.063 79.594,48.063 C79.594,46.923 78.670,46.000 77.531,46.000 C77.531,46.000 75.469,46.000 75.469,46.000 C74.330,46.000 73.406,46.923 73.406,48.063 C73.406,48.063 73.406,50.991 73.406,50.991 C72.395,51.263 71.437,51.662 70.551,52.174 C70.551,52.174 68.479,50.104 68.479,50.104 C67.673,49.298 66.368,49.298 65.562,50.104 C65.562,50.104 64.104,51.562 64.104,51.562 C63.298,52.368 63.298,53.674 64.104,54.479 C64.104,54.479 66.174,56.551 66.174,56.551 C65.662,57.437 65.263,58.395 64.991,59.406 C64.991,59.406 62.063,59.406 62.063,59.406 C60.923,59.406 60.000,60.330 60.000,61.469 C60.000,61.469 60.000,63.532 60.000,63.532 C60.000,64.670 60.923,65.594 62.063,65.594 C62.063,65.594 64.987,65.594 64.987,65.594 C65.258,66.607 65.662,67.567 66.174,68.454 C66.174,68.454 64.103,70.521 64.103,70.521 C63.298,71.327 63.298,72.633 64.103,73.438 C64.103,73.438 65.562,74.897 65.562,74.897 C66.367,75.702 67.673,75.702 68.479,74.897 C68.479,74.897 70.546,72.826 70.546,72.826 C71.433,73.339 72.394,73.742 73.406,74.014 C73.406,74.014 73.406,76.938 73.406,76.938 C73.406,78.077 74.330,79.000 75.469,79.000 C75.469,79.000 77.531,79.000 77.531,79.000 C78.670,79.000 79.594,78.077 79.594,76.938 C79.594,76.938 79.594,74.009 79.594,74.009 C80.605,73.738 81.563,73.338 82.449,72.826 C82.449,72.826 84.521,74.897 84.521,74.897 C85.327,75.702 86.633,75.702 87.438,74.897 C87.438,74.897 88.897,73.438 88.897,73.438 C89.702,72.633 89.702,71.327 88.897,70.522 C88.897,70.522 86.826,68.449 86.826,68.449 C87.338,67.563 87.737,66.605 88.009,65.594 C88.009,65.594 90.937,65.594 90.937,65.594 C92.077,65.594 93.000,64.670 93.000,63.532 C93.000,63.532 93.000,61.469 93.000,61.469 ZM76.500,69.719 C72.513,69.719 69.281,66.487 69.281,62.500 C69.281,58.513 72.513,55.281 76.500,55.281 C80.487,55.281 83.719,58.513 83.719,62.500 C83.719,66.487 80.487,69.719 76.500,69.719 ZM76.500,59.406 C74.791,59.406 73.406,60.792 73.406,62.500 C73.406,64.209 74.791,65.594 76.500,65.594 C78.209,65.594 79.594,64.209 79.594,62.500 C79.594,60.792 78.209,59.406 76.500,59.406 ZM63.792,98.722 C63.792,98.722 89.208,98.722 89.208,98.722 C90.612,98.722 91.750,99.854 91.750,101.250 C91.750,101.250 91.750,103.778 91.750,103.778 C91.750,105.174 90.612,106.306 89.208,106.306 C89.208,106.306 63.792,106.306 63.792,106.306 C62.388,106.306 61.250,105.174 61.250,103.778 C61.250,103.778 61.250,101.250 61.250,101.250 C61.250,99.854 62.388,98.722 63.792,98.722 ZM63.792,108.833 C63.792,108.833 89.208,108.833 89.208,108.833 C90.612,108.833 91.750,109.965 91.750,111.361 C91.750,111.361 91.750,113.889 91.750,113.889 C91.750,115.285 90.612,116.417 89.208,116.417 C89.208,116.417 63.792,116.417 63.792,116.417 C62.388,116.417 61.250,115.285 61.250,113.889 C61.250,113.889 61.250,111.361 61.250,111.361 C61.250,109.965 62.388,108.833 63.792,108.833 ZM68.875,118.945 C68.875,118.945 84.125,118.945 84.125,118.945 C85.529,118.945 86.667,120.077 86.667,121.472 C86.667,122.868 85.529,124.000 84.125,124.000 C84.125,124.000 68.875,124.000 68.875,124.000 C67.471,124.000 66.333,122.868 66.333,121.472 C66.333,120.077 67.471,118.945 68.875,118.945 Z" id="path-1" class="cls-2" fill-rule="evenodd"/>
</svg>
