<svg xmlns="http://www.w3.org/2000/svg" xmlns:xlink="http://www.w3.org/1999/xlink" preserveAspectRatio="xMidYMid" width="150" height="150" viewBox="0 0 150 150">
  <defs>
    <style>

      .cls-2 {
        fill: #54cf5a;
      }
    </style>
  </defs>
  <path d="M75.000,150.000 C33.579,150.000 0.000,116.421 0.000,75.000 C0.000,33.579 33.579,0.000 75.000,0.000 C116.421,0.000 150.000,33.579 150.000,75.000 C150.000,116.421 116.421,150.000 75.000,150.000 ZM75.000,3.000 C35.236,3.000 3.000,35.236 3.000,75.000 C3.000,114.765 35.236,147.000 75.000,147.000 C114.764,147.000 147.000,114.765 147.000,75.000 C147.000,35.236 114.764,3.000 75.000,3.000 ZM123.408,53.776 C123.408,53.776 120.710,56.960 120.710,56.960 C126.519,61.934 130.186,69.340 130.186,77.611 C130.186,91.789 119.408,103.408 105.533,104.612 C107.081,102.497 108.403,100.210 109.463,97.781 C112.782,96.761 115.754,94.972 118.145,92.595 C118.483,92.258 115.737,90.239 115.737,90.239 C115.737,90.239 116.931,88.544 116.931,88.544 C116.931,88.544 119.840,90.695 120.013,90.469 C122.542,87.166 124.108,83.086 124.303,78.626 C124.311,78.440 120.133,78.642 120.133,78.642 C120.133,78.642 120.059,76.618 120.059,76.618 C120.059,76.618 123.436,76.623 124.294,76.566 C124.064,72.110 122.463,68.026 119.901,64.727 C119.747,64.529 117.074,66.663 117.074,66.663 C117.074,66.663 115.633,64.917 115.633,64.917 C115.633,64.917 117.523,63.177 118.200,62.730 C114.863,59.426 110.328,57.135 105.348,56.611 C105.348,56.611 108.763,53.092 108.763,53.092 C108.763,53.092 100.203,46.034 100.203,46.034 C100.203,46.034 100.203,44.511 100.203,44.511 C100.203,44.511 98.199,44.511 98.199,44.511 C98.199,44.511 96.318,44.574 96.318,42.883 C96.318,42.883 96.067,40.567 98.324,40.567 C98.324,40.567 108.044,40.567 108.044,40.567 C108.044,40.567 110.176,40.692 110.176,42.633 C110.176,42.633 110.051,44.574 108.044,44.574 C108.044,44.574 106.037,44.574 106.037,44.574 C106.037,44.574 106.036,50.509 106.036,50.509 C111.483,51.007 114.231,52.803 118.046,54.950 C118.046,54.950 121.025,51.976 121.025,51.976 C121.025,51.976 119.566,50.645 119.566,50.645 C119.566,50.645 121.464,48.580 121.464,48.580 C121.464,48.580 126.543,52.774 126.543,52.774 C126.543,52.774 124.599,54.715 124.599,54.715 C124.599,54.715 123.408,53.776 123.408,53.776 ZM104.093,59.598 C104.093,59.598 104.093,59.956 104.093,60.528 C103.701,60.059 103.300,59.597 102.885,59.149 C102.885,59.149 103.367,58.652 103.367,58.652 C103.783,58.774 104.093,59.143 104.093,59.598 ZM98.485,48.616 C98.485,48.616 104.612,53.649 104.612,53.649 C104.612,53.649 102.267,55.978 102.267,55.978 C102.267,55.978 100.830,54.851 100.830,54.851 C100.830,54.851 97.575,58.672 97.575,58.672 C104.584,64.641 109.007,73.528 109.007,83.453 C109.007,101.427 94.502,115.999 76.402,115.999 C58.302,115.999 43.628,101.427 43.628,83.453 C43.628,65.961 58.812,50.940 72.837,50.940 C72.837,50.940 72.837,43.733 72.837,43.733 C72.837,43.733 70.419,43.733 70.419,43.733 C70.419,43.733 68.150,43.808 68.150,41.779 C68.150,41.779 67.847,39.000 70.571,39.000 C70.571,39.000 82.296,39.000 82.296,39.000 C82.296,39.000 84.868,39.150 84.868,41.479 C84.868,41.479 84.717,43.808 82.296,43.808 C82.296,43.808 79.876,43.808 79.876,43.808 C79.876,43.808 79.873,50.930 79.873,50.930 C86.445,51.528 89.760,53.683 94.362,56.260 C94.362,56.260 97.955,52.691 97.955,52.691 C97.955,52.691 96.196,51.095 96.196,51.095 C96.196,51.095 98.485,48.616 98.485,48.616 ZM94.548,65.596 C89.943,61.060 83.445,58.115 76.418,58.115 C69.293,58.115 62.848,61.063 58.208,65.711 C58.586,66.165 60.833,67.951 60.833,67.951 C60.833,67.951 58.925,70.510 58.925,70.510 C58.925,70.510 56.223,67.685 56.074,67.888 C53.228,71.766 51.087,77.230 50.849,82.346 C52.949,82.291 55.739,82.262 55.739,82.262 C55.739,82.262 55.694,84.657 55.694,84.657 C55.694,84.657 50.838,84.467 50.844,84.602 C51.064,89.927 52.935,94.805 55.961,98.766 C57.082,98.039 59.144,96.547 59.144,96.547 C59.144,96.547 60.962,98.497 60.962,98.497 C60.962,98.497 57.994,101.116 58.274,101.393 C59.018,102.129 59.808,102.820 60.640,103.461 C64.666,106.565 69.662,108.501 75.106,108.774 C75.087,106.993 75.208,103.849 75.208,103.849 C75.208,103.849 77.479,103.863 77.479,103.863 C77.479,103.863 77.345,108.791 77.524,108.784 C84.152,108.504 90.111,105.757 94.482,101.434 C94.889,101.030 91.576,98.607 91.576,98.607 C91.576,98.607 93.017,96.573 93.017,96.573 C93.017,96.573 96.527,99.153 96.735,98.882 C99.786,94.919 101.675,90.023 101.910,84.672 C101.920,84.447 96.880,84.691 96.880,84.691 C96.880,84.691 96.791,82.262 96.791,82.262 C96.791,82.262 100.864,82.267 101.900,82.199 C101.622,76.852 99.690,71.952 96.600,67.993 C96.415,67.755 93.190,70.315 93.190,70.315 C93.190,70.315 91.452,68.221 91.452,68.221 C91.452,68.221 93.731,66.133 94.548,65.596 ZM76.207,89.482 C74.138,89.482 72.613,87.967 72.613,85.914 C72.613,82.383 75.110,82.195 75.110,82.195 C75.110,77.552 75.110,61.837 75.110,61.837 C75.110,61.173 75.652,60.635 76.320,60.635 C76.988,60.635 77.531,61.173 77.531,61.837 C77.531,61.837 77.531,77.385 77.531,82.120 C77.531,82.120 79.951,82.458 79.951,85.914 C79.951,87.967 78.275,89.482 76.207,89.482 ZM93.464,51.864 C93.591,51.815 93.717,51.766 93.845,51.719 C93.845,51.719 93.671,51.969 93.671,51.969 C93.603,51.932 93.532,51.901 93.464,51.864 ZM50.253,58.629 C49.854,59.043 49.466,59.466 49.087,59.899 C49.087,59.723 49.087,59.598 49.087,59.598 C49.087,59.044 49.536,58.596 50.090,58.596 C50.148,58.596 50.198,58.620 50.253,58.629 ZM52.357,56.612 C51.637,56.536 50.908,56.495 50.171,56.495 C44.265,56.495 38.922,58.952 35.076,62.826 C35.389,63.204 37.252,64.692 37.252,64.692 C37.252,64.692 35.671,66.825 35.671,66.825 C35.671,66.825 33.430,64.471 33.307,64.640 C30.948,67.872 29.174,72.425 28.976,76.689 C30.717,76.643 33.029,76.618 33.029,76.618 C33.029,76.618 32.992,78.615 32.992,78.615 C32.992,78.615 28.967,78.456 28.972,78.568 C29.154,83.006 30.705,87.071 33.214,90.372 C34.142,89.766 35.852,88.522 35.852,88.522 C35.852,88.522 37.359,90.147 37.359,90.147 C37.359,90.147 34.898,92.329 35.131,92.561 C35.748,93.174 36.402,93.750 37.092,94.284 C38.872,95.664 40.886,96.756 43.058,97.519 C44.125,100.020 45.475,102.370 47.057,104.543 C33.515,103.005 22.990,91.542 22.990,77.611 C22.990,63.034 35.577,50.516 47.203,50.516 C47.203,50.516 47.203,44.511 47.203,44.511 C47.203,44.511 45.199,44.511 45.199,44.511 C45.199,44.511 43.318,44.574 43.318,42.883 C43.318,42.883 43.067,40.567 45.324,40.567 C45.324,40.567 55.044,40.567 55.044,40.567 C55.044,40.567 57.176,40.692 57.176,42.633 C57.176,42.633 57.051,44.574 55.044,44.574 C55.044,44.574 53.037,44.574 53.037,44.574 C53.037,44.574 53.036,50.509 53.036,50.509 C55.493,50.733 57.390,51.232 59.094,51.898 C56.665,53.212 54.409,54.800 52.357,56.612 Z" id="path-1" class="cls-2" fill-rule="evenodd"/>
</svg>
