<svg xmlns="http://www.w3.org/2000/svg" xmlns:xlink="http://www.w3.org/1999/xlink" preserveAspectRatio="xMidYMid" width="150" height="150" viewBox="0 0 150 150">
  <defs>
    <style>

      .cls-2 {
        fill: #5981e4;
      }
    </style>
  </defs>
  <path d="M75.000,150.000 C33.579,150.000 0.000,116.422 0.000,75.000 C0.000,33.579 33.579,0.000 75.000,0.000 C116.421,0.000 150.000,33.579 150.000,75.000 C150.000,116.422 116.421,150.000 75.000,150.000 ZM75.000,3.000 C35.236,3.000 3.000,35.236 3.000,75.000 C3.000,114.765 35.236,147.000 75.000,147.000 C114.764,147.000 147.000,114.765 147.000,75.000 C147.000,35.236 114.764,3.000 75.000,3.000 ZM93.000,100.000 C93.000,100.000 121.000,100.000 121.000,100.000 C121.000,100.000 121.000,104.000 121.000,104.000 C121.000,104.000 93.000,104.000 93.000,104.000 C93.000,104.000 93.000,100.000 93.000,100.000 ZM93.000,88.000 C93.000,88.000 121.000,88.000 121.000,88.000 C121.000,88.000 121.000,92.000 121.000,92.000 C121.000,92.000 93.000,92.000 93.000,92.000 C93.000,92.000 93.000,88.000 93.000,88.000 ZM93.000,76.000 C93.000,76.000 121.000,76.000 121.000,76.000 C121.000,76.000 121.000,80.000 121.000,80.000 C121.000,80.000 93.000,80.000 93.000,80.000 C93.000,80.000 93.000,76.000 93.000,76.000 ZM27.000,55.000 C27.000,55.000 121.000,55.000 121.000,55.000 C121.000,55.000 121.000,68.000 121.000,68.000 C121.000,68.000 27.000,68.000 27.000,68.000 C27.000,68.000 27.000,55.000 27.000,55.000 ZM93.000,65.000 C93.000,65.000 118.000,65.000 118.000,65.000 C118.000,65.000 118.000,58.000 118.000,58.000 C118.000,58.000 93.000,58.000 93.000,58.000 C93.000,58.000 93.000,65.000 93.000,65.000 ZM65.000,65.000 C65.000,65.000 90.000,65.000 90.000,65.000 C90.000,65.000 90.000,58.000 90.000,58.000 C90.000,58.000 65.000,58.000 65.000,58.000 C65.000,58.000 65.000,65.000 65.000,65.000 ZM57.500,63.000 C57.500,63.000 60.000,60.000 60.000,60.000 C60.000,60.000 55.000,60.000 55.000,60.000 C55.000,60.000 57.500,63.000 57.500,63.000 ZM31.000,74.000 C33.209,74.000 35.000,75.791 35.000,78.000 C35.000,80.209 33.209,82.000 31.000,82.000 C28.791,82.000 27.000,80.209 27.000,78.000 C27.000,75.791 28.791,74.000 31.000,74.000 ZM31.000,86.000 C33.209,86.000 35.000,87.791 35.000,90.000 C35.000,92.209 33.209,94.000 31.000,94.000 C28.791,94.000 27.000,92.209 27.000,90.000 C27.000,87.791 28.791,86.000 31.000,86.000 ZM31.000,98.000 C33.209,98.000 35.000,99.791 35.000,102.000 C35.000,104.209 33.209,106.000 31.000,106.000 C28.791,106.000 27.000,104.209 27.000,102.000 C27.000,99.791 28.791,98.000 31.000,98.000 ZM62.000,80.000 C62.000,80.000 38.000,80.000 38.000,80.000 C38.000,80.000 38.000,76.000 38.000,76.000 C38.000,76.000 62.000,76.000 62.000,76.000 C62.000,76.000 62.000,80.000 62.000,80.000 ZM62.000,92.000 C62.000,92.000 38.000,92.000 38.000,92.000 C38.000,92.000 38.000,88.000 38.000,88.000 C38.000,88.000 62.000,88.000 62.000,88.000 C62.000,88.000 62.000,92.000 62.000,92.000 ZM62.000,104.000 C62.000,104.000 38.000,104.000 38.000,104.000 C38.000,104.000 38.000,100.000 38.000,100.000 C38.000,100.000 62.000,100.000 62.000,100.000 C62.000,100.000 62.000,104.000 62.000,104.000 ZM90.000,80.000 C90.000,80.000 65.000,80.000 65.000,80.000 C65.000,80.000 65.000,76.000 65.000,76.000 C65.000,76.000 90.000,76.000 90.000,76.000 C90.000,76.000 90.000,80.000 90.000,80.000 ZM90.000,92.000 C90.000,92.000 65.000,92.000 65.000,92.000 C65.000,92.000 65.000,88.000 65.000,88.000 C65.000,88.000 90.000,88.000 90.000,88.000 C90.000,88.000 90.000,92.000 90.000,92.000 ZM90.000,104.000 C90.000,104.000 65.000,104.000 65.000,104.000 C65.000,104.000 65.000,100.000 65.000,100.000 C65.000,100.000 90.000,100.000 90.000,100.000 C90.000,100.000 90.000,104.000 90.000,104.000 Z" id="path-1" class="cls-2" fill-rule="evenodd"/>
</svg>
