<svg xmlns="http://www.w3.org/2000/svg" xmlns:xlink="http://www.w3.org/1999/xlink" preserveAspectRatio="xMidYMid" width="150" height="150" viewBox="0 0 150 150">
  <defs>
    <style>

      .cls-2 {
        fill: #97c13d;
      }
    </style>
  </defs>
  <path d="M75.000,150.000 C33.579,150.000 0.000,116.422 0.000,75.000 C0.000,33.579 33.579,-0.000 75.000,-0.000 C116.421,-0.000 150.000,33.579 150.000,75.000 C150.000,116.422 116.421,150.000 75.000,150.000 ZM75.000,3.000 C35.236,3.000 3.000,35.236 3.000,75.000 C3.000,114.765 35.236,147.000 75.000,147.000 C114.764,147.000 147.000,114.765 147.000,75.000 C147.000,35.236 114.764,3.000 75.000,3.000 ZM115.803,103.989 C115.803,103.989 34.197,103.989 34.197,103.989 C30.777,103.989 28.004,101.261 28.004,97.898 C28.004,97.898 28.004,66.444 28.004,66.444 C28.004,63.080 45.584,42.987 45.584,42.987 C48.293,40.131 51.984,40.033 51.984,40.033 C51.984,40.033 98.220,40.011 98.220,40.011 C101.897,40.011 104.417,43.081 104.417,43.081 C104.417,43.081 121.996,63.080 121.996,66.444 C121.996,66.444 121.996,97.898 121.996,97.898 C121.996,101.261 119.223,103.989 115.803,103.989 ZM69.629,96.000 C69.629,96.000 75.500,93.257 75.500,93.257 C75.500,93.257 81.371,96.000 81.371,96.000 C81.371,96.000 80.566,89.590 80.566,89.590 C80.566,89.590 84.999,84.876 84.999,84.876 C84.999,84.876 78.631,83.657 78.631,83.657 C78.631,83.657 75.500,78.000 75.500,78.000 C75.500,78.000 72.369,83.657 72.369,83.657 C72.369,83.657 66.001,84.876 66.001,84.876 C66.001,84.876 70.434,89.590 70.434,89.590 C70.434,89.590 69.629,96.000 69.629,96.000 ZM101.320,46.982 C99.965,44.792 98.417,45.752 98.417,45.752 C98.417,45.752 51.873,45.752 51.873,45.752 C50.256,45.724 48.583,46.982 48.583,46.982 C48.583,46.982 33.907,65.944 33.907,65.944 C33.907,65.944 63.969,65.944 63.969,65.944 C63.969,65.944 67.066,65.444 67.066,68.870 C67.066,68.870 67.066,69.830 67.066,69.830 C67.066,69.830 67.066,72.876 70.162,72.876 C70.162,72.876 79.741,72.876 79.741,72.876 C79.741,72.876 82.838,72.495 82.838,69.830 C82.838,69.830 82.838,68.300 82.838,68.300 C82.838,68.300 83.032,65.944 85.935,65.944 C85.935,65.944 115.900,65.944 115.900,65.944 C115.900,65.944 101.320,46.982 101.320,46.982 ZM45.946,58.051 C45.946,58.051 103.891,58.051 103.891,58.051 C103.891,58.051 106.946,59.025 106.946,61.949 C106.946,61.949 42.987,61.909 42.987,61.909 C42.987,61.909 42.987,58.051 45.946,58.051 ZM53.589,50.017 C53.589,50.017 96.329,50.017 96.329,50.017 C96.329,50.017 98.995,50.947 98.995,53.993 C98.995,53.993 51.006,53.951 51.006,53.951 C51.006,53.951 51.006,50.017 53.589,50.017 Z" id="path-1" class="cls-2" fill-rule="evenodd"/>
</svg>
