<svg xmlns="http://www.w3.org/2000/svg" xmlns:xlink="http://www.w3.org/1999/xlink" preserveAspectRatio="xMidYMid" width="150" height="150" viewBox="0 0 150 150">
  <defs>
    <style>

      .cls-2 {
        fill: #3b9aea;
      }
    </style>
  </defs>
  <path d="M75.000,150.000 C33.579,150.000 -0.000,116.421 -0.000,75.000 C-0.000,33.579 33.579,0.000 75.000,0.000 C116.421,0.000 150.000,33.579 150.000,75.000 C150.000,116.421 116.421,150.000 75.000,150.000 ZM75.000,3.000 C35.235,3.000 3.000,35.236 3.000,75.000 C3.000,114.765 35.235,147.000 75.000,147.000 C114.765,147.000 147.000,114.765 147.000,75.000 C147.000,35.236 114.765,3.000 75.000,3.000 ZM99.000,94.000 C99.000,94.000 92.000,94.000 92.000,94.000 C92.000,94.000 92.000,101.008 92.000,101.008 C92.000,101.008 84.751,94.000 84.751,94.000 C84.751,94.000 46.000,94.000 46.000,94.000 C43.239,94.000 41.000,91.762 41.000,89.000 C41.000,89.000 41.000,54.000 41.000,54.000 C41.000,51.239 43.239,49.000 46.000,49.000 C46.000,49.000 99.000,49.000 99.000,49.000 C101.761,49.000 104.000,51.239 104.000,54.000 C104.000,54.000 104.000,89.000 104.000,89.000 C104.000,91.762 101.761,94.000 99.000,94.000 ZM83.399,70.502 C82.221,69.800 68.423,61.586 67.733,61.179 C66.871,60.671 66.000,61.317 66.000,62.186 C66.000,62.856 66.000,79.898 66.000,80.869 C66.000,81.827 66.963,82.291 67.697,81.870 C68.700,81.297 82.551,73.041 83.399,72.526 C84.159,72.064 84.172,70.964 83.399,70.502 ZM90.934,107.722 C90.934,107.722 90.934,105.475 90.934,105.475 C90.934,105.475 90.194,105.475 90.194,105.475 C90.194,105.475 89.500,105.498 89.500,104.866 C89.500,104.866 89.407,104.000 90.241,104.000 C90.241,104.000 93.829,104.000 93.829,104.000 C93.829,104.000 94.616,104.047 94.616,104.773 C94.616,104.773 94.569,105.498 93.829,105.498 C93.829,105.498 93.088,105.498 93.088,105.498 C93.088,105.498 93.087,107.718 93.087,107.718 C95.098,107.905 96.113,108.577 97.521,109.380 C97.521,109.380 98.620,108.268 98.620,108.268 C98.620,108.268 98.082,107.770 98.082,107.770 C98.082,107.770 98.782,106.997 98.782,106.997 C98.782,106.997 100.657,108.566 100.657,108.566 C100.657,108.566 99.940,109.292 99.940,109.292 C99.940,109.292 99.500,108.940 99.500,108.940 C99.500,108.940 98.504,110.132 98.504,110.132 C100.649,111.992 102.002,114.762 102.002,117.856 C102.002,123.458 97.564,128.000 92.025,128.000 C86.486,128.000 81.996,123.458 81.996,117.856 C81.996,112.404 86.643,107.722 90.934,107.722 ZM85.689,118.231 C85.689,118.231 84.203,118.171 84.204,118.213 C84.272,119.874 84.844,121.394 85.770,122.628 C86.113,122.402 86.744,121.936 86.744,121.936 C86.744,121.936 87.300,122.544 87.300,122.544 C87.300,122.544 86.392,123.361 86.478,123.447 C86.706,123.677 86.947,123.892 87.202,124.091 C88.434,125.059 89.963,125.663 91.629,125.748 C91.623,125.193 91.660,124.213 91.660,124.213 C91.660,124.213 92.355,124.217 92.355,124.217 C92.355,124.217 92.314,125.753 92.368,125.751 C94.397,125.664 96.220,124.808 97.557,123.460 C97.682,123.334 96.668,122.579 96.668,122.579 C96.668,122.579 97.109,121.945 97.109,121.945 C97.109,121.945 98.183,122.749 98.247,122.665 C99.181,121.429 99.759,119.903 99.830,118.235 C99.833,118.165 98.291,118.241 98.291,118.241 C98.291,118.241 98.264,117.484 98.264,117.484 C98.264,117.484 99.510,117.486 99.827,117.465 C99.742,115.798 99.151,114.271 98.206,113.037 C98.149,112.963 97.162,113.761 97.162,113.761 C97.162,113.761 96.630,113.108 96.630,113.108 C96.630,113.108 97.328,112.457 97.578,112.290 C96.168,110.876 94.180,109.958 92.030,109.958 C89.850,109.958 87.878,110.877 86.458,112.325 C86.573,112.467 87.261,113.023 87.261,113.023 C87.261,113.023 86.677,113.821 86.677,113.821 C86.677,113.821 85.850,112.941 85.805,113.004 C84.934,114.213 84.279,115.916 84.206,117.511 C84.849,117.493 85.702,117.484 85.702,117.484 C85.702,117.484 85.689,118.231 85.689,118.231 ZM91.630,117.463 C91.630,116.016 91.630,111.118 91.630,111.118 C91.630,110.911 91.795,110.744 92.000,110.744 C92.205,110.744 92.370,110.911 92.370,111.118 C92.370,111.118 92.370,115.964 92.370,117.440 C92.370,117.440 93.111,117.546 93.111,118.623 C93.111,119.262 92.598,119.735 91.965,119.735 C91.332,119.735 90.866,119.262 90.866,118.623 C90.866,117.522 91.630,117.463 91.630,117.463 Z" id="path-1" class="cls-2" fill-rule="evenodd"/>
</svg>
