<svg xmlns="http://www.w3.org/2000/svg" xmlns:xlink="http://www.w3.org/1999/xlink" preserveAspectRatio="xMidYMid" width="150" height="150" viewBox="0 0 150 150">
  <defs>
    <style>

      .cls-2 {
        fill: #eb6b56;
      }
    </style>
  </defs>
  <path d="M75.000,150.000 C33.579,150.000 0.000,116.422 0.000,75.000 C0.000,33.579 33.579,-0.000 75.000,-0.000 C116.421,-0.000 150.000,33.579 150.000,75.000 C150.000,116.422 116.421,150.000 75.000,150.000 ZM75.000,3.000 C35.236,3.000 3.000,35.236 3.000,75.000 C3.000,114.765 35.236,147.000 75.000,147.000 C114.764,147.000 147.000,114.765 147.000,75.000 C147.000,35.236 114.764,3.000 75.000,3.000 ZM125.250,98.000 C125.250,98.000 96.750,98.000 96.750,98.000 C94.127,98.000 92.000,95.874 92.000,93.250 C92.000,93.250 92.000,64.750 92.000,64.750 C92.000,62.127 94.127,60.000 96.750,60.000 C96.750,60.000 125.250,60.000 125.250,60.000 C127.873,60.000 130.000,62.127 130.000,64.750 C130.000,64.750 130.000,93.250 130.000,93.250 C130.000,95.874 127.873,98.000 125.250,98.000 ZM119.945,69.490 C119.945,69.490 109.783,79.726 109.783,79.726 C109.783,79.726 103.977,73.877 103.977,73.877 C103.977,73.877 99.621,78.264 99.621,78.264 C99.621,78.264 109.783,88.500 109.783,88.500 C109.783,88.500 114.138,84.113 114.138,84.113 C114.138,84.113 124.300,73.877 124.300,73.877 C124.300,73.877 119.945,69.490 119.945,69.490 ZM68.000,91.995 C68.000,91.995 56.005,79.500 56.005,79.500 C56.005,79.500 68.000,67.005 68.000,67.005 C68.000,67.005 68.000,73.000 68.000,73.000 C68.000,73.000 87.000,73.000 87.000,73.000 C87.000,73.000 87.000,86.000 87.000,86.000 C87.000,86.000 68.000,86.000 68.000,86.000 C68.000,86.000 68.000,91.995 68.000,91.995 ZM50.007,56.949 C50.620,56.949 51.118,57.445 51.118,58.058 C51.118,58.058 51.118,72.394 51.118,76.760 C51.118,76.760 53.340,77.072 53.340,80.258 C53.340,82.152 51.801,83.548 49.903,83.548 C48.005,83.548 46.605,82.152 46.605,80.258 C46.605,77.002 48.896,76.829 48.896,76.829 C48.896,72.548 48.896,58.058 48.896,58.058 C48.896,57.445 49.394,56.949 50.007,56.949 ZM78.312,68.000 C78.312,68.000 71.000,68.000 71.000,68.000 C71.000,68.000 71.000,62.010 71.000,62.010 C71.000,62.010 69.853,61.551 67.684,62.635 C67.684,62.635 66.737,61.524 66.737,61.524 C66.737,61.524 56.546,54.625 50.097,54.625 C43.558,54.625 37.643,57.344 33.384,61.629 C33.731,62.049 35.793,63.694 35.793,63.694 C35.793,63.694 34.042,66.054 34.042,66.054 C34.042,66.054 31.562,63.450 31.426,63.637 C28.814,67.213 26.849,72.251 26.630,76.969 C28.558,76.918 31.118,76.891 31.118,76.891 C31.118,76.891 31.077,79.100 31.077,79.100 C31.077,79.100 26.620,78.924 26.625,79.048 C26.828,83.959 28.544,88.457 31.322,92.108 C32.350,91.439 34.243,90.062 34.243,90.062 C34.243,90.062 35.911,91.861 35.911,91.861 C35.911,91.861 33.187,94.276 33.445,94.531 C34.128,95.210 34.853,95.846 35.616,96.438 C39.311,99.300 43.896,101.086 48.893,101.337 C48.875,99.695 48.986,96.796 48.986,96.796 C48.986,96.796 51.071,96.809 51.071,96.809 C51.071,96.809 50.948,101.353 51.112,101.346 C56.835,101.103 61.997,98.830 65.930,95.245 C68.744,96.494 71.000,96.990 71.000,96.990 C71.000,96.990 71.000,91.000 71.000,91.000 C71.000,91.000 77.030,91.000 77.030,91.000 C72.214,101.049 62.014,107.999 50.082,107.999 C33.470,107.999 20.003,94.563 20.003,77.990 C20.003,61.860 33.939,48.009 46.810,48.009 C46.810,48.009 46.810,41.364 46.810,41.364 C46.810,41.364 44.591,41.364 44.591,41.364 C44.591,41.364 42.509,41.433 42.509,39.563 C42.509,39.563 42.231,37.000 44.730,37.000 C44.730,37.000 55.492,37.000 55.492,37.000 C55.492,37.000 57.852,37.139 57.852,39.286 C57.852,39.286 57.713,41.433 55.492,41.433 C55.492,41.433 53.270,41.433 53.270,41.433 C53.270,41.433 53.268,48.001 53.268,48.001 C59.299,48.551 62.342,50.538 66.566,52.915 C66.566,52.915 69.864,49.624 69.864,49.624 C69.864,49.624 68.249,48.152 68.249,48.152 C68.249,48.152 70.349,45.866 70.349,45.866 C70.349,45.866 75.973,50.508 75.973,50.508 C75.973,50.508 73.821,52.655 73.821,52.655 C73.821,52.655 72.502,51.616 72.502,51.616 C72.502,51.616 69.515,55.139 69.515,55.139 C73.485,58.536 76.547,62.961 78.312,68.000 Z" id="path-1" class="cls-2" fill-rule="evenodd"/>
</svg>
