<svg xmlns="http://www.w3.org/2000/svg" xmlns:xlink="http://www.w3.org/1999/xlink" preserveAspectRatio="xMidYMid" width="170" height="170" viewBox="0 0 170 170">
  <defs>
    <style>
      .cls-1 {
        fill: #4e8de4;
        fill-rule: evenodd;
      }
    </style>
  </defs>
  <path d="M85.000,170.000 C38.056,170.000 -0.000,131.944 -0.000,85.000 C-0.000,38.056 38.056,-0.000 85.000,-0.000 C131.944,-0.000 170.000,38.056 170.000,85.000 C170.000,131.944 131.944,170.000 85.000,170.000 ZM85.000,2.000 C39.160,2.000 2.000,39.160 2.000,85.000 C2.000,130.840 39.160,168.000 85.000,168.000 C130.840,168.000 168.000,130.840 168.000,85.000 C168.000,39.160 130.840,2.000 85.000,2.000 ZM126.008,88.154 C126.008,111.264 107.589,129.998 84.604,129.998 C61.619,129.998 42.985,111.264 42.985,88.154 C42.985,65.664 62.267,46.351 80.077,46.351 L80.077,37.085 L77.007,37.085 C77.007,37.085 74.125,37.182 74.125,34.573 C74.125,34.573 73.741,31.000 77.199,31.000 L92.089,31.000 C92.089,31.000 95.355,31.193 95.355,34.187 C95.355,34.187 95.163,37.182 92.089,37.182 L89.015,37.182 L89.012,46.339 C97.358,47.107 101.567,49.878 107.411,53.191 L111.975,48.603 L109.740,46.550 L112.647,43.363 L120.428,49.835 L117.450,52.828 L115.625,51.379 L111.492,56.292 C120.392,63.967 126.008,75.394 126.008,88.154 ZM110.253,68.276 C110.018,67.971 105.922,71.262 105.922,71.262 L103.716,68.569 C103.716,68.569 106.610,65.885 107.648,65.195 C101.799,59.363 93.548,55.575 84.624,55.575 C75.576,55.575 67.392,59.366 61.499,65.342 C61.980,65.927 64.833,68.222 64.833,68.222 L62.410,71.512 C62.410,71.512 58.979,67.881 58.790,68.141 C55.176,73.127 52.457,80.153 52.155,86.731 C54.822,86.660 58.364,86.622 58.364,86.622 L58.307,89.702 C58.307,89.702 52.141,89.457 52.148,89.631 C52.428,96.478 54.803,102.750 58.647,107.841 C60.069,106.908 62.689,104.989 62.689,104.989 L64.997,107.496 C64.997,107.496 61.227,110.863 61.584,111.219 C62.529,112.166 63.532,113.053 64.588,113.878 C69.701,117.869 76.045,120.359 82.959,120.710 C82.934,118.419 83.087,114.377 83.087,114.377 L85.972,114.395 C85.972,114.395 85.802,120.731 86.029,120.722 C94.446,120.362 102.013,116.830 107.564,111.271 C108.081,110.753 103.874,107.638 103.874,107.638 L105.704,105.022 C105.704,105.022 110.160,108.340 110.425,107.992 C114.299,102.896 116.698,96.600 116.996,89.720 C117.009,89.432 110.608,89.746 110.608,89.746 L110.495,86.622 C110.495,86.622 115.668,86.629 116.984,86.541 C116.631,79.666 114.177,73.367 110.253,68.276 ZM84.356,95.906 C81.729,95.906 79.793,93.958 79.793,91.318 C79.793,86.778 82.963,86.537 82.963,86.537 C82.963,80.567 82.963,60.362 82.963,60.362 C82.963,59.508 83.651,58.817 84.500,58.817 C85.349,58.817 86.037,59.508 86.037,60.362 C86.037,60.362 86.037,80.352 86.037,86.440 C86.037,86.440 89.111,86.875 89.111,91.318 C89.111,93.958 86.982,95.906 84.356,95.906 Z" class="cls-1"/>
</svg>
