<svg xmlns="http://www.w3.org/2000/svg" xmlns:xlink="http://www.w3.org/1999/xlink" preserveAspectRatio="xMidYMid" width="170" height="170" viewBox="0 0 170 170">
  <defs>
    <style>
      .cls-1 {
        fill: #925eb3;
        fill-rule: evenodd;
      }
    </style>
  </defs>
  <path d="M85.000,170.000 C38.056,170.000 0.000,131.944 0.000,85.000 C0.000,38.056 38.056,-0.000 85.000,-0.000 C131.944,-0.000 170.000,38.056 170.000,85.000 C170.000,131.944 131.944,170.000 85.000,170.000 ZM85.000,2.000 C39.160,2.000 2.000,39.160 2.000,85.000 C2.000,130.840 39.160,168.000 85.000,168.000 C130.840,168.000 168.000,130.840 168.000,85.000 C168.000,39.160 130.840,2.000 85.000,2.000 ZM120.326,112.939 L117.374,112.939 L120.189,107.110 L117.352,107.110 L114.265,112.939 L108.497,112.939 L111.312,107.110 L108.474,107.110 L105.387,112.939 L99.803,112.939 L102.617,107.110 L99.780,107.110 L96.694,112.939 L90.926,112.939 L93.740,107.110 L90.903,107.110 L87.816,112.939 L82.231,112.939 L85.046,107.110 L82.209,107.110 L79.122,112.939 L73.354,112.939 L76.169,107.110 L73.331,107.110 L70.245,112.939 L64.660,112.939 L67.474,107.110 L64.637,107.110 L61.550,112.939 L55.782,112.939 L58.597,107.110 L55.760,107.110 L52.673,112.939 L49.674,112.939 C49.674,112.939 48.652,112.911 47.482,112.475 L49.812,107.110 L46.975,107.110 L45.028,110.660 C44.426,109.828 44.000,108.714 44.000,107.156 L44.000,107.064 L49.857,104.218 L49.857,101.097 L44.000,104.218 L44.000,98.251 L49.857,95.405 L49.857,92.283 L44.000,95.405 L44.000,89.438 L49.857,86.592 L49.857,83.471 L44.000,86.592 L44.000,80.624 L49.857,77.778 L49.857,74.658 L44.000,77.778 L44.000,71.812 L49.857,70.435 L76.032,90.540 C76.032,90.540 79.509,95.497 84.817,95.497 C84.817,95.497 89.271,96.231 93.847,90.723 L126.000,65.936 L126.000,68.966 L123.255,68.415 L121.516,69.884 L126.000,71.812 L126.000,77.778 L120.143,74.658 L120.143,77.778 L126.000,80.624 L126.000,86.592 L120.143,83.471 L120.143,86.592 L126.000,89.438 L126.000,95.405 L120.143,92.283 L120.143,95.405 L126.000,98.251 L126.000,104.218 L120.143,101.097 L120.143,104.218 L126.000,107.064 L126.000,107.064 C126.000,107.064 125.817,112.939 120.326,112.939 ZM117.352,112.986 L114.240,112.986 L114.265,112.939 L117.374,112.939 L117.352,112.986 ZM108.474,112.986 L105.363,112.986 L105.387,112.939 L108.497,112.939 L108.474,112.986 ZM99.780,112.986 L96.669,112.986 L96.694,112.939 L99.803,112.939 L99.780,112.986 ZM90.903,112.986 L87.791,112.986 L87.816,112.939 L90.926,112.939 L90.903,112.986 ZM82.209,112.986 L79.097,112.986 L79.122,112.939 L82.231,112.939 L82.209,112.986 ZM73.331,112.986 L70.220,112.986 L70.245,112.939 L73.354,112.939 L73.331,112.986 ZM64.637,112.986 L61.526,112.986 L61.550,112.939 L64.660,112.939 L64.637,112.986 ZM55.760,112.986 L52.649,112.986 L52.673,112.939 L55.782,112.939 L55.760,112.986 ZM45.991,111.657 C46.478,112.031 46.987,112.290 47.482,112.475 L47.340,112.802 L45.991,111.657 ZM44.961,110.782 L45.028,110.660 C45.224,110.930 45.437,111.171 45.666,111.380 L44.961,110.782 ZM44.000,65.936 L47.091,68.309 L44.000,68.966 L44.000,65.936 ZM47.173,68.292 L49.857,70.435 L49.857,70.435 L47.091,68.309 L47.173,68.292 ZM79.420,89.331 L44.126,62.939 C44.126,62.939 43.714,57.007 49.768,57.007 L120.324,57.007 C120.324,57.007 125.905,57.248 125.905,63.032 L90.946,89.331 C90.946,89.331 86.009,95.941 79.420,89.331 ZM91.406,64.467 C91.406,63.606 90.710,62.999 89.851,62.999 L74.813,63.020 C73.460,61.222 71.281,60.061 68.870,60.061 C64.788,60.061 61.480,63.380 61.480,67.474 C61.480,71.568 64.788,74.886 68.870,74.886 C71.351,74.886 73.547,73.660 74.887,71.778 L86.465,71.811 C87.273,71.811 87.929,71.246 87.929,70.434 C87.929,69.623 87.273,68.875 86.465,68.875 L76.178,68.854 C76.232,68.494 76.260,67.850 76.260,67.474 C76.260,67.049 76.204,66.453 76.106,65.958 L89.851,65.935 C90.710,65.935 91.406,65.329 91.406,64.467 ZM68.893,71.812 C66.467,71.812 64.500,69.839 64.500,67.405 C64.500,64.972 66.467,62.999 68.893,62.999 C71.319,62.999 73.286,64.972 73.286,67.405 C73.286,69.839 71.319,71.812 68.893,71.812 Z" class="cls-1"/>
</svg>
