<svg xmlns="http://www.w3.org/2000/svg" xmlns:xlink="http://www.w3.org/1999/xlink" preserveAspectRatio="xMidYMid" width="170" height="170" viewBox="0 0 170 170">
  <defs>
    <style>
      .cls-1 {
        fill: #98615e;
        fill-rule: evenodd;
      }
    </style>
  </defs>
  <path d="M85.000,170.000 C38.056,170.000 0.000,131.944 0.000,85.000 C0.000,38.056 38.056,0.000 85.000,0.000 C131.944,0.000 170.000,38.056 170.000,85.000 C170.000,131.944 131.944,170.000 85.000,170.000 ZM85.000,2.000 C39.161,2.000 2.000,39.161 2.000,85.000 C2.000,130.840 39.161,168.000 85.000,168.000 C130.840,168.000 168.000,130.840 168.000,85.000 C168.000,39.161 130.840,2.000 85.000,2.000 ZM111.250,130.000 L53.750,130.000 C50.575,130.000 48.000,127.426 48.000,124.250 L48.000,52.375 C48.000,49.200 50.575,46.626 53.750,46.626 L71.000,46.626 L71.000,43.750 C71.000,40.575 73.575,38.000 76.750,38.000 L88.250,38.000 C91.426,38.000 94.000,40.575 94.000,43.750 L94.000,46.626 L111.250,46.626 C114.426,46.626 117.000,49.200 117.000,52.375 L117.000,124.250 C117.000,127.426 114.426,130.000 111.250,130.000 ZM82.500,40.876 C80.912,40.876 79.625,42.163 79.625,43.750 C79.625,45.338 80.912,46.626 82.500,46.626 C84.088,46.626 85.375,45.338 85.375,43.750 C85.375,42.163 84.088,40.876 82.500,40.876 ZM111.250,55.251 L88.250,55.251 L76.750,55.251 L53.750,55.251 L53.750,124.250 L111.250,124.250 L111.250,55.251 ZM68.125,69.625 L62.375,69.625 L62.375,63.875 L68.125,63.875 L68.125,69.625 ZM68.125,81.125 L62.375,81.125 L62.375,75.375 L68.125,75.375 L68.125,81.125 ZM68.125,92.626 L62.375,92.626 L62.375,86.875 L68.125,86.875 L68.125,92.626 ZM68.125,104.125 L62.375,104.125 L62.375,98.375 L68.125,98.375 L68.125,104.125 ZM68.125,115.625 L62.375,115.625 L62.375,109.875 L68.125,109.875 L68.125,115.625 ZM102.625,109.875 L102.625,115.625 L71.000,115.625 L71.000,109.875 L102.625,109.875 ZM71.000,98.375 L102.625,98.375 L102.625,104.125 L71.000,104.125 L71.000,98.375 ZM71.000,86.875 L102.625,86.875 L102.625,92.626 L71.000,92.626 L71.000,86.875 ZM71.000,75.375 L102.625,75.375 L102.625,81.125 L71.000,81.125 L71.000,75.375 ZM71.000,63.875 L102.625,63.875 L102.625,69.625 L71.000,69.625 L71.000,63.875 Z" class="cls-1"/>
</svg>
